<svg xmlns="http://www.w3.org/2000/svg" width="17.04" height="14.805" viewBox="0 0 17.04 14.805">
    <g id="about-faq-help-question-svgrepo-com" transform="translate(-95.748 -577)">
        <path id="Path_2126" data-name="Path 2126" d="M109.346,586.763a1.045,1.045,0,0,1,.215-.63,4.076,4.076,0,0,1,.634-.651,4.453,4.453,0,0,0,.58-.6.872.872,0,0,0,.162-.527.859.859,0,0,0-.871-.878.91.91,0,0,0-.623.238,1.57,1.57,0,0,0-.419.695l-.945-.412a2.208,2.208,0,0,1,.757-1.166,2.032,2.032,0,0,1,1.273-.407,2.181,2.181,0,0,1,1,.233,1.83,1.83,0,0,1,.725.656,1.745,1.745,0,0,1,.269.955,1.619,1.619,0,0,1-.236.863,3.865,3.865,0,0,1-.72.819,6.072,6.072,0,0,0-.6.581.674.674,0,0,0-.166.439,1.251,1.251,0,0,0,.044.293h-.966a1.2,1.2,0,0,1-.12-.5Zm.644,3.06a.813.813,0,0,1-.6-.238.8.8,0,0,1-.242-.6.823.823,0,0,1,.242-.6.806.806,0,0,1,.6-.244.821.821,0,0,1,.838.847.805.805,0,0,1-.241.6A.815.815,0,0,1,109.99,589.823Z" transform="translate(-5.824 -3.042)"/>
        <path id="Path_2127" data-name="Path 2127" d="M96.49,591.8a.835.835,0,0,1-.315-.061.641.641,0,0,1-.427-.585V578.568a1.7,1.7,0,0,1,1.8-1.568h13.442a1.7,1.7,0,0,1,1.8,1.568v8.964a1.7,1.7,0,0,1-1.8,1.568H100.93a1.406,1.406,0,0,0-.824.261l-3.143,2.292A.807.807,0,0,1,96.49,591.8Zm1.057-13.926a.747.747,0,0,0-.792.69V590.66l2.7-1.972a2.509,2.509,0,0,1,1.471-.465h10.059a.747.747,0,0,0,.792-.69v-8.964a.747.747,0,0,0-.792-.69Z" transform="translate(0)"/>
    </g>
</svg>
