<svg viewBox="16.0 71.62 22.01 20.76" ><path transform="translate(10.38, 65.29)" d="M 25.7244930267334 14.70831680297852 L 12.3415060043335 14.70831680297852 L 17.53210639953613 9.742855072021484 C 18.27630043029785 8.961139678955078 18.27630043029785 7.69788646697998 17.53210639953613 6.916170120239258 C 16.78791046142578 6.134454250335693 15.58094120025635 6.134454250335693 14.83049392700195 6.916170120239258 L 6.187835693359375 15.29617023468018 C 5.81261157989502 15.65888500213623 5.625 16.15293121337891 5.625 16.69700622558594 L 5.625 16.72202110290527 C 5.625 17.2660961151123 5.81261157989502 17.76013946533203 6.187835693359375 18.12285804748535 L 14.82423782348633 26.50285720825195 C 15.57468509674072 27.28457450866699 16.78165817260742 27.28457450866699 17.52585029602051 26.50285720825195 C 18.27004432678223 25.72113990783691 18.27004432678223 24.45788764953613 17.52585029602051 23.67616844177246 L 12.33525466918945 18.7107105255127 L 25.71823692321777 18.7107105255127 C 26.77511787414551 18.7107105255127 27.63187789916992 17.81642723083496 27.63187789916992 16.70951461791992 C 27.63813400268555 15.58384037017822 26.7813720703125 14.70831680297852 25.7244930267334 14.70831680297852 Z" fill="#000000" stroke="none" stroke-width="1" stroke-miterlimit="4" stroke-linecap="butt" /></svg>
