<svg viewBox="295.02 743.52 20.96 23.96">
    <path transform="translate(295.02, 743.52)"
        d="M 0 21.71194458007812 C 0 22.95195960998535 1.006049156188965 23.9580078125 2.246063232421875 23.9580078125 L 18.71719360351562 23.9580078125 C 19.95720863342285 23.9580078125 20.9632568359375 22.95195960998535 20.9632568359375 21.71194458007812 L 20.9632568359375 8.9842529296875 L 0 8.9842529296875 L 0 21.71194458007812 Z M 14.9737548828125 12.54051971435547 C 14.9737548828125 12.23168659210205 15.22643756866455 11.97900390625 15.53527069091797 11.97900390625 L 17.40699005126953 11.97900390625 C 17.71582412719727 11.97900390625 17.968505859375 12.23168659210205 17.968505859375 12.54051971435547 L 17.968505859375 14.41223907470703 C 17.968505859375 14.72107219696045 17.71582412719727 14.9737548828125 17.40699005126953 14.9737548828125 L 15.53527069091797 14.9737548828125 C 15.22643756866455 14.9737548828125 14.9737548828125 14.72107219696045 14.9737548828125 14.41223907470703 L 14.9737548828125 12.54051971435547 Z M 14.9737548828125 18.53002166748047 C 14.9737548828125 18.22118949890137 15.22643756866455 17.968505859375 15.53527069091797 17.968505859375 L 17.40699005126953 17.968505859375 C 17.71582412719727 17.968505859375 17.968505859375 18.22118949890137 17.968505859375 18.53002166748047 L 17.968505859375 20.40174102783203 C 17.968505859375 20.71057510375977 17.71582412719727 20.9632568359375 17.40699005126953 20.9632568359375 L 15.53527069091797 20.9632568359375 C 15.22643756866455 20.9632568359375 14.9737548828125 20.71057510375977 14.9737548828125 20.40174102783203 L 14.9737548828125 18.53002166748047 Z M 8.9842529296875 12.54051971435547 C 8.9842529296875 12.23168659210205 9.236934661865234 11.97900390625 9.545768737792969 11.97900390625 L 11.41748809814453 11.97900390625 C 11.72632122039795 11.97900390625 11.97900390625 12.23168659210205 11.97900390625 12.54051971435547 L 11.97900390625 14.41223907470703 C 11.97900390625 14.72107219696045 11.72632122039795 14.9737548828125 11.41748809814453 14.9737548828125 L 9.545768737792969 14.9737548828125 C 9.236934661865234 14.9737548828125 8.9842529296875 14.72107219696045 8.9842529296875 14.41223907470703 L 8.9842529296875 12.54051971435547 Z M 8.9842529296875 18.53002166748047 C 8.9842529296875 18.22118949890137 9.236934661865234 17.968505859375 9.545768737792969 17.968505859375 L 11.41748809814453 17.968505859375 C 11.72632122039795 17.968505859375 11.97900390625 18.22118949890137 11.97900390625 18.53002166748047 L 11.97900390625 20.40174102783203 C 11.97900390625 20.71057510375977 11.72632122039795 20.9632568359375 11.41748809814453 20.9632568359375 L 9.545768737792969 20.9632568359375 C 9.236934661865234 20.9632568359375 8.9842529296875 20.71057510375977 8.9842529296875 20.40174102783203 L 8.9842529296875 18.53002166748047 Z M 2.9947509765625 12.54051971435547 C 2.9947509765625 12.23168659210205 3.247432947158813 11.97900390625 3.556266784667969 11.97900390625 L 5.427986145019531 11.97900390625 C 5.736820220947266 11.97900390625 5.989501953125 12.23168659210205 5.989501953125 12.54051971435547 L 5.989501953125 14.41223907470703 C 5.989501953125 14.72107219696045 5.736820220947266 14.9737548828125 5.427986145019531 14.9737548828125 L 3.556266784667969 14.9737548828125 C 3.247432947158813 14.9737548828125 2.9947509765625 14.72107219696045 2.9947509765625 14.41223907470703 L 2.9947509765625 12.54051971435547 Z M 2.9947509765625 18.53002166748047 C 2.9947509765625 18.22118949890137 3.247432947158813 17.968505859375 3.556266784667969 17.968505859375 L 5.427986145019531 17.968505859375 C 5.736820220947266 17.968505859375 5.989501953125 18.22118949890137 5.989501953125 18.53002166748047 L 5.989501953125 20.40174102783203 C 5.989501953125 20.71057510375977 5.736820220947266 20.9632568359375 5.427986145019531 20.9632568359375 L 3.556266784667969 20.9632568359375 C 3.247432947158813 20.9632568359375 2.9947509765625 20.71057510375977 2.9947509765625 20.40174102783203 L 2.9947509765625 18.53002166748047 Z M 18.71719360351562 2.9947509765625 L 16.47113037109375 2.9947509765625 L 16.47113037109375 0.748687744140625 C 16.47113037109375 0.3369095027446747 16.13422012329102 0 15.72244262695312 0 L 14.22506713867188 0 C 13.81328964233398 0 13.47637939453125 0.3369095027446747 13.47637939453125 0.748687744140625 L 13.47637939453125 2.9947509765625 L 7.48687744140625 2.9947509765625 L 7.48687744140625 0.748687744140625 C 7.48687744140625 0.3369095027446747 7.149967670440674 0 6.738189697265625 0 L 5.240814208984375 0 C 4.829035758972168 0 4.49212646484375 0.3369095027446747 4.49212646484375 0.748687744140625 L 4.49212646484375 2.9947509765625 L 2.246063232421875 2.9947509765625 C 1.006049156188965 2.9947509765625 0 4.000800132751465 0 5.240814208984375 L 0 7.48687744140625 L 20.9632568359375 7.48687744140625 L 20.9632568359375 5.240814208984375 C 20.9632568359375 4.000800132751465 19.95720863342285 2.9947509765625 18.71719360351562 2.9947509765625 Z"
        fill="#ebebeb" stroke="none" stroke-width="1" stroke-miterlimit="4" stroke-linecap="butt" />
</svg>