<svg xmlns="http://www.w3.org/2000/svg" width="18.494" height="16.182" viewBox="0 0 18.494 16.182">
  <path id="Icon_awesome-camera" data-name="Icon awesome-camera" d="M18.494,6.3V16.7a1.734,1.734,0,0,1-1.734,1.734H1.734A1.734,1.734,0,0,1,0,16.7V6.3A1.734,1.734,0,0,1,1.734,4.562H4.913l.444-1.188A1.731,1.731,0,0,1,6.979,2.25h4.533a1.731,1.731,0,0,1,1.622,1.123l.448,1.188H16.76A1.734,1.734,0,0,1,18.494,6.3Zm-4.913,5.2a4.335,4.335,0,1,0-4.335,4.335A4.338,4.338,0,0,0,13.582,11.5Zm-1.156,0A3.179,3.179,0,1,1,9.247,8.318,3.183,3.183,0,0,1,12.426,11.5Z" transform="translate(0 -2.25)" fill="#fff"/>
</svg>
