<svg xmlns="http://www.w3.org/2000/svg" width="14.177" height="14.177" viewBox="0 0 14.177 14.177">
    <g id="Icon_feather-copy" data-name="Icon feather-copy" transform="translate(-2.25 -2.25)">
        <path id="Path_247" data-name="Path 247" d="M14.768,13.5h5.7a1.268,1.268,0,0,1,1.268,1.268v5.7a1.268,1.268,0,0,1-1.268,1.268h-5.7A1.268,1.268,0,0,1,13.5,20.472v-5.7A1.268,1.268,0,0,1,14.768,13.5Z" transform="translate(-6.063 -6.063)" fill="none" stroke="#1c1b21" stroke-linecap="round" stroke-linejoin="round" stroke-width="1.5"/>
        <path id="Path_248" data-name="Path 248" d="M4.9,11.24H4.268A1.268,1.268,0,0,1,3,9.972v-5.7A1.268,1.268,0,0,1,4.268,3h5.7A1.268,1.268,0,0,1,11.24,4.268V4.9" fill="none" stroke="#1c1b21" stroke-linecap="round" stroke-linejoin="round" stroke-width="1.5"/>
    </g>
</svg>