<svg xmlns="http://www.w3.org/2000/svg" width="32.543" height="18.788" viewBox="0 0 32.543 18.788">
  <g id="group-svgrepo-com" transform="translate(0 0)">
    <g id="Group_31" data-name="Group 31" transform="translate(0 0)">
      <path id="Path_8" data-name="Path 8" d="M347.331,161.966a23.081,23.081,0,0,0-4.156-2.775.132.132,0,0,1-.073-.125v-2.935a1.385,1.385,0,0,0,.586-1.145v-3.046a2.689,2.689,0,0,0-2.631-2.741h-.626a2.689,2.689,0,0,0-2.631,2.741v3.046a1.4,1.4,0,0,0,.586,1.145v2.935c0,.021-.007.035-.007.049.553.4,1.132.84,1.7,1.325a3.022,3.022,0,0,1,1.039,2.3v2.449h6.727V163.1A1.5,1.5,0,0,0,347.331,161.966Z" transform="translate(-315.301 -146.404)" fill="#ffc905"/>
      <path id="Path_9" data-name="Path 9" d="M9.458,159.066v-2.935a1.385,1.385,0,0,0,.586-1.145v-3.046A2.689,2.689,0,0,0,7.413,149.2H6.787a2.689,2.689,0,0,0-2.631,2.741v3.046a1.4,1.4,0,0,0,.586,1.145v2.935a.147.147,0,0,1-.073.125,22.6,22.6,0,0,0-4.156,2.775A1.5,1.5,0,0,0,0,163.1v2.088H6.727v-2.449a3.033,3.033,0,0,1,1.039-2.3c.566-.486,1.146-.93,1.7-1.325C9.465,159.1,9.458,159.087,9.458,159.066Z" transform="translate(0 -146.404)" fill="#ffc905"/>
      <path id="Path_10" data-name="Path 10" d="M135.085,123.9a27.113,27.113,0,0,0-4.889-3.268.163.163,0,0,1-.087-.146v-3.448a1.644,1.644,0,0,0,.693-1.339v-3.58a3.159,3.159,0,0,0-3.09-3.219h-.733a3.159,3.159,0,0,0-3.09,3.219v3.573a1.607,1.607,0,0,0,.693,1.339v3.448a.163.163,0,0,1-.087.146,26.791,26.791,0,0,0-4.889,3.268,1.748,1.748,0,0,0-.606,1.339v2.449h7.253l.719-3.42c-1.445-2.1.107-2.206.38-2.206h0c.273,0,1.825.1.38,2.206l.719,3.42H135.7v-2.449A1.8,1.8,0,0,0,135.085,123.9Z" transform="translate(-111.074 -108.9)" fill="#ffc905"/>
    </g>
  </g>
</svg>
