<svg xmlns="http://www.w3.org/2000/svg" width="11.354" height="14.588" viewBox="0 0 11.354 14.588">
    <g id="delete-svgrepo-com" transform="translate(-31.481 0)">
        <g id="Group_220" data-name="Group 220" transform="translate(31.481 0)">
            <path id="Path_249" data-name="Path 249" d="M41.973,3.4l-1.439-.683.075-.157A1.381,1.381,0,0,0,39.955.722L38.716.134a1.38,1.38,0,0,0-1.838.654L36.8.945,35.364.262a1.513,1.513,0,0,0-2.014.717l-.368.775a.514.514,0,0,0,.244.684l3.812,1.811H32a.514.514,0,0,0-.512.556l.675,8.1a1.845,1.845,0,0,0,1.828,1.682h3.777a1.845,1.845,0,0,0,1.828-1.682l.6-7.161,1.449.688a.513.513,0,0,0,.684-.244l.368-.775A1.513,1.513,0,0,0,41.973,3.4ZM37.805,1.229a.352.352,0,0,1,.47-.167l1.239.588a.353.353,0,0,1,.167.47l-.075.157-1.876-.891Zm.763,11.592a.812.812,0,0,1-.8.74H33.986a.812.812,0,0,1-.8-.74l-.629-7.544H39.2Zm3.194-7.847-.148.311L34.131,1.731l.148-.311a.485.485,0,0,1,.645-.23l6.609,3.139A.485.485,0,0,1,41.762,4.974Z" transform="translate(-31.481 0)" fill="#1c1b21"/>
        </g>
    </g>
</svg>
