<svg viewBox="157.0 656.19 21.62 22.0">
    <path transform="translate(154.0, 653.19)"
        d="M 13.79851627349854 3 C 7.83176851272583 3 2.999999761581421 7.927999973297119 2.999999761581421 13.99999904632568 C 2.999999761581421 20.07199859619141 7.83176851272583 25 13.79851627349854 25 C 19.77607345581055 25 24.61865234375 20.07200050354004 24.61865234375 13.99999904632568 C 24.61865234375 7.927999019622803 19.77607345581055 3 13.79851627349854 3 Z M 21.28937911987305 9.599998474121094 L 18.10062980651855 9.599998474121094 C 17.75473213195801 8.22499942779541 17.25750350952148 6.904999732971191 16.60894393920898 5.684000015258789 C 18.59785842895508 6.376999855041504 20.25168609619141 7.784998893737793 21.28937911987305 9.599998474121094 Z M 13.80932521820068 5.24399995803833 C 14.70650100708008 6.563999652862549 15.40910530090332 8.026999473571777 15.87390613555908 9.599998474121094 L 11.74474430084229 9.599998474121094 C 12.20954513549805 8.026999473571777 12.91215133666992 6.564000129699707 13.80932521820068 5.24399995803833 Z M 5.442907333374023 16.19999885559082 C 5.26995849609375 15.49599838256836 5.161864757537842 14.75899887084961 5.161864757537842 13.99999904632568 C 5.161864757537842 13.24099922180176 5.26995849609375 12.50399971008301 5.442907333374023 11.79999923706055 L 9.09645938873291 11.79999923706055 C 9.009984970092773 12.52599906921387 8.945128440856934 13.25199890136719 8.945128440856934 13.99999904632568 C 8.945128440856934 14.74799919128418 9.009984970092773 15.4739990234375 9.09645938873291 16.19999885559082 L 5.442907333374023 16.19999885559082 Z M 6.329271793365479 18.39999961853027 L 9.518023490905762 18.39999961853027 C 9.863921165466309 19.77499961853027 10.36115074157715 21.09499931335449 11.00970935821533 22.31599998474121 C 9.020793914794922 21.62300109863281 7.36696720123291 20.22599983215332 6.329271793365479 18.39999961853027 Z M 9.518023490905762 9.599998474121094 L 6.329271793365479 9.599998474121094 C 7.36696720123291 7.77400016784668 9.020793914794922 6.376999855041504 11.00970935821533 5.684000015258789 C 10.36115074157715 6.904999732971191 9.863921165466309 8.22499942779541 9.518023490905762 9.599998474121094 Z M 13.80932521820068 22.75600051879883 C 12.91215038299561 21.43600082397461 12.20954418182373 19.97299957275391 11.74474430084229 18.39999961853027 L 15.87390613555908 18.39999961853027 C 15.40910530090332 19.97299957275391 14.70649909973145 21.43599891662598 13.80932521820068 22.75600051879883 Z M 16.33870697021484 16.19999885559082 L 11.27994251251221 16.19999885559082 C 11.18265819549561 15.4739990234375 11.10699367523193 14.74799919128418 11.10699367523193 13.99999904632568 C 11.10699367523193 13.25199890136719 11.18265819549561 12.51499938964844 11.27994251251221 11.79999923706055 L 16.33870697021484 11.79999923706055 C 16.43599319458008 12.51499938964844 16.51165771484375 13.25199890136719 16.51165771484375 13.99999904632568 C 16.51165771484375 14.74799919128418 16.43599319458008 15.4739990234375 16.33870697021484 16.19999885559082 Z M 16.60894203186035 22.31599998474121 C 17.25750160217285 21.09499931335449 17.75473022460938 19.77499961853027 18.10062789916992 18.39999961853027 L 21.28937911987305 18.39999961853027 C 20.25168418884277 20.21500015258789 18.59785842895508 21.62300109863281 16.60894393920898 22.31599998474121 Z M 18.52219390869141 16.19999885559082 C 18.60866928100586 15.4739990234375 18.67352104187012 14.74799919128418 18.67352104187012 13.99999904632568 C 18.67352104187012 13.25199890136719 18.60866737365723 12.52599906921387 18.52219390869141 11.79999923706055 L 22.17574501037598 11.79999923706055 C 22.34869384765625 12.50399971008301 22.456787109375 13.24099922180176 22.456787109375 13.99999904632568 C 22.456787109375 14.75899887084961 22.34869384765625 15.49599838256836 22.17574501037598 16.19999885559082 L 18.52219390869141 16.19999885559082 Z"
        fill="#000000" stroke="none" stroke-width="1" stroke-miterlimit="4" stroke-linecap="butt" />
</svg>