<svg viewBox="0.0 0.0 30.53 25.27" ><path transform="translate(0.0, -92.99)" d="M 4.802006244659424 107.0316467285156 L 21.09394836425781 107.0316467285156 C 21.87055206298828 107.0316467285156 22.50016021728516 106.4020233154297 22.50016021728516 105.6254272460938 C 22.50016021728516 104.8488159179688 21.87055206298828 104.2192077636719 21.09394836425781 104.2192077636719 L 4.802006244659424 104.2192077636719 L 6.6201491355896 102.4010620117188 C 7.169323444366455 101.8518981933594 7.169323444366455 100.9615783691406 6.6201491355896 100.4123992919922 C 6.07106876373291 99.86322021484375 5.18065357208252 99.86322021484375 4.631479740142822 100.4123992919922 L 0.4130211472511292 104.6309509277344 C 0.3801157176494598 104.6638488769531 0.3489914536476135 104.6983489990234 0.3195546865463257 104.7343444824219 C 0.3067112565040588 104.75 0.2955552935600281 104.7666015625 0.2834618389606476 104.7826385498047 C 0.2679934799671173 104.8032531738281 0.252056360244751 104.8234100341797 0.2377129793167114 104.8448791503906 C 0.2245882898569107 104.8644866943359 0.2132448256015778 104.8848266601562 0.201245129108429 104.9048919677734 C 0.1897141635417938 104.9241943359375 0.1776206940412521 104.9430389404297 0.1670272052288055 104.9629058837891 C 0.1559649854898453 104.9835357666016 0.1466839760541916 105.0047149658203 0.1367467045783997 105.0257110595703 C 0.1269969493150711 105.0462493896484 0.1167784631252289 105.0664978027344 0.1080599278211594 105.0874938964844 C 0.09962263703346252 105.1080322265625 0.09268531203269958 105.1289367675781 0.08527924120426178 105.1497497558594 C 0.07712320238351822 105.1722412109375 0.0684984102845192 105.1944732666016 0.06156108528375626 105.2174377441406 C 0.05527998134493828 105.2382507324219 0.05068635195493698 105.2593383789062 0.04543647915124893 105.2804260253906 C 0.03953037783503532 105.3037719726562 0.03296803683042526 105.3270263671875 0.02828065492212772 105.3508453369141 C 0.02349952422082424 105.3751068115234 0.02059334330260754 105.3996734619141 0.01712467893958092 105.4241485595703 C 0.01412475295364857 105.4450531005859 0.01009360328316689 105.4656829833984 0.008031154982745647 105.4868621826172 C 0.003531266003847122 105.5322418212891 0.001187574118375778 105.5778961181641 0.00109382625669241 105.6234588623047 C 0.00109382625669241 105.6241149902344 0.001000078511424363 105.6248626708984 0.001000078511424363 105.6255187988281 C 0.001000078511424363 105.6261749267578 0.00109382625669241 105.6269226074219 0.00109382625669241 105.6275787353516 C 0.001187574001960456 105.6732330322266 0.003531266003847122 105.7187957763672 0.008031154982745647 105.7642669677734 C 0.01009360328316689 105.7851715087891 0.01403100602328777 105.8055114746094 0.01693718507885933 105.8262329101562 C 0.02049959637224674 105.8509826660156 0.023405771702528 105.875732421875 0.02828065492212772 105.9002838134766 C 0.03296804055571556 105.9239196777344 0.03943662345409393 105.9467926025391 0.04534273594617844 105.9699554443359 C 0.05068635195493698 105.9912261962891 0.05537373572587967 106.0126953125 0.06174857541918755 106.0337982177734 C 0.06859216839075089 106.0563812255859 0.07712320238351822 106.0782165527344 0.0849980041384697 106.1003570556641 C 0.0925915539264679 106.1215362548828 0.09952887892723083 106.142822265625 0.1081536710262299 106.1636199951172 C 0.1166847050189972 106.1842498779297 0.1267157047986984 106.2040252685547 0.136277973651886 106.2241821289062 C 0.1464027166366577 106.2456665039062 0.1559649854898453 106.2673187255859 0.1672147065401077 106.2884063720703 C 0.1775269508361816 106.3076324462891 0.189245417714119 106.3259124755859 0.2004013806581497 106.3445587158203 C 0.2126823365688324 106.3652801513672 0.2244008034467697 106.3861846923828 0.2379004657268524 106.4063415527344 C 0.2515876293182373 106.4268798828125 0.266868531703949 106.4460906982422 0.2815869152545929 106.4658660888672 C 0.2943366169929504 106.4828338623047 0.3061487972736359 106.5003662109375 0.3197422027587891 106.5168609619141 C 0.3477727770805359 106.5509948730469 0.3774907886981964 106.5837249755859 0.4085213243961334 106.6151275634766 C 0.4100212454795837 106.6166229248047 0.4112399816513062 106.6183013916016 0.4127399623394012 106.6197967529297 L 4.631385803222656 110.8385467529297 C 4.906066417694092 111.1131439208984 5.265870571136475 111.2504730224609 5.625767230987549 111.2504730224609 C 5.985571384429932 111.2503814697266 6.345561981201172 111.1131439208984 6.620055675506592 110.8386383056641 C 7.169229507446289 110.2894592285156 7.169229507446289 109.3991394042969 6.6201491355896 108.8499755859375 L 4.802006244659424 107.0316467285156 Z" fill="#e5e5e5" stroke="none" stroke-width="1" stroke-miterlimit="4" stroke-linecap="butt" /><path transform="translate(-90.63, -25.0)" d="M 119.713623046875 25 L 101.4443359375 25 C 100.6477966308594 25 100.0020141601562 25.62867736816406 100.0020141601562 26.40412902832031 L 100.0020141601562 32.0206413269043 C 100.0020141601562 32.79609298706055 100.6477966308594 33.42477416992188 101.4443359375 33.42477416992188 C 102.2408752441406 33.42477416992188 102.8866424560547 32.79609298706055 102.8866424560547 32.0206413269043 L 102.8866424560547 27.80825805664062 L 118.2713012695312 27.80825805664062 L 118.2713012695312 47.46615600585938 L 102.8866424560547 47.46615600585938 L 102.8866424560547 43.2536735534668 C 102.8866424560547 42.47822189331055 102.2408752441406 41.84954452514648 101.4443359375 41.84954452514648 C 100.6477966308594 41.84954452514648 100.0020141601562 42.47822189331055 100.0020141601562 43.2536735534668 L 100.0020141601562 48.87028503417969 C 100.0020141601562 49.6457405090332 100.6477966308594 50.2744140625 101.4443359375 50.2744140625 L 119.713623046875 50.2744140625 C 120.5101623535156 50.2744140625 121.1559448242188 49.6457405090332 121.1559448242188 48.87028503417969 L 121.1559448242188 26.40412902832031 C 121.1559448242188 25.62867736816406 120.5101623535156 25 119.713623046875 25 Z" fill="#e5e5e5" stroke="none" stroke-width="1" stroke-miterlimit="4" stroke-linecap="butt" /></svg>
