<svg viewBox="10420.0 2444.0 20.0 20.0" ><path transform="translate(10416.0, 2440.0)" d="M 8 16.02499961853027 L 15.82499980926514 16.02499961853027 L 15.82499980926514 14.52499961853027 L 8 14.52499961853027 L 8 16.02499961853027 Z M 8 12.77499961853027 L 20 12.77499961853027 L 20 11.27499961853027 L 8 11.27499961853027 L 8 12.77499961853027 Z M 8 9.524999618530273 L 20 9.524999618530273 L 20 8.024999618530273 L 8 8.024999618530273 L 8 9.524999618530273 Z M 4 24 L 4 5.5 C 4 5.116666793823242 4.150000095367432 4.770833015441895 4.449999809265137 4.462500095367432 C 4.75 4.154166698455811 5.100000381469727 4 5.5 4 L 22.5 4 C 22.88333320617676 4 23.22916793823242 4.154166698455811 23.53750038146973 4.462500095367432 C 23.84583282470703 4.770833015441895 24 5.116666793823242 24 5.5 L 24 18.5 C 24 18.88333320617676 23.84583282470703 19.22916793823242 23.53750038146973 19.53750038146973 C 23.22916793823242 19.84583282470703 22.88333320617676 20 22.5 20 L 12.22712707519531 20 L 8 20 L 4 24 Z M 5.5 20.375 L 7.375 18.5 L 22.5 18.5 L 22.5 5.5 L 5.5 5.5 L 5.5 20.375 Z M 5.5 5.5 L 5.5 20.375 L 5.5 5.5 Z" fill="#000000" stroke="none" stroke-width="1" stroke-miterlimit="4" stroke-linecap="butt" /></svg>
