<svg viewBox="4.49 3.1 24.18 27.3" ><path transform="translate(4.49, 3.11)" d="M 8.292488098144531 23.49752426147461 L 8.292488098144531 22.80648231506348 L 3.109688520431519 22.80648231506348 C 1.393207669258118 22.80419731140137 0.00229346752166748 21.41328430175781 8.290769983432256e-06 19.69680213928223 L 8.290769983432256e-06 19.16884803771973 C -0.005518640391528606 17.82744598388672 0.7532747983932495 16.59997177124023 1.955652117729187 16.0052661895752 C 2.491536617279053 15.73727130889893 2.849950790405273 15.210373878479 2.902376413345337 14.61351299285889 L 3.518784284591675 7.827500343322754 C 3.917479515075684 3.392326831817627 7.634628295898438 -0.005662329029291868 12.08768177032471 -0.005661011207848787 C 16.54073524475098 -0.005661011207848787 20.25788307189941 3.39232873916626 20.65657615661621 7.827500343322754 L 21.27298355102539 14.61351299285889 C 21.32969665527344 15.20854091644287 21.68762016296387 15.7329044342041 22.22108840942383 16.00250244140625 C 23.42437553405762 16.59752464294434 24.18451309204102 17.82510375976562 24.18087768554688 19.16746520996094 L 24.18087768554688 19.69542121887207 C 24.17935752868652 21.41221809387207 22.78799438476562 22.8035774230957 21.07119941711426 22.80510139465332 L 15.89392852783203 22.80510139465332 L 15.89392852783203 23.49752426147461 C 15.89392948150635 25.59660339355469 14.19228839874268 27.29824638366699 12.09320831298828 27.29824638366699 C 9.99413013458252 27.29824638366699 8.292490005493164 25.59660339355469 8.292490005493164 23.49752426147461 Z M 10.36560821533203 23.49752426147461 C 10.36560821533203 24.45165061950684 11.13908100128174 25.22512626647949 12.09320831298828 25.22512626647949 C 13.04733467102051 25.22512626647949 13.82080841064453 24.45165061950684 13.82080841064453 23.49752426147461 L 13.82080841064453 22.80648231506348 L 10.36560821533203 22.80648231506348 L 10.36560821533203 23.49752426147461 Z M 5.590522289276123 8.018228530883789 L 4.975496292114258 14.80147647857666 C 4.859465599060059 16.11473274230957 4.068303108215332 17.27293968200684 2.887173414230347 17.85863494873047 C 2.387669086456299 18.10455894470215 2.071811676025391 18.61347007751465 2.07312798500061 19.17023086547852 L 2.073128461837769 19.69818496704102 C 2.074652194976807 20.26980590820312 2.538067817687988 20.73260307312012 3.109689235687256 20.73336219787598 L 21.07672882080078 20.73336219787598 C 21.64888954162598 20.73260116577148 22.11252593994141 20.26896476745605 22.11328887939453 19.69680213928223 L 22.11328887939453 19.16884803771973 C 22.11518287658691 18.61342239379883 21.80106353759766 18.10525512695312 21.30338859558105 17.85863494873047 C 20.1208381652832 17.2738151550293 19.32804870605469 16.11552429199219 19.21092224121094 14.80147647857666 L 18.59727668762207 8.018228530883789 C 18.29079627990723 4.65521240234375 15.47084999084473 2.080570697784424 12.09389877319336 2.080569982528687 C 8.716948509216309 2.080569982528687 5.897002220153809 4.655211925506592 5.590521812438965 8.018227577209473 Z" fill="#141124" stroke="none" stroke-width="1" stroke-miterlimit="4" stroke-linecap="butt" /></svg>
