<svg viewBox="360.46 605.64 20.08 16.73" ><path transform="translate(355.96, 598.89)" d="M 24.40117454528809 13.7754955291748 L 17.02530860900879 6.875322341918945 C 16.93644142150879 6.791684150695801 16.85280418395996 6.744637489318848 16.73257446289062 6.74986457824707 C 16.50256729125977 6.760319709777832 16.2098331451416 6.922369003295898 16.2098331451416 7.168057441711426 L 16.2098331451416 10.6285982131958 C 16.2098331451416 10.73314666748047 16.12619590759277 10.82723903656006 16.02164840698242 10.84292221069336 C 8.687600135803223 11.96681308746338 5.598205089569092 17.45558547973633 4.505677700042725 23.15345573425293 C 4.463858604431152 23.37823486328125 4.767047882080078 23.58732986450195 4.908187866210938 23.40959930419922 C 7.58461856842041 20.03792381286621 10.84129047393799 17.83718681335449 15.99028301239014 17.79536819458008 C 16.10528564453125 17.79536819458008 16.2098331451416 17.9312801361084 16.2098331451416 18.04628372192383 L 16.2098331451416 21.44409561157227 C 16.2098331451416 21.81001472473145 16.69598197937012 21.9720630645752 16.96780776977539 21.72114753723145 L 24.39594650268555 14.70074653625488 C 24.53185844421387 14.57528781890869 24.57367897033691 14.42892074584961 24.57890701293945 14.261643409729 C 24.57367897033691 14.09436702728271 24.5318603515625 13.90095233917236 24.40117454528809 13.7754955291748 Z" fill="#1c1b21" stroke="none" stroke-width="1" stroke-miterlimit="4" stroke-linecap="butt" /></svg>
