<svg xmlns="http://www.w3.org/2000/svg" width="18" height="22" viewBox="0 0 18 22">
  <g id="shield-svgrepo-com" transform="translate(0 0)">
    <g id="Group_230" data-name="Group 230" transform="translate(0 0)">
      <g id="Group_229" data-name="Group 229">
        <path id="Path_2128" data-name="Path 2128" d="M12,22.823c-.2,0-.4,0-.5-.2C3.1,17.466,3,11.217,3,10.919V3.975a.941.941,0,0,1,1-.992C6.8,2.983,11.6.9,11.6.9a1,1,0,0,1,1.3.5.981.981,0,0,1-.5,1.29A29.232,29.232,0,0,1,5,4.868v6.051c0,.2.2,5.456,7.5,10.119a.971.971,0,0,1,.3,1.389A1.042,1.042,0,0,1,12,22.823Z" transform="translate(-3 -0.823)" fill="#1c1b21"/>
      </g>
    </g>
    <g id="Group_232" data-name="Group 232" transform="translate(8.023 0)">
      <g id="Group_231" data-name="Group 231">
        <path id="Path_2129" data-name="Path 2129" d="M12,22.823a.891.891,0,0,1-.8-.5.971.971,0,0,1,.3-1.389c7.3-4.563,7.5-9.821,7.5-10.02V4.868a34.331,34.331,0,0,1-7.4-2.182.981.981,0,0,1-.5-1.29A1,1,0,0,1,12.4.9S17.2,2.983,20,2.983a.941.941,0,0,1,1,.992v6.944c0,.3-.1,6.547-8.5,11.706C12.4,22.823,12.2,22.823,12,22.823Z" transform="translate(-11.023 -0.823)" fill="#1c1b21"/>
      </g>
    </g>
    <g id="Group_234" data-name="Group 234" transform="translate(8 0.177)">
      <g id="Group_233" data-name="Group 233">
        <path id="Path_2130" data-name="Path 2130" d="M12,22.823a.941.941,0,0,1-1-.992V1.992A.941.941,0,0,1,12,1a.941.941,0,0,1,1,.992V21.831A.941.941,0,0,1,12,22.823Z" transform="translate(-11 -1)" fill="#1c1b21"/>
      </g>
    </g>
  </g>
</svg>
