<svg xmlns="http://www.w3.org/2000/svg" xmlns:xlink="http://www.w3.org/1999/xlink" width="3659.62" height="3660.62" viewBox="0 0 3659.62 3660.62">
  <defs>
    <clipPath id="clip-path">
      <path id="path16" d="M-172.8,1282.783C236.33,691.478-209.438,0-209.438,0h0L-1258.35,462.613l-47.761,67.379-176.63,1083.76s197.485,57.083,449.55,57.077h0c286.235,0,642.838-73.627,860.39-388.047" transform="translate(-0.477 0.157)" fill="none"/>
    </clipPath>
    <clipPath id="clip-path-2">
      <path id="path24" d="M0,120901.344H-120868.328V0H0Z" fill="none"/>
    </clipPath>
    <radialGradient id="radial-gradient" cx="0.154" cy="0.312" r="0.674" gradientTransform="matrix(-1, 0, 0, 1, 0.308, 0)" gradientUnits="objectBoundingBox">
      <stop offset="0" stop-color="#fff"/>
      <stop offset="1" stop-color="#fff"/>
    </radialGradient>
    <clipPath id="clip-path-4">
      <path id="path62" d="M0,3660.62H-3659.62V0H0Z" fill="none"/>
    </clipPath>
    <clipPath id="clip-path-5">
      <path id="path250" d="M0,463.065H-394.584V0H0Z" transform="translate(-0.417 0.452)" fill="none"/>
    </clipPath>
    <clipPath id="clip-path-6">
      <path id="path254" d="M-50.474,0l25.223,13.724a5.2,5.2,0,0,1,1.675,1.592Q-12.659,30.431-1.269,45.127A3.959,3.959,0,0,0,0,46.161L-25.225,32.438A3.977,3.977,0,0,1-26.492,31.4Q-37.9,16.737-48.8,1.592A5.183,5.183,0,0,0-50.474,0" transform="translate(-0.93 0.803)" fill="none"/>
    </clipPath>
    <clipPath id="clip-path-7">
      <path id="path258" d="M-43.379,26.145-68.6,12.419a3.361,3.361,0,0,0,2.154.352,7.281,7.281,0,0,0,2.016-.642c3.178-1.483,6.606-2.14,9.932-3.149C-44.939,6.04-35.393,3.12-25.225,0L0,13.726c-10.17,3.12-19.716,6.04-29.277,8.979-3.325,1.009-6.752,1.668-9.932,3.149a7.247,7.247,0,0,1-2.014.642,3.366,3.366,0,0,1-2.156-.351" transform="translate(-0.974 0.028)" fill="none"/>
    </clipPath>
    <clipPath id="clip-path-8">
      <path id="path262" d="M-25.221.559,0,14.283a12.861,12.861,0,0,0-1.4-.557L-26.625,0a12.573,12.573,0,0,1,1.4.559" transform="translate(-0.418 0.028)" fill="none"/>
    </clipPath>
    <clipPath id="clip-path-9">
      <path id="path266" d="M-25.223,8.2,0,21.921a69.511,69.511,0,0,0-42.945-7.5L-68.168.692A69.511,69.511,0,0,1-25.223,8.2" transform="translate(-0.105 0.173)" fill="none"/>
    </clipPath>
    <clipPath id="clip-path-10">
      <path id="path270" d="M-43.451,180.788l-25.223-13.726c-22.8-12.407-37.857-38.007-37.626-69.558C-105.946,50.329-69.4,6.208-25.223,0L0,13.724c-44.175,6.21-80.723,50.329-81.077,97.507-.231,31.549,14.821,57.149,37.626,69.558" transform="translate(-0.631 0.02)" fill="none"/>
    </clipPath>
    <clipPath id="clip-path-11">
      <path id="path274" d="M-34.3,0-9.072,13.726q1.107.6,2.206,1.225c1.918,1.07,2.536,2.227,2.134,4.835q-3.251,21.026-6.016,42.066a6.985,6.985,0,0,0,1.5,4.859c1.813,2.2,4.484,3.6,6.149,5.913a9.376,9.376,0,0,0,3.1,2.9L-25.223,61.8a9.389,9.389,0,0,1-3.1-2.9c-1.665-2.319-4.336-3.714-6.149-5.913a7,7,0,0,1-1.5-4.861Q-33.208,27.1-29.956,6.06c.4-2.609-.214-3.765-2.132-4.835Q-33.189.605-34.3,0" transform="translate(-0.928 0.138)" fill="none"/>
    </clipPath>
    <clipPath id="clip-path-12">
      <path id="path278" d="M-25.223,0,0,13.726c-2.591.6-4.266.98-5.928,1.214a21.655,21.655,0,0,1-3.412.234,12.632,12.632,0,0,0-1.961.113c-3.447.483-5.832,2.531-8.08,6.4-6.564,11.3-13.75,22.217-20.489,33.419-1.217,2.027-2.385,2.911-3.991,3.138a8.476,8.476,0,0,1-1.953.009,159.188,159.188,0,0,1-62.884-19.2l-25.223-13.724A159.185,159.185,0,0,0-71.034,44.529a8.461,8.461,0,0,0,1.951-.009c1.606-.227,2.774-1.109,3.989-3.14C-58.351,30.18-51.167,19.267-44.6,7.964c2.248-3.874,4.633-5.918,8.082-6.4a12.6,12.6,0,0,1,1.959-.111,22.089,22.089,0,0,0,3.412-.234C-29.489.981-27.814.6-25.223,0" transform="translate(-0.018 0.347)" fill="none"/>
    </clipPath>
    <clipPath id="clip-path-13">
      <path id="path282" d="M-25.223.5,0,14.229a4.582,4.582,0,0,0-2.945-.439L-28.168.064A4.594,4.594,0,0,1-25.223.5" transform="translate(-0.762 0.283)" fill="none"/>
    </clipPath>
    <clipPath id="clip-path-14">
      <path id="path286" d="M-3.609,13.727-28.832,0a5.758,5.758,0,0,0,3.609.589L0,14.312a5.77,5.77,0,0,1-3.609-.585" transform="translate(-0.23 0.208)" fill="none"/>
    </clipPath>
    <clipPath id="clip-path-15">
      <path id="path290" d="M-25.223,0,0,13.726a7.27,7.27,0,0,0-4.332,2.2,148.425,148.425,0,0,0-9.517,11.608,7.687,7.687,0,0,0-1.368,4.894q2.731,20.259,5.878,40.395c.378,2.387.022,3.81-1.961,5.474a212.007,212.007,0,0,1-64.9,37.987l-25.223-13.724a212.023,212.023,0,0,0,64.9-37.987c1.981-1.666,2.339-3.086,1.959-5.474q-3.151-20.126-5.876-40.395a7.713,7.713,0,0,1,1.367-4.9A149.129,149.129,0,0,1-29.554,2.2,7.269,7.269,0,0,1-25.223,0" transform="translate(-0.651 0.544)" fill="none"/>
    </clipPath>
    <clipPath id="clip-path-16">
      <path id="path294" d="M0,119.143H-161.541V0H0Z" transform="translate(-0.723 0.712)" fill="none"/>
    </clipPath>
    <clipPath id="clip-path-17">
      <path id="path298" d="M-53.483,0-28.26,13.724a4.6,4.6,0,0,1,1.592,1.618A182.459,182.459,0,0,1-.132,81.614c.278,1.461-.895,4.131-2.123,5.306q-14.936,14.273-30.212,28.136c-2.322,2.112-3.434,4.149-3.041,7.189a22.034,22.034,0,0,1,.12,6.759c-1.282,6.894,1.252,10.54,6.446,13.477,9.236,5.239,17.894,11.519,26.894,17.19,1.9,1.2,2.357,2.568,1.865,5.046A247.737,247.737,0,0,1-27.023,238.03c-1.075,1.924-2.1,2.789-3.7,3.014a7.96,7.96,0,0,1-1.42.052q-19.053-.794-38.18-1.061L-95.541,226.31q19.119.277,38.178,1.061a7.821,7.821,0,0,0,1.422-.05c1.594-.225,2.621-1.09,3.7-3.014a247.811,247.811,0,0,0,26.841-73.314c.491-2.478.037-3.848-1.866-5.047-9-5.671-17.658-11.949-26.894-17.188-5.194-2.939-7.728-6.584-6.444-13.478a22.094,22.094,0,0,0-.122-6.759c-.393-3.038.719-5.077,3.041-7.187Q-42.422,87.462-27.478,73.2c1.23-1.177,2.4-3.846,2.123-5.306A182.419,182.419,0,0,0-51.892,1.618,4.616,4.616,0,0,0-53.483,0" transform="translate(-0.417 0.304)" fill="none"/>
    </clipPath>
  </defs>
  <g id="Man_with_Cog" data-name="Man with Cog" transform="translate(0 -0.38)">
    <g id="g10" transform="translate(0 3661) rotate(-180)">
      <g id="g12" transform="translate(-104.283 1638.215)">
        <g id="g14_Clipped" data-name="g14 Clipped">
          <path id="path16-2" data-name="path16" d="M-172.8,1282.783C236.33,691.478-209.438,0-209.438,0h0L-1258.35,462.613l-47.761,67.379-176.63,1083.76s197.485,57.083,449.55,57.077h0c286.235,0,642.838-73.627,860.39-388.047" transform="translate(-0.477 0.157)" fill="none"/>
          <g id="g14_Clipped-2" data-name="g14 Clipped" clip-path="url(#clip-path)">
            <g id="g14" transform="translate(60539.371 -62089.809)">
              <g id="g20">
                <g id="g46_Clipped" data-name="g46 Clipped">
                  <g id="g42_Clipped" data-name="g42 Clipped">
                    <path id="path24-2" data-name="path24" d="M0,120901.344H-120868.328V0H0Z" fill="none"/>
                    <path id="path36-2" data-name="path36" d="M0,120901.344H-120868.328V0H0Z" fill="none"/>
                  </g>
                  <g id="g46" transform="translate(-60539.371 62089.809)">
                    <g id="g48">
                      <path id="path56" d="M-172.8,1282.783C236.33,691.478-209.438,0-209.438,0h0L-1258.35,462.613l-47.761,67.379-176.63,1083.76s197.485,57.083,449.55,57.077h0c286.235,0,642.838-73.627,860.39-388.047" transform="translate(-0.477 0.157)" fill="url(#radial-gradient)"/>
                    </g>
                  </g>
                </g>
              </g>
            </g>
          </g>
        </g>
      </g>
      <g id="g58">
        <g id="g60_Clipped" data-name="g60 Clipped">
          <path id="path62-2" data-name="path62" d="M0,3660.62H-3659.62V0H0Z" fill="none"/>
          <g id="g60_Clipped-2" data-name="g60 Clipped" clip-path="url(#clip-path-4)">
            <g id="g60" transform="translate(-1362.117 486.192)">
              <g id="g66" transform="translate(-532.385 0.131)">
                <path id="path68" d="M0,1.022s-272.533-2.3-389.433,0S-571.3,34.161-507.249,39.794s462.014,38.769,484.632,0Z" transform="translate(0 0.822)" fill="#c9ddf2"/>
              </g>
              <g id="g70" transform="translate(-94.131 36.722)">
                <path id="path72" d="M-3.581,39.793A25.992,25.992,0,0,0-25.852.7C-108.181.156-282.891-.7-370.4,1.022c-116.9,2.3-181.868,33.139-117.818,38.771s462.016,38.769,484.633,0" transform="translate(-0.107 0.794)" fill="#c9ddf2"/>
              </g>
              <g id="g74" transform="translate(-84.579 45.121)">
                <path id="path76" d="M-291.506,220.32s-9.141-93.874-15.487-121.53c-6.883-29.984-23.635-82.818,7.3-83.425S-2.5-12.4-2.125,6.941,8,46.266-17.684,51.931-133.249,64.3-166.951,75.969c-47.4,16.412-66.254,41.293-63.4,55.428s8.043,87.563,8.043,87.563Z" transform="translate(-0.743 0.06)" fill="#394480"/>
              </g>
              <g id="g78" transform="translate(-84.758 40.208)">
                <path id="path80" d="M-2.593,11.375s5.684,8.368.219,11.165S-70.914,10.167-116.8,13.618-316.692,22.9-317.409,35.426L-318.9,9.61S-12.357-6.942-2.749,3.4Z" transform="translate(-0.096 0.539)" fill="#2d3166"/>
              </g>
              <g id="g82" transform="translate(-216.139 100.311)">
                <path id="path84" d="M-7.86,12.775c-14.454,14.67-39.249,11.1-45.61-9.554-1.743-5.656-10.647-3.243-8.893,2.452C-53.976,32.9-20.78,39.027-1.34,19.3c4.17-4.234-2.346-10.759-6.52-6.523" transform="translate(-0.362 0.139)" fill="#2d3166"/>
              </g>
              <g id="g86" transform="translate(-162.25 84.338)">
                <path id="path88" d="M-9.157,22.832c-2.735,8.091-23.663,6.254-29.55,4.356C-48.88,23.91-56.534,15.318-57.034,4.445c-.271-5.911-9.495-5.942-9.222,0,.712,15.482,11.614,28.093,26.514,32.078C-28.084,39.639-4.971,39.207-.266,25.286c1.905-5.638-7-8.055-8.892-2.454" transform="translate(-0.064 0.15)" fill="#2d3166"/>
              </g>
              <g id="g90" transform="translate(-366.026 230.986)">
                <path id="path92" d="M-393.138,45.294S-287.679-9.11-243.526,1.331c21.8,5.147,130.1,224.941,180.376,458q2.849,13.169,5.515,26.418c11.158,55.068,20.251,110.875,27.647,163.987q3.015,21.419,5.625,42.153C-5.275,842.556,0,961.79,0,961.79l-86.093,4.3h-.018L-144.282,969l-50.129,2.511s1.826-108.329-8-248.223c-.885-12.4-1.844-25.053-2.914-37.893-5.773-69.681-7.578-55.565-7.578-161.281,0,0-101.68-303.71-143.53-398.258-21.337-48.206-36.7-80.564-36.7-80.564" transform="translate(-0.549 0.827)" fill="#394480"/>
              </g>
              <g id="g94" transform="translate(-511.928 7.498)">
                <path id="path96" d="M-173.829,324.574s-51.588-78.95-70.026-100.514c-19.987-23.381-59.308-62.435-32.171-77.315S-25.538-15.607-16.24,1.356s27.189,30.158,7.055,47.08-96.68,64.527-121.139,90.489c-34.4,36.511-39.581,67.3-30.5,78.5s47.691,73.867,47.691,73.867Z" transform="translate(-0.382 0.118)" fill="#394480"/>
              </g>
              <g id="g98" transform="translate(-522.173 1.593)">
                <path id="path100" d="M-6.2,7.1s8.914,4.782,5.365,9.792S-67.3,37.7-106.366,62.022s-172.84,100.876-167.67,112.31l-13.287-22.184S-23.339-4.606-10.034.1Z" transform="translate(-0.177 0.28)" fill="#2d3166"/>
              </g>
              <g id="g102" transform="translate(-612.397 123.044)">
                <path id="path104" d="M-9.111,3.231c-5.981,19.841-29.721,27.743-44.911,12.408-4.181-4.225-10.7,2.3-6.52,6.521C-40.42,42.476-8.179,32.093-.219,5.683,1.5-.014-7.4-2.448-9.111,3.231" transform="translate(-0.111 0.459)" fill="#2d3166"/>
              </g>
              <g id="g106" transform="translate(-568.229 91.325)">
                <path id="path108" d="M-9.31,4.4C-8.119,15.046-28.879,23-36.82,23.383c-9.583.463-18.571-3.953-23.438-12.3-2.988-5.127-10.959-.489-7.962,4.656,7.23,12.407,21.448,18.649,35.586,16.417C-20.557,30.247,1.575,19.256-.089,4.4c-.653-5.833-9.882-5.9-9.222,0" transform="translate(-0.001 0.135)" fill="#2d3166"/>
              </g>
              <g id="g110" transform="translate(-424.045 230.986)">
                <path id="path112" d="M-335.5,45.294S-230.044-9.11-185.89,1.331c21.8,5.147,130.1,224.941,180.376,458Q-2.665,472.5,0,485.749S-89.745,273-164.607,216.642c-44.817-33.742-95.758-60.418-134.2-90.784-21.337-48.206-36.7-80.564-36.7-80.564" transform="translate(-0.166 0.827)" fill="#2d3166"/>
              </g>
              <g id="g114" transform="translate(-386.033 1577.692)">
                <path id="path116" d="M-61.17,194.746S-1.78,174.394-.548,162.668-.548,0-.548,0L-69.01,181.975l-5.111,15.24Z" transform="translate(-0.538 0.806)" fill="#f69d79"/>
              </g>
              <g id="g118" transform="translate(-482.127 1741.037)">
                <path id="path120" d="M-57.17,38.788S1.915,43.905-.048,36.38-5.479,16.247-5.479,16.247L-34.083,0Z" transform="translate(-0.004 0.043)" fill="#f69d79"/>
              </g>
              <g id="g122" transform="translate(-258.411 171.283)">
                <path id="path124" d="M-235.915,920l90.586-897.465s119.773-45.564,142.757-7.1-115.61,1059.191-115.61,1059.191Z" transform="translate(-0.159 0.577)" fill="#2d3166"/>
              </g>
              <g id="g126" transform="translate(-453.794 1091.19)">
                <path id="path128" d="M-.158,97.954S2.314,8.251-12.3,4.98-72.6-5.275-76.469,6.888s25.391,92.644,25.391,92.644Z" transform="translate(-0.686 0.667)" fill="#e57e80"/>
              </g>
              <g id="g130" transform="translate(-442.452 1729.557)">
                <path id="path132" d="M-51.051,116s11.584-73.129-4.686-99.387,37.326-14,51.507-12.15S-15.5,76.182-22.225,113.894-51.051,116-51.051,116" transform="translate(-0.59 0.224)" fill="#d37477"/>
              </g>
              <g id="g134" transform="translate(-231.482 1179.937)">
                <path id="path136" d="M-219.8,516.8s28.318-.841,42.643-48.853S0,3.3,0,3.3-190.33-8.3-215.977,11.986s-46.507,517.03-46.507,517.03l15.249,43.913Z" transform="translate(-0.522 0.594)" fill="#f69d79"/>
              </g>
              <g id="g138" transform="translate(-196.445 1428.099)">
                <path id="path140" d="M-196.145,121.851H-35.972L0,60.155-194.933,0Z" transform="translate(-0.199 0.753)" fill="#f69d79"/>
              </g>
              <g id="g142" transform="translate(-83.317 1545.152)">
                <path id="path144" d="M-68.961,0-87.63,24.71-13.724,66.7,0,53.039Z" transform="translate(-0.123)" fill="#394480"/>
              </g>
              <g id="g146" transform="translate(-0.383 1614.321)">
                <path id="path148" d="M-47.344,2.219,0,0-47.761,67.381-76.65,11.265Z" transform="translate(-0.609 0.47)" fill="#394480"/>
              </g>
              <g id="g150" transform="translate(-289.168 1114.411)">
                <path id="path152" d="M-170.738,653.386c-17.11,8.885-37.753-17.373-55.548-9.953-15.9,6.632-22.219,35.4-25.71,13.951-5.048-31,.752-228.634-32.772-360.675C-317.475,167.886-302.434,43.21-298.622,29.3c2.492-9.1,15.638-46.787,69.555-19.611C-96.618,76.448,6.613,3.07-.331,41.5-44.958,288.459-84.036,609.04-127.049,626.226c-17,6.791-31.828,21-43.689,27.16" transform="translate(-0.785 0.531)" fill="#f9b17c"/>
              </g>
              <g id="g154" transform="translate(-382.744 1832.055)">
                <path id="path156" d="M-68.8,174.24q4.966-5.338,10.317-10.313C-38.013,144.9,23.075,81.753-9.267,32.7-37.052-9.433-115.918-8.612-132.9,22.366s-62.717,114.882-27.87,133.186C-127.395,173.085-98.81,206.5-68.8,174.24" transform="translate(-0.284 0.019)" fill="#e57e80"/>
              </g>
              <g id="g158" transform="translate(-360.639 1906.701)">
                <path id="path160" d="M-64.348,72.126S-26.274,38.546-4.435,32.25c17.7-5.1-22.7-43.975-31.332-28.726s-28.582,68.6-28.582,68.6" transform="translate(-0.203 0.668)" fill="#e9595a"/>
              </g>
              <g id="g162" transform="translate(-441.091 1931.856)">
                <path id="path164" d="M-23.129,14.787C-15.923,4.085-6.55-2.214-2.2.72s2.04,13.986-5.166,24.688-16.579,17-20.931,14.067-2.042-13.986,5.166-24.688" transform="translate(-0.847 0.061)" fill="#171339"/>
              </g>
              <g id="g166" transform="translate(-411.092 1860.312)">
                <path id="path168" d="M-20.746,7.237A10.653,10.653,0,0,1-7.235.568,10.655,10.655,0,0,1-.568,14.081a10.652,10.652,0,0,1-13.512,6.671A10.658,10.658,0,0,1-20.746,7.237" transform="translate(-0.386 0.143)" fill="#171339"/>
              </g>
              <g id="g170" transform="translate(-424.045 1845.501)">
                <path id="path172" d="M-95.705,133.024s29.255,17.7,59.325,34.808c58.037,33.026,35.837,47.176,7.61,56.035-109.616,34.4-65.985,11.067-101.379-33.039s-33.844-64.864-50.668-64.459c-53.668,1.291,57.379-59.173,40.155-89.751C-149.37,21.16-90.4-16.648-91.684,8.291S-123.909,41.5-115.546,82.354s19.841,50.67,19.841,50.67" transform="translate(-0.2 0.649)" fill="#171338"/>
              </g>
              <g id="g174" transform="translate(-446.141 1891.596)">
                <path id="path176" d="M-47.023,10.517C-47.023,4.71-36.5,0-23.512,0S0,4.71,0,10.517-10.526,21.035-23.512,21.035s-23.512-4.708-23.512-10.517" transform="translate(-0.93 0.552)" fill="#e9595a"/>
              </g>
              <g id="g178" transform="translate(-36.208 1530.897)">
                <path id="path180" d="M-76.385,60.885v2.354c-4.556-2.1-11.562,3.856-11.562,3.856-12.613-10.864-19.271-2.443-19.271-2.443l5.306,3.291c-2.8.889-3.554,4.057-3.554,4.057s9.109,12.969,14.716,12.969c.856,0,2.125-.063,3.654-.17l8.609,10.333s10.775-1.254,20.948-2.566c6.127,4.754,13.2,9.979,17.245,10.071C-33.987,102.78,0,85.671,0,82.285S-16.118,50.973-16.118,50.973l2.453-11.217L-125.317,0l-21.459,27.176s31.946-10.514,55.806,6.337c8.7,6.145,14.585,16.714,14.585,27.372" transform="translate(-0.077 0.084)" fill="#e57e80"/>
              </g>
              <g id="g182" transform="translate(-131.178 1488.978)">
                <path id="path184" d="M-101.4,61.7l37.872,22.254L0,11.925-65.428,0Z" transform="translate(-0.039 0.028)" fill="#f9b17c"/>
              </g>
              <g id="g186" transform="translate(-150.756 1494.305)">
                <path id="path188" d="M-.668,11.739Q-30.076,7.026-59.043.03c-1.153-.28-1.645,1.5-.491,1.778q28.951,7,58.375,11.709C0,13.7.5,11.927-.668,11.739" transform="translate(-0.176 0.175)" fill="#f69d79"/>
              </g>
              <g id="g190" transform="translate(-167.199 1499.88)">
                <path id="path192" d="M-.65,15.2Q-31,6.513-61.9.023c-1.158-.244-1.653,1.535-.491,1.778Q-31.5,8.29-1.14,16.981A.923.923,0,0,0-.65,15.2" transform="translate(-0.194 0.401)" fill="#f69d79"/>
              </g>
              <g id="g194" transform="translate(-177.676 1511.762)">
                <path id="path196" d="M-.664,11.343Q-24.406,6.362-47.829.036a.923.923,0,0,0-.491,1.778Q-24.9,8.138-1.154,13.122C0,13.365.5,11.587-.664,11.343" transform="translate(-0.181 0.571)" fill="#f69d79"/>
              </g>
              <g id="g198" transform="translate(-178.008 1526.198)">
                <path id="path200" d="M-.646,16.252A509.274,509.274,0,0,0-73.616.011c-1.162-.17-1.664,1.607-.491,1.78A509.268,509.268,0,0,1-1.137,18.03a.923.923,0,0,0,.491-1.778" transform="translate(-0.198 0.352)" fill="#f69d79"/>
              </g>
              <g id="g202" transform="translate(-198.353 1532.686)">
                <path id="path204" d="M-.643,17.061Q-31.2,7.516-62.345.029c-1.153-.277-1.645,1.5-.489,1.778q31.129,7.485,61.7,17.032C0,19.2.488,17.413-.643,17.061" transform="translate(-0.201 0.388)" fill="#f69d79"/>
              </g>
              <g id="g206" transform="translate(-175.867 1520.186)">
                <path id="path208" d="M-.657,14.014Q-31.542,6.324-62.745.021C-63.9-.213-64.4,1.564-63.235,1.8q31.2,6.3,62.088,13.993a.923.923,0,0,0,.491-1.778" transform="translate(-0.187 0.744)" fill="#f69d79"/>
              </g>
              <g id="g210" transform="translate(-414.275 1693.971)">
                <path id="path212" d="M-3.256,14.442A12.87,12.87,0,0,0-1.387,3.434C-2.23.36-6.856-1.392-9.095,1.4a16.851,16.851,0,0,0-4.028,12.189c.3,3.21,3.775,6.1,6.938,3.981A14.25,14.25,0,0,0-.166,9.424L-9.224,8.2q-.05,1.779-.1,3.559A4.671,4.671,0,0,0-4.714,16.37,4.681,4.681,0,0,0-.1,11.758Q-.051,9.979,0,8.2C.147,2.956-7.671,1.993-9.058,6.972A4.2,4.2,0,0,1-10.838,9.6q3.469,1.99,6.937,3.983A7.682,7.682,0,0,1-2.573,7.921q-3.854-1.016-7.707-2.035a4.011,4.011,0,0,1-.937,3.9c-1.488,2-.328,5.151,1.654,6.309,2.35,1.376,4.816.349,6.308-1.655" transform="translate(-0.433 0.317)" fill="#f69d79"/>
              </g>
              <g id="g214" transform="translate(-405.415 1634.226)">
                <path id="path216" d="M-4.068,16.23A11.642,11.642,0,0,0-.774,3.292C-2.19-.114-5.56-1.025-8.481,1.257a13.767,13.767,0,0,0-5.072,12.178c.764,5.756,9.342,8.446,11.282,1.911,1.691-5.7-7.206-8.139-8.893-2.452l-.094.319q.592-1.016,1.186-2.035l-.188.177,2.034-1.184-.256.052H-6.03a2.8,2.8,0,0,1,1.254,1.04q.415,1.79.343.439c-.105.288-.085.144.065-.437a9.574,9.574,0,0,1,.317-1.076A6.694,6.694,0,0,1-1.96,7.779Q-5.813,6.763-9.665,5.744a6.608,6.608,0,0,1,.36.978c.133.57.159.675.074.312.083.736.124.081-.05.843a2.926,2.926,0,0,1-1.308,1.83c-1.925,1.583-1.638,4.883,0,6.523,1.905,1.906,4.591,1.585,6.522,0" transform="translate(-0.465 0.374)" fill="#f69d79"/>
              </g>
              <g id="g218" transform="translate(-396.263 1577.898)">
                <path id="path220" d="M-6.392,15.1A9.071,9.071,0,0,0-.011,6.817,6.634,6.634,0,0,0-2.656.888C-4.565-.344-7.718-.16-9.743.628A4.838,4.838,0,0,0-13.13,5.074q-.089,1.749-.175,3.5a4.643,4.643,0,0,0,4.611,4.612A4.714,4.714,0,0,0-4.083,8.57q.089-1.749.175-3.5L-7.292,9.522a4.966,4.966,0,0,1,.758-.26c.465-.1.524-.113.181-.042s-.284.074.188.054c-.561-.092-.574-.077-.042.044L-8.963,7.2c-.09-.2-.317-.876-.181-.29-.312-1.334.017-.535-.083-.232-.138.421-.026-.81.044-.376a2.3,2.3,0,0,1-.077.279q-.163.5.2-.43c-.009,0-.28.509-.29.5-.031-.031.686-.791.179-.264-.561.585.616-.376.148-.107s1.107-.358.181-.074a4.68,4.68,0,0,0-3.22,5.673A4.681,4.681,0,0,0-6.392,15.1" transform="translate(-0.985 0.507)" fill="#f69d79"/>
              </g>
              <g id="g222" transform="translate(-395.546 1518.916)">
                <path id="path224" d="M-.905,11.526q.008-3.478.02-6.959a4.61,4.61,0,0,0-4-4.531C-6.949-.24-9.57,1.073-9.943,3.341a12.54,12.54,0,0,0,1.37,8.6A4.66,4.66,0,0,0-2.265,13.6,4.7,4.7,0,0,0-.61,7.289c-.157-.277-.3-.526-.109-.076a9.583,9.583,0,0,1-.3-1.05c-.166-.533-.085.476.011-.074.028-.159.105-1.171-.041-.3q-4.526-.614-9.056-1.225-.011,3.478-.02,6.959a4.66,4.66,0,0,0,4.611,4.612A4.693,4.693,0,0,0-.905,11.526" transform="translate(-0.939 0.388)" fill="#f69d79"/>
              </g>
              <g id="g226" transform="translate(-390.103 1456.805)">
                <path id="path228" d="M-2.338,15.8A15.2,15.2,0,0,0-.615,3.409,4.67,4.67,0,0,0-6.286.188c-5.887,1.865-8.17,9.757-3.532,14.181,4.294,4.1,10.824-2.415,6.52-6.523-.669-.638.055.24.188.467q.053.916.017.1c-.107.522-.124.614-.046.273Q-3,8.2-3.293,8.881c.236-.386.251-.443.042-.175s-.179.22.129-.1a1.547,1.547,0,0,1-.714.478L-9.507,5.861a5.787,5.787,0,0,1-.793,5.285,4.669,4.669,0,0,0,1.653,6.309A4.688,4.688,0,0,0-2.338,15.8" transform="translate(-0.351 0.803)" fill="#f69d79"/>
              </g>
              <g id="g230" transform="translate(-386.745 1397.999)">
                <path id="path232" d="M0,13.314-.094,4.631C-.118,2.332-2.2-.244-4.705.018A9.142,9.142,0,0,0-12.118,4.7a9.072,9.072,0,0,0,.007,8.842c2.885,5.19,10.852.542,7.962-4.655q.232.761.007,0,.089.869.072.052l-.044.439q.241-.758-.041-.026c.251-.391.277-.461.079-.207s-.157.2.155-.144q-.642.44.024.028a1.223,1.223,0,0,1-.81.208q-2.3-2.305-4.611-4.612l.094,8.684c.063,5.931,9.284,5.948,9.222,0" transform="translate(0 0.444)" fill="#f69d79"/>
              </g>
              <g id="g234" transform="translate(-383.134 1321.796)">
                <path id="path236" d="M-.693,9.536c-.323-.421-.168-.256-.042.114.234.694-.109.264.122.074-.015.135-.031.271-.048.406l.116-.622c.05-.269.1-.542.136-.814a7.846,7.846,0,0,0-.815-5.346C-3.255-.157-7.669-1.2-10.747,1.614a4.647,4.647,0,0,0,0,6.523,4.71,4.71,0,0,0,6.52,0C-5.994,9.75-9.4,9.346-9.428,6.946c-.007-.666.1-.463-.009.111-.063.345-.131.688-.184,1.035-.315,2.068-.387,4.345.966,6.1,1.466,1.906,4.032,3.125,6.308,1.657C-.466,14.635.882,11.58-.693,9.536" transform="translate(-0.151 0.533)" fill="#f69d79"/>
              </g>
              <g id="g238" transform="translate(-376.445 1255.825)">
                <path id="path240" d="M-.205,12.5A15.826,15.826,0,0,0-1.883,2.273,4.646,4.646,0,0,0-9.124,1.34a7.38,7.38,0,0,0-1.758,7.269c.767,2.282,3.211,4.018,5.673,3.221C-2.94,11.1-1.166,8.6-1.988,6.155c-.157-.515-.164-.472-.022.124A2.116,2.116,0,0,1-2.6,7.863Q-6.226,7.4-9.847,6.929c.037.065.544,1.278.3.572a13.172,13.172,0,0,1,.369,1.332c.2.876.111-.371.041.6-.011.175-.087,1.476.037.609-.338,2.378.579,5.071,3.22,5.673,2.174.5,5.31-.666,5.671-3.221" transform="translate(-0.639 0.417)" fill="#f69d79"/>
              </g>
              <g id="g242" transform="translate(-374.164 1196.346)">
                <path id="path244" d="M0,9.213v-4.6H-9.222V8.247a4.665,4.665,0,0,0,4.611,4.612A4.693,4.693,0,0,0,0,8.247V4.616A4.662,4.662,0,0,0-4.611,0,4.691,4.691,0,0,0-9.222,4.616v4.6a4.662,4.662,0,0,0,4.611,4.612A4.693,4.693,0,0,0,0,9.213" transform="translate(0 0.011)" fill="#f69d79"/>
              </g>
              <g id="g246" transform="translate(-264.584 872.608)">
                <g id="g696" transform="translate(0)">
                  <g id="g694_Clipped" data-name="g694 Clipped" transform="translate(0)">
                    <path id="path250-2" data-name="path250" d="M0,463.065H-394.584V0H0Z" transform="translate(-0.417 0.452)" fill="none"/>
                    <g id="g694_Clipped-2" data-name="g694 Clipped" clip-path="url(#clip-path-5)">
                      <g id="g694" transform="translate(0)">
                        <g id="g304" transform="translate(-194.417 51.457)">
                          <path id="path302" d="M-50.474,0l25.223,13.724a5.211,5.211,0,0,1,1.675,1.594Q-12.659,30.432-1.269,45.127A3.959,3.959,0,0,0,0,46.161L-25.225,32.438A3.952,3.952,0,0,1-26.492,31.4Q-37.9,16.74-48.8,1.592A5.2,5.2,0,0,0-50.474,0" transform="translate(-0.167)" fill="#394480"/>
                        </g>
                        <g id="g312" transform="translate(-193.655 50.655)">
                          <g id="g310_Clipped" data-name="g310 Clipped">
                            <path id="path254-2" data-name="path254" d="M-50.474,0l25.223,13.724a5.2,5.2,0,0,1,1.675,1.592Q-12.659,30.431-1.269,45.127A3.959,3.959,0,0,0,0,46.161L-25.225,32.438A3.977,3.977,0,0,1-26.492,31.4Q-37.9,16.737-48.8,1.592A5.183,5.183,0,0,0-50.474,0" transform="translate(-0.93 0.803)" fill="none"/>
                            <g id="g310_Clipped-2" data-name="g310 Clipped" clip-path="url(#clip-path-6)">
                              <g id="g310" transform="translate(-0.156)">
                                <g id="g308" transform="translate(-0.607 0.802)">
                                  <path id="path306" d="M-50.474,0l25.223,13.724a5.211,5.211,0,0,1,1.675,1.594Q-12.659,30.432-1.269,45.127A3.959,3.959,0,0,0,0,46.161L-25.225,32.438A3.952,3.952,0,0,1-26.492,31.4Q-37.9,16.74-48.8,1.592A5.2,5.2,0,0,0-50.474,0" transform="translate(-0.167)" fill="#394480"/>
                                </g>
                              </g>
                            </g>
                          </g>
                        </g>
                        <g id="g316" transform="translate(-297.026 367.378)">
                          <path id="path314" d="M-43.379,26.145-68.6,12.421a3.372,3.372,0,0,0,2.154.351,7.239,7.239,0,0,0,2.016-.642c3.178-1.481,6.606-2.14,9.932-3.149C-44.939,6.042-35.393,3.121-25.225,0L0,13.727c-10.17,3.118-19.716,6.038-29.277,8.979-3.325,1.009-6.754,1.666-9.932,3.149a7.237,7.237,0,0,1-2.014.64,3.354,3.354,0,0,1-2.156-.351" transform="translate(-0.885 0.528)" fill="#394480"/>
                        </g>
                        <g id="g332" transform="translate(-296.938 367.878)">
                          <g id="g330_Clipped" data-name="g330 Clipped">
                            <path id="path258-2" data-name="path258" d="M-43.379,26.145-68.6,12.419a3.361,3.361,0,0,0,2.154.352,7.281,7.281,0,0,0,2.016-.642c3.178-1.483,6.606-2.14,9.932-3.149C-44.939,6.04-35.393,3.12-25.225,0L0,13.726c-10.17,3.12-19.716,6.04-29.277,8.979-3.325,1.009-6.752,1.668-9.932,3.149a7.247,7.247,0,0,1-2.014.642,3.366,3.366,0,0,1-2.156-.351" transform="translate(-0.974 0.028)" fill="none"/>
                            <g id="g330_Clipped-2" data-name="g330 Clipped" clip-path="url(#clip-path-7)">
                              <g id="g330">
                                <g id="g320" transform="translate(-0.378 0.028)">
                                  <path id="path318" d="M-25.225,0,0,13.726c-10.17,3.12-19.716,6.04-29.277,8.981-3.325,1.007-6.752,1.666-9.932,3.149a7.3,7.3,0,0,1-2.014.64,3.627,3.627,0,0,1-1.426-.061L-67.873,12.709a3.625,3.625,0,0,0,1.426.063,7.22,7.22,0,0,0,2.016-.642c3.178-1.483,6.606-2.14,9.932-3.149C-44.937,6.04-35.393,3.12-25.225,0" transform="translate(-0.596)" fill="#394480"/>
                                </g>
                                <g id="g324" transform="translate(-43.027 11.892)">
                                  <path id="path322" d="M-25.225.225,0,13.951a3.209,3.209,0,0,1-.6-.225L-25.828,0a3,3,0,0,0,.6.225" transform="translate(-0.596 0.62)" fill="#394480"/>
                                </g>
                                <g id="g328" transform="translate(-43.63 12.422)">
                                  <path id="path326" d="M-25.223.063,0,13.788l-.125-.065L-25.347,0c.041.022.083.042.124.063" transform="translate(-0.598 0.027)" fill="#394480"/>
                                </g>
                              </g>
                            </g>
                          </g>
                        </g>
                        <g id="g336" transform="translate(-295.913 367.62)">
                          <path id="path334" d="M-25.223.559,0,14.283a12.54,12.54,0,0,0-1.4-.555L-26.627,0a13.192,13.192,0,0,1,1.4.559" transform="translate(-0.598 0.286)" fill="#394480"/>
                        </g>
                        <g id="g348" transform="translate(-296.093 367.878)">
                          <g id="g346_Clipped" data-name="g346 Clipped" transform="translate(0)">
                            <path id="path262-2" data-name="path262" d="M-25.221.559,0,14.283a12.861,12.861,0,0,0-1.4-.557L-26.625,0a12.573,12.573,0,0,1,1.4.559" transform="translate(-0.418 0.028)" fill="none"/>
                            <g id="g346_Clipped-2" data-name="g346 Clipped" clip-path="url(#clip-path-8)">
                              <g id="g346" transform="translate(1 -0.756)">
                                <g id="g340" transform="translate(-0.819 1.253)">
                                  <path id="path338" d="M-25.223.072,0,13.8c-.046-.024-.092-.05-.138-.072L-25.361,0q.069.033.138.072" transform="translate(-0.598 0.017)" fill="#394480"/>
                                </g>
                                <g id="g344" transform="translate(-0.958 0.425)">
                                  <path id="path342" d="M-25.223.487,0,14.211c-.5-.245-1.014-.369-1.263-.483L-26.488,0c.251.118.764.24,1.265.487" transform="translate(-0.598 0.358)" fill="#394480"/>
                                </g>
                              </g>
                            </g>
                          </g>
                        </g>
                        <g id="g352" transform="translate(-141.521 156.955)">
                          <path id="path350" d="M-25.223,8.2,0,21.919a69.524,69.524,0,0,0-42.945-7.5L-68.168.692A69.511,69.511,0,0,1-25.223,8.2" transform="translate(-0.598 0.029)" fill="#394480"/>
                        </g>
                        <g id="g368" transform="translate(-142.014 156.811)">
                          <g id="g366_Clipped" data-name="g366 Clipped" transform="translate(0)">
                            <path id="path266-2" data-name="path266" d="M-25.223,8.2,0,21.921a69.511,69.511,0,0,0-42.945-7.5L-68.168.692A69.511,69.511,0,0,1-25.223,8.2" transform="translate(-0.105 0.173)" fill="none"/>
                            <g id="g366_Clipped-2" data-name="g366 Clipped" clip-path="url(#clip-path-9)">
                              <g id="g366" transform="translate(0.844 -0.845)">
                                <g id="g356" transform="translate(-0.352 7.368)">
                                  <path id="path354" d="M-25.223,1.278,0,15q-1.22-.664-2.471-1.278L-27.694,0q1.25.612,2.471,1.278" transform="translate(-0.598 0.566)" fill="#394480"/>
                                </g>
                                <g id="g360" transform="translate(-2.823 2.4)">
                                  <path id="path358" d="M-25.223,4.728,0,18.452a66.963,66.963,0,0,0-12.8-4.728L-38.023,0a66.744,66.744,0,0,1,12.8,4.728" transform="translate(-0.598 0.806)" fill="#394480"/>
                                </g>
                                <g id="g364" transform="translate(-15.623 0.515)">
                                  <path id="path362" d="M-25.223,2.187,0,15.911a71.989,71.989,0,0,0-27.674-1.494L-52.9.691a71.981,71.981,0,0,1,27.672,1.5" transform="translate(-0.598 0.502)" fill="#394480"/>
                                </g>
                              </g>
                            </g>
                          </g>
                        </g>
                        <g id="g372" transform="translate(-184.251 157.67)">
                          <path id="path370" d="M-43.452,180.788l-25.223-13.724c-22.8-12.408-37.855-38.009-37.624-69.56C-105.948,50.329-69.4,6.208-25.223,0L0,13.724c-44.177,6.212-80.725,50.331-81.077,97.507-.231,31.549,14.821,57.149,37.624,69.558" transform="translate(-0.812 0.006)" fill="#394480"/>
                        </g>
                        <g id="g408" transform="translate(-184.433 157.656)">
                          <g id="g406_Clipped" data-name="g406 Clipped">
                            <path id="path270-2" data-name="path270" d="M-43.451,180.788l-25.223-13.726c-22.8-12.407-37.857-38.007-37.626-69.558C-105.946,50.329-69.4,6.208-25.223,0L0,13.724c-44.175,6.21-80.723,50.329-81.077,97.507-.231,31.549,14.821,57.149,37.626,69.558" transform="translate(-0.631 0.02)" fill="none"/>
                            <g id="g406_Clipped-2" data-name="g406 Clipped" clip-path="url(#clip-path-10)">
                              <g id="g406">
                                <g id="g376" transform="translate(-0.032 0.02)">
                                  <path id="path374" d="M-25.223,0,0,13.724a81.962,81.962,0,0,0-23.43,7.062L-48.655,7.06A81.988,81.988,0,0,1-25.223,0" transform="translate(-0.598)" fill="#394480"/>
                                </g>
                                <g id="g380" transform="translate(-23.465 7.08)">
                                  <path id="path378" d="M-25.225,0,0,13.724a91.791,91.791,0,0,0-13.211,7.625L-38.434,7.625A91.971,91.971,0,0,1-25.225,0" transform="translate(-0.596)" fill="#394480"/>
                                </g>
                                <g id="g384" transform="translate(-36.674 14.705)">
                                  <path id="path382" d="M-25.223,0,0,13.724a98.985,98.985,0,0,0-9.891,7.833L-35.114,7.831A99.233,99.233,0,0,1-25.223,0" transform="translate(-0.598)" fill="#394480"/>
                                </g>
                                <g id="g388" transform="translate(-46.566 22.536)">
                                  <path id="path386" d="M-25.223,0,0,13.724a103.533,103.533,0,0,0-8.359,8.448L-33.582,8.446A103.808,103.808,0,0,1-25.223,0" transform="translate(-0.598)" fill="#394480"/>
                                </g>
                                <g id="g392" transform="translate(-54.925 30.982)">
                                  <path id="path390" d="M-25.223,0,0,13.724a106.26,106.26,0,0,0-7.368,9.355L-32.591,9.353A106.234,106.234,0,0,1-25.223,0" transform="translate(-0.598)" fill="#394480"/>
                                </g>
                                <g id="g396" transform="translate(-62.293 40.336)">
                                  <path id="path394" d="M-25.223,0,0,13.724A106.849,106.849,0,0,0-6.63,24.479L-31.853,10.754A106.615,106.615,0,0,1-25.223,0" transform="translate(-0.598)" fill="#394480"/>
                                </g>
                                <g id="g400" transform="translate(-68.923 51.09)">
                                  <path id="path398" d="M-25.223,0,0,13.724a105.369,105.369,0,0,0-6.118,13.6L-31.339,13.6A105.222,105.222,0,0,1-25.223,0" transform="translate(-0.598)" fill="#394480"/>
                                </g>
                                <g id="g404" transform="translate(-43.686 64.688)">
                                  <path id="path402" d="M-56.778,0l25.223,13.724a97.682,97.682,0,0,0-6.07,32.838C-37.855,78.112-22.8,103.713,0,116.12L-25.223,102.4c-22.8-12.408-37.855-38.009-37.624-69.558A97.636,97.636,0,0,1-56.778,0" transform="translate(-0.397)" fill="#394480"/>
                                </g>
                              </g>
                            </g>
                          </g>
                        </g>
                        <g id="g412" transform="translate(-73.954 59.173)">
                          <path id="path410" d="M-34.3,0-9.072,13.724q1.107.6,2.208,1.227c1.918,1.07,2.536,2.227,2.132,4.835Q-7.983,40.811-10.749,61.85a7,7,0,0,0,1.5,4.861c1.813,2.2,4.484,3.6,6.149,5.913a9.369,9.369,0,0,0,3.1,2.9L-25.223,61.8a9.389,9.389,0,0,1-3.1-2.9c-1.665-2.319-4.336-3.714-6.149-5.913a7,7,0,0,1-1.5-4.861q2.764-21.034,6.016-42.066c.4-2.609-.214-3.765-2.132-4.835Q-33.189.6-34.3,0" transform="translate(-0.747)" fill="#394480"/>
                        </g>
                        <g id="g420" transform="translate(-73.773 59.035)">
                          <g id="g418_Clipped" data-name="g418 Clipped">
                            <path id="path274-2" data-name="path274" d="M-34.3,0-9.072,13.726q1.107.6,2.206,1.225c1.918,1.07,2.536,2.227,2.134,4.835q-3.251,21.026-6.016,42.066a6.985,6.985,0,0,0,1.5,4.859c1.813,2.2,4.484,3.6,6.149,5.913a9.376,9.376,0,0,0,3.1,2.9L-25.223,61.8a9.389,9.389,0,0,1-3.1-2.9c-1.665-2.319-4.336-3.714-6.149-5.913a7,7,0,0,1-1.5-4.861Q-33.208,27.1-29.956,6.06c.4-2.609-.214-3.765-2.132-4.835Q-33.189.605-34.3,0" transform="translate(-0.928 0.138)" fill="none"/>
                            <g id="g418_Clipped-2" data-name="g418 Clipped" clip-path="url(#clip-path-11)">
                              <g id="g418">
                                <g id="g416" transform="translate(-0.181 0.139)">
                                  <path id="path414" d="M-34.3,0-9.072,13.724q1.107.6,2.208,1.227c1.918,1.07,2.536,2.227,2.132,4.835Q-7.983,40.811-10.749,61.85a7,7,0,0,0,1.5,4.861c1.813,2.2,4.484,3.6,6.149,5.913a9.369,9.369,0,0,0,3.1,2.9L-25.223,61.8a9.389,9.389,0,0,1-3.1-2.9c-1.665-2.319-4.336-3.714-6.149-5.913a7,7,0,0,1-1.5-4.861q2.764-21.034,6.016-42.066c.4-2.609-.214-3.765-2.132-4.835Q-33.189.6-34.3,0" transform="translate(-0.747)" fill="#394480"/>
                                </g>
                              </g>
                            </g>
                          </g>
                        </g>
                        <g id="g424" transform="translate(-178.32 405.212)">
                          <path id="path422" d="M-25.223,0,0,13.724c-2.591.6-4.268.981-5.93,1.216a21.847,21.847,0,0,1-3.412.234,12.652,12.652,0,0,0-1.961.111c-3.445.485-5.83,2.531-8.08,6.4-6.564,11.3-13.748,22.217-20.487,33.417-1.219,2.029-2.385,2.911-3.991,3.138a8.478,8.478,0,0,1-1.953.009A159.2,159.2,0,0,1-108.7,39.059l-25.223-13.726a159.205,159.205,0,0,0,62.886,19.2,8.477,8.477,0,0,0,1.953-.009c1.606-.227,2.774-1.111,3.989-3.14,6.741-11.2,13.927-22.114,20.489-33.417,2.25-3.872,4.635-5.918,8.082-6.4a12.632,12.632,0,0,1,1.961-.113,21.839,21.839,0,0,0,3.41-.234C-29.489.98-27.814.6-25.223,0" transform="translate(-0.598)" fill="#394480"/>
                        </g>
                        <g id="g480" transform="translate(-178.9 404.864)">
                          <g id="g478_Clipped" data-name="g478 Clipped">
                            <path id="path278-2" data-name="path278" d="M-25.223,0,0,13.726c-2.591.6-4.266.98-5.928,1.214a21.655,21.655,0,0,1-3.412.234,12.632,12.632,0,0,0-1.961.113c-3.447.483-5.832,2.531-8.08,6.4-6.564,11.3-13.75,22.217-20.489,33.419-1.217,2.027-2.385,2.911-3.991,3.138a8.476,8.476,0,0,1-1.953.009,159.188,159.188,0,0,1-62.884-19.2l-25.223-13.724A159.185,159.185,0,0,0-71.034,44.529a8.461,8.461,0,0,0,1.951-.009c1.606-.227,2.774-1.109,3.989-3.14C-58.351,30.18-51.167,19.267-44.6,7.964c2.248-3.874,4.633-5.918,8.082-6.4a12.6,12.6,0,0,1,1.959-.111,22.089,22.089,0,0,0,3.412-.234C-29.489.981-27.814.6-25.223,0" transform="translate(-0.018 0.347)" fill="none"/>
                            <g id="g478_Clipped-2" data-name="g478 Clipped" clip-path="url(#clip-path-12)">
                              <g id="g478" transform="translate(0.844)">
                                <g id="g428" transform="translate(-0.264 0.348)">
                                  <path id="path426" d="M-25.223,0,0,13.724c-2.591.6-4.268.981-5.93,1.216a21.847,21.847,0,0,1-3.412.234,12.652,12.652,0,0,0-1.961.111,9.2,9.2,0,0,0-2.658.777L-39.181,2.337a9.162,9.162,0,0,1,2.658-.777,12.632,12.632,0,0,1,1.961-.113,21.839,21.839,0,0,0,3.41-.234C-29.489.98-27.814.6-25.223,0" transform="translate(-0.598)" fill="#394480"/>
                                </g>
                                <g id="g432" transform="translate(-14.223 2.684)">
                                  <path id="path430" d="M-25.223,0,0,13.724a9,9,0,0,0-1.263.729L-26.486.729A8.749,8.749,0,0,1-25.223,0" transform="translate(-0.598)" fill="#394480"/>
                                </g>
                                <g id="g436" transform="translate(-15.486 3.412)">
                                  <path id="path434" d="M-25.223,0,0,13.724a10.4,10.4,0,0,0-1,.791L-26.219.791a9.9,9.9,0,0,1,1-.791" transform="translate(-0.598)" fill="#394480"/>
                                </g>
                                <g id="g440" transform="translate(-16.482 4.203)">
                                  <path id="path438" d="M-25.223,0,0,13.724a12.048,12.048,0,0,0-.972.989L-26.2.987A12.019,12.019,0,0,1-25.223,0" transform="translate(-0.598)" fill="#394480"/>
                                </g>
                                <g id="g444" transform="translate(-17.454 5.19)">
                                  <path id="path442" d="M-25.223,0,0,13.724a16.632,16.632,0,0,0-1.112,1.422L-26.337,1.422A16.434,16.434,0,0,1-25.223,0" transform="translate(-0.598)" fill="#394480"/>
                                </g>
                                <g id="g448" transform="translate(-18.567 6.612)">
                                  <path id="path446" d="M-25.223,0,0,13.724c-.365.524-.723,1.088-1.079,1.7-6.564,11.3-13.748,22.217-20.489,33.419-.162.271-.326.526-.491.758L-47.281,35.875c.164-.234.326-.485.491-.76C-40.05,23.915-32.866,13-26.3,1.7q.531-.916,1.079-1.7" transform="translate(-0.598)" fill="#394480"/>
                                </g>
                                <g id="g452" transform="translate(-40.625 42.487)">
                                  <path id="path450" d="M-25.223,0,0,13.724a8.3,8.3,0,0,1-.59.756L-25.811.755A8.521,8.521,0,0,0-25.223,0" transform="translate(-0.598)" fill="#394480"/>
                                </g>
                                <g id="g456" transform="translate(-41.214 43.242)">
                                  <path id="path454" d="M-25.223,0,0,13.724a6.031,6.031,0,0,1-.492.5L-25.717.5a6.042,6.042,0,0,0,.494-.5" transform="translate(-0.598)" fill="#394480"/>
                                </g>
                                <g id="g460" transform="translate(-41.708 43.741)">
                                  <path id="path458" d="M-25.225,0,0,13.724a4.459,4.459,0,0,1-.492.389L-25.716.389A4.982,4.982,0,0,0-25.225,0" transform="translate(-0.596)" fill="#394480"/>
                                </g>
                                <g id="g464" transform="translate(-42.198 44.13)">
                                  <path id="path462" d="M-25.223,0,0,13.724a4.258,4.258,0,0,1-.61.354L-25.834.352A4.147,4.147,0,0,0-25.223,0" transform="translate(-0.598)" fill="#394480"/>
                                </g>
                                <g id="g468" transform="translate(-42.808 39.949)">
                                  <path id="path466" d="M-25.223,4.112,0,17.836a4.5,4.5,0,0,1-1.317.384,8.476,8.476,0,0,1-1.953.009,161.272,161.272,0,0,1-26.033-4.5L-54.526,0A161.3,161.3,0,0,0-28.491,4.505,8.461,8.461,0,0,0-26.54,4.5a4.553,4.553,0,0,0,1.317-.384" transform="translate(-0.598 0.422)" fill="#394480"/>
                                </g>
                                <g id="g472" transform="translate(-72.11 28.458)">
                                  <path id="path470" d="M-25.223,11.29,0,25.014a158.711,158.711,0,0,1-30.319-11.29L-55.54,0A159.02,159.02,0,0,0-25.223,11.29" transform="translate(-0.598 0.623)" fill="#394480"/>
                                </g>
                                <g id="g476" transform="translate(-102.429 25.392)">
                                  <path id="path474" d="M-25.223,3.4,0,17.124q-3.3-1.619-6.534-3.4L-31.758,0q3.24,1.779,6.534,3.4" transform="translate(-0.598 0.29)" fill="#394480"/>
                                </g>
                              </g>
                            </g>
                          </g>
                        </g>
                        <g id="g484" transform="translate(-175.376 404.807)">
                          <path id="path482" d="M-25.223.5,0,14.228a4.577,4.577,0,0,0-2.944-.439L-28.167.065A4.577,4.577,0,0,1-25.223.5" transform="translate(-0.598 0.341)" fill="#394480"/>
                        </g>
                        <g id="g500" transform="translate(-175.212 404.864)">
                          <g id="g498_Clipped" data-name="g498 Clipped">
                            <path id="path282-2" data-name="path282" d="M-25.223.5,0,14.229a4.582,4.582,0,0,0-2.945-.439L-28.168.064A4.594,4.594,0,0,1-25.223.5" transform="translate(-0.762 0.283)" fill="none"/>
                            <g id="g498_Clipped-2" data-name="g498 Clipped" clip-path="url(#clip-path-13)">
                              <g id="g498" transform="translate(0 -0.845)">
                                <g id="g488" transform="translate(-0.165 1.543)">
                                  <path id="path486" d="M-25.223.079,0,13.8c-.05-.026-.1-.054-.151-.077L-25.374,0c.052.026.1.052.151.079" transform="translate(-0.598 0.01)" fill="#394480"/>
                                </g>
                                <g id="g492" transform="translate(-0.315 0.708)">
                                  <path id="path490" d="M-25.223.284,0,14.01a3.933,3.933,0,0,0-.769-.286L-25.992,0a4.049,4.049,0,0,1,.769.284" transform="translate(-0.598 0.561)" fill="#394480"/>
                                </g>
                                <g id="g496" transform="translate(-1.084 0.423)">
                                  <path id="path494" d="M-25.223.141,0,13.865a5.162,5.162,0,0,0-2.025-.076L-27.248.065a5.091,5.091,0,0,1,2.025.076" transform="translate(-0.598 0.704)" fill="#394480"/>
                                </g>
                              </g>
                            </g>
                          </g>
                        </g>
                        <g id="g504" transform="translate(-146.853 438.248)">
                          <path id="path502" d="M-3.609,13.726-28.832,0a5.758,5.758,0,0,0,3.609.587L0,14.31a5.757,5.757,0,0,1-3.609-.585" transform="translate(-0.079 0.033)" fill="#394480"/>
                        </g>
                        <g id="g520" transform="translate(-146.702 438.071)">
                          <g id="g518_Clipped" data-name="g518 Clipped" transform="translate(0)">
                            <path id="path286-2" data-name="path286" d="M-3.609,13.727-28.832,0a5.758,5.758,0,0,0,3.609.589L0,14.312a5.77,5.77,0,0,1-3.609-.585" transform="translate(-0.23 0.208)" fill="none"/>
                            <g id="g518_Clipped-2" data-name="g518 Clipped" clip-path="url(#clip-path-14)">
                              <g id="g518" transform="translate(1 -0.845)">
                                <g id="g508" transform="translate(-0.632 0.796)">
                                  <path id="path506" d="M-25.223.113,0,13.836a5.8,5.8,0,0,1-2.394-.111L-27.615,0a5.819,5.819,0,0,0,2.392.113" transform="translate(-0.598 0.732)" fill="#394480"/>
                                </g>
                                <g id="g512" transform="translate(-3.025 0.685)">
                                  <path id="path510" d="M-25.223.384,0,14.107a5.385,5.385,0,0,1-1.04-.384L-26.263,0a5.509,5.509,0,0,0,1.04.384" transform="translate(-0.598 0.461)" fill="#394480"/>
                                </g>
                                <g id="g516" transform="translate(-4.065 0.301)">
                                  <path id="path514" d="M-25.223.092,0,13.816c-.059-.028-.12-.059-.177-.089L-25.4,0c.059.033.116.063.177.092" transform="translate(-0.598 0.753)" fill="#394480"/>
                                </g>
                              </g>
                            </g>
                          </g>
                        </g>
                        <g id="g524" transform="translate(-70.138 336.304)">
                          <path id="path522" d="M-25.223,0,0,13.726a7.27,7.27,0,0,0-4.332,2.2,148.425,148.425,0,0,0-9.517,11.608,7.687,7.687,0,0,0-1.368,4.894q2.731,20.259,5.876,40.4c.38,2.387.024,3.808-1.959,5.472a212.007,212.007,0,0,1-64.9,37.987l-25.223-13.724a212.044,212.044,0,0,0,64.9-37.987c1.981-1.664,2.339-3.086,1.959-5.474q-3.154-20.126-5.876-40.395a7.7,7.7,0,0,1,1.367-4.9A149.529,149.529,0,0,1-29.555,2.2,7.28,7.28,0,0,1-25.223,0" transform="translate(-0.598)" fill="#394480"/>
                        </g>
                        <g id="g588" transform="translate(-70.085 335.76)">
                          <g id="g586_Clipped" data-name="g586 Clipped">
                            <path id="path290-2" data-name="path290" d="M-25.223,0,0,13.726a7.27,7.27,0,0,0-4.332,2.2,148.425,148.425,0,0,0-9.517,11.608,7.687,7.687,0,0,0-1.368,4.894q2.731,20.259,5.878,40.395c.378,2.387.022,3.81-1.961,5.474a212.007,212.007,0,0,1-64.9,37.987l-25.223-13.724a212.023,212.023,0,0,0,64.9-37.987c1.981-1.666,2.339-3.086,1.959-5.474q-3.151-20.126-5.876-40.395a7.713,7.713,0,0,1,1.367-4.9A149.129,149.129,0,0,1-29.554,2.2,7.269,7.269,0,0,1-25.223,0" transform="translate(-0.651 0.544)" fill="none"/>
                            <g id="g586_Clipped-2" data-name="g586 Clipped" clip-path="url(#clip-path-15)">
                              <g id="g586">
                                <g id="g528" transform="translate(-0.053 0.544)">
                                  <path id="path526" d="M-25.223,0,0,13.726a7.09,7.09,0,0,0-2.158.633L-27.381.635A7.093,7.093,0,0,1-25.223,0" transform="translate(-0.598)" fill="#394480"/>
                                </g>
                                <g id="g532" transform="translate(-2.211 1.178)">
                                  <path id="path530" d="M-25.223,0,0,13.724a7.631,7.631,0,0,0-1.07.616L-26.293.614A7.52,7.52,0,0,1-25.223,0" transform="translate(-0.598)" fill="#394480"/>
                                </g>
                                <g id="g536" transform="translate(-3.281 1.793)">
                                  <path id="path534" d="M-25.223,0,0,13.726a7.135,7.135,0,0,0-.688.542L-25.911.544A6.927,6.927,0,0,1-25.223,0" transform="translate(-0.598)" fill="#394480"/>
                                </g>
                                <g id="g540" transform="translate(-3.969 2.337)">
                                  <path id="path538" d="M-25.223,0,0,13.724c-.149.137-.29.273-.417.413q-.681.753-1.354,1.513L-26.992,1.926q.672-.761,1.352-1.513A5.194,5.194,0,0,1-25.223,0" transform="translate(-0.598)" fill="#394480"/>
                                </g>
                                <g id="g544" transform="translate(-5.738 4.262)">
                                  <path id="path542" d="M-25.223,0,0,13.724c-2.855,3.234-5.592,6.6-8.165,10.095-.026.033-.05.066-.074.1L-33.462,10.195l.074-.1C-30.815,6.6-28.078,3.232-25.223,0" transform="translate(-0.598)" fill="#394480"/>
                                </g>
                                <g id="g548" transform="translate(-13.977 14.458)">
                                  <path id="path546" d="M-25.223,0,0,13.724a6.1,6.1,0,0,0-.373.611L-25.6.609A6.069,6.069,0,0,1-25.223,0" transform="translate(-0.598)" fill="#394480"/>
                                </g>
                                <g id="g552" transform="translate(-14.349 15.067)">
                                  <path id="path550" d="M-25.223,0,0,13.724a8.194,8.194,0,0,0-.459,1.031L-25.684,1.031A8.349,8.349,0,0,1-25.223,0" transform="translate(-0.598)" fill="#394480"/>
                                </g>
                                <g id="g556" transform="translate(-9.277 16.097)">
                                  <path id="path554" d="M-30.772,0-5.549,13.724a6.982,6.982,0,0,0-.461,3.155Q-3.28,37.14-.134,57.275a6.075,6.075,0,0,1-.129,3.107L-25.486,46.658a6.082,6.082,0,0,0,.129-3.109q-3.154-20.126-5.876-40.395A6.978,6.978,0,0,1-30.772,0" transform="translate(-0.581)" fill="#394480"/>
                                </g>
                                <g id="g560" transform="translate(-9.524 62.755)">
                                  <path id="path558" d="M-25.223,0,0,13.724a3.9,3.9,0,0,1-.238.533L-25.461.531A4.379,4.379,0,0,0-25.223,0" transform="translate(-0.598)" fill="#394480"/>
                                </g>
                                <g id="g564" transform="translate(-9.763 63.286)">
                                  <path id="path562" d="M-25.223,0,0,13.724a4.622,4.622,0,0,1-.286.463L-25.509.461A4.6,4.6,0,0,0-25.223,0" transform="translate(-0.598)" fill="#394480"/>
                                </g>
                                <g id="g568" transform="translate(-10.049 63.748)">
                                  <path id="path566" d="M-25.223,0,0,13.726a5.755,5.755,0,0,1-.393.494L-25.614.5a5.82,5.82,0,0,0,.391-.5" transform="translate(-0.598)" fill="#394480"/>
                                </g>
                                <g id="g572" transform="translate(-10.441 64.243)">
                                  <path id="path570" d="M-25.223,0,0,13.724a7.676,7.676,0,0,1-.636.638L-25.859.636A7.959,7.959,0,0,0-25.223,0" transform="translate(-0.598)" fill="#394480"/>
                                </g>
                                <g id="g576" transform="translate(-11.077 64.879)">
                                  <path id="path574" d="M-25.223,0,0,13.726c-.089.079-.181.159-.277.24q-8.551,7.22-17.5,13.417L-43.006,13.657Q-34.051,7.459-25.5.242c.1-.081.188-.161.277-.242" transform="translate(-0.598)" fill="#394480"/>
                                </g>
                                <g id="g580" transform="translate(-28.859 78.537)">
                                  <path id="path578" d="M-25.223,0,0,13.724A210,210,0,0,1-29.954,31.047L-55.177,17.321A210.165,210.165,0,0,0-25.223,0" transform="translate(-0.598)" fill="#394480"/>
                                </g>
                                <g id="g584" transform="translate(-58.813 95.858)">
                                  <path id="path582" d="M-25.223,0,0,13.726q-8.557,4.035-17.436,7.248L-42.659,7.25Q-33.779,4.037-25.223,0" transform="translate(-0.598)" fill="#394480"/>
                                </g>
                              </g>
                            </g>
                          </g>
                        </g>
                        <g id="g592" transform="translate(-25.009 39.606)">
                          <path id="path590" d="M-222.361,409.206c1.607-.227,2.774-1.111,3.989-3.141,6.741-11.2,13.927-22.113,20.489-33.416,2.25-3.872,4.634-5.918,8.081-6.4a12.947,12.947,0,0,1,1.961-.111,21.826,21.826,0,0,0,3.41-.234c1.663-.234,3.338-.615,5.929-1.214,2.151-.3,3.6.454,4.985,2.386q10.939,15.109,22.306,29.809a5.218,5.218,0,0,0,4.7,1.461,211.993,211.993,0,0,0,64.9-37.987c1.983-1.664,2.34-3.086,1.96-5.474q-3.154-20.126-5.878-40.394a7.7,7.7,0,0,1,1.369-4.9,149.224,149.224,0,0,1,9.518-11.607,7.28,7.28,0,0,1,4.333-2.205q19.119.279,38.177,1.061a7.813,7.813,0,0,0,1.42-.049c1.6-.225,2.621-1.091,3.7-3.015A247.785,247.785,0,0,0-.184,220.461c.492-2.478.037-3.848-1.867-5.046-9-5.673-17.658-11.95-26.894-17.19-5.194-2.939-7.728-6.584-6.445-13.477a22.074,22.074,0,0,0-.12-6.759c-.392-3.041.717-5.078,3.041-7.19Q-17.2,156.931-2.255,142.664c1.228-1.177,2.4-3.847,2.123-5.306A182.4,182.4,0,0,0-26.671,71.087c-1.011-1.557-2.071-2.142-3.628-1.924a7.094,7.094,0,0,0-1.2.292c-11.335,3.634-22.742,6.848-34.02,10.777a19.869,19.869,0,0,1-3.722.967c-3.249.455-5.864-.454-8.148-3.651-1.666-2.318-4.334-3.712-6.147-5.912a6.979,6.979,0,0,1-1.5-4.862q2.763-21.03,6.014-42.064c.4-2.608-.214-3.765-2.132-4.835A160.378,160.378,0,0,0-145.082.043a7.092,7.092,0,0,0-1.682.014c-1.775.248-2.99,1.337-4.233,3.42-5.926,9.859-12.473,19.341-17.985,29.412-3.244,5.924-6.763,9.914-12.185,10.677a14.893,14.893,0,0,1-3.361.072,5.5,5.5,0,0,0-1.292.046c-.531.076-1.076.2-1.616.33s-1.1.26-1.642.336a5.578,5.578,0,0,1-1.313.048c-1.8-.192-4.018-.727-5.048-2.065q-11.406-14.664-22.306-29.809c-1.171-1.621-2.342-2.155-3.878-1.94a8.223,8.223,0,0,0-1.747.483,218.431,218.431,0,0,0-64.084,37.76c-1.938,1.627-2.6,3.06-2.226,5.464,1.621,10.217,2.695,20.605,4.744,30.65,1.7,8.293,1.92,15.644-5.98,21.905a16.144,16.144,0,0,0-3.169,4.064,5.118,5.118,0,0,1-3.814,2.636,9.215,9.215,0,0,1-1.656.063c-12.42-.5-24.9-.727-37.335-1.129a9.548,9.548,0,0,0-1.669.06c-1.4.2-2.526.877-3.609,2.834a249.272,249.272,0,0,0-26.872,73.318c-.5,2.606-.035,4.1,2.031,5.39,8.128,5.045,15.827,10.851,24.208,15.4,6.772,3.671,10.87,8.311,8.977,17.65-.328,1.625.334,3.365-.068,4.97-.492,2.03-1.146,4.531-2.507,5.837q-15.116,14.468-30.569,28.455c-2.173,1.965-2.739,3.717-2.2,6.37,4.9,23.61,13.4,45.092,25.817,64.331,1.324,2.057,2.512,3.354,4.627,3.057a7.247,7.247,0,0,0,2.016-.643c3.176-1.481,6.606-2.139,9.93-3.149,9.563-2.94,19.11-5.861,29.275-8.98a6.072,6.072,0,0,1,1.949.939c3.612,3.288,7.21,6.577,10.645,10.08a4.69,4.69,0,0,1,.777,3.495c-1.9,13.869-3.774,27.75-6,41.618-.568,3.54.328,5.09,2.927,6.508a159.165,159.165,0,0,0,62.885,19.194c.358.034.7.053,1.017.053A6.776,6.776,0,0,0-222.361,409.206Z" transform="translate(-0.631 0.919)" fill="#9e9ec5"/>
                        </g>
                        <g id="g604" transform="translate(-129.103 213.001)">
                          <g id="g602">
                            <g id="g600_Clipped" data-name="g600 Clipped">
                              <path id="path294-2" data-name="path294" d="M0,119.143H-161.541V0H0Z" transform="translate(-0.723 0.712)" fill="none"/>
                              <g id="g600_Clipped-2" data-name="g600 Clipped" clip-path="url(#clip-path-16)">
                                <g id="g600" transform="translate(-0.156 0.155)" opacity="0.46">
                                  <g id="g598" transform="translate(-0.066 0.104)">
                                    <path id="path596" d="M-81.494,118.462C-36.726,112.172-.312,68.228,0,20.435A90.082,90.082,0,0,0-2.18,0c-8.456,39.651-40.776,72.972-79.314,78.387-37.918,5.114-69.489-19.07-77.858-56.286a95.317,95.317,0,0,0-2.184,19.369c-.358,48.541,35.47,83,80.042,76.992" transform="translate(-0.501 0.452)" fill="#2d3166"/>
                                  </g>
                                </g>
                              </g>
                            </g>
                          </g>
                        </g>
                        <g id="g608" transform="translate(-25.002 202.105)">
                          <path id="path606" d="M-2.05,13.473C-9.009,9.088-15.772,4.352-22.751,0c-3.233,2.983-6.461,5.977-9.716,8.935-2.322,2.112-3.434,4.149-3.041,7.189a22.033,22.033,0,0,1,.12,6.759c-1.282,6.892,1.252,10.538,6.444,13.477,7.06,4.005,13.783,8.612,20.577,13.095A250.318,250.318,0,0,0-.184,18.52c.492-2.476.037-3.848-1.866-5.047" transform="translate(-0.638 0.286)" fill="#2d3166"/>
                        </g>
                        <g id="g612" transform="translate(-104.847 346.114)">
                          <path id="path610" d="M-1.525,0C-2.576,1.325-3.639,2.64-4.642,4A7.687,7.687,0,0,0-6.011,8.9c.363,2.688.754,5.367,1.127,8.053.928-.76,1.87-1.481,2.79-2.258C-.111,13.026.245,11.6-.135,9.219-.614,6.151-1.06,3.072-1.525,0" transform="translate(-0.319)" fill="#2d3166"/>
                        </g>
                        <g id="g616" transform="translate(-309.699 375.146)">
                          <path id="path614" d="M-.826,3.763C-2.088,2.478-3.39,1.242-4.688,0q-.664,4.4-1.361,8.8c-.568,3.54.33,5.09,2.927,6.51.607.332,1.228.625,1.839.948q.62-4.5,1.234-9a4.687,4.687,0,0,0-.776-3.5" transform="translate(-0.018 0.016)" fill="#2d3166"/>
                        </g>
                        <g id="g620" transform="translate(-125.732 0.326)">
                          <path id="path618" d="M-180.966,44.149a216.084,216.084,0,0,1,58.318-33.078,8.145,8.145,0,0,1,1.734-.48c1.547-.223,2.711.312,3.892,1.937,7.267,10.073,14.7,20.035,22.3,29.794,1.033,1.347,3.246,1.882,5.053,2.066a5.216,5.216,0,0,0,1.309-.037c.535-.074,1.088-.2,1.641-.332.535-.129,1.086-.258,1.621-.332a5.107,5.107,0,0,1,1.293-.055,14.406,14.406,0,0,0,3.357-.074C-75.027,42.8-71.5,38.818-68.259,32.9c5.515-10.075,12.043-19.555,17.982-29.425C-49.041,1.386-47.824.3-46.053.058A7.228,7.228,0,0,1-44.375.039,165.781,165.781,0,0,1-5.625,8.489Q-2.61,29.907,0,50.643A165,165,0,0,0-44.375,40.109a7.228,7.228,0,0,0-1.678.018c-1.771.258-2.988,1.347-4.224,3.413-5.939,9.87-12.468,19.352-17.982,29.425-3.246,5.922-6.769,9.907-12.191,10.682a14.349,14.349,0,0,1-3.357.053,6.134,6.134,0,0,0-1.293.057c-.535.074-1.086.2-1.621.332-.553.129-1.107.258-1.641.332a6.288,6.288,0,0,1-1.309.055c-1.807-.2-4.021-.738-5.053-2.066q-11.4-14.669-22.3-29.813c-1.18-1.623-2.344-2.158-3.892-1.937a8.256,8.256,0,0,0-1.734.48,214.689,214.689,0,0,0-55.4,30.9c-.885-12.4-1.844-25.053-2.914-37.893" transform="translate(-0.623 0.127)" fill="#2d3166"/>
                        </g>
                        <g id="g624" transform="translate(-0.415 109.995)">
                          <path id="path622" d="M-53.484,0l25.223,13.724a4.585,4.585,0,0,1,1.592,1.618A182.459,182.459,0,0,1-.133,81.614c.278,1.461-.895,4.131-2.123,5.306q-14.936,14.273-30.21,28.136c-2.324,2.112-3.436,4.149-3.043,7.189A22.092,22.092,0,0,1-35.387,129c-1.284,6.894,1.25,10.54,6.444,13.477C-19.707,147.72-11.05,154-2.049,159.671c1.9,1.2,2.359,2.568,1.865,5.046A247.756,247.756,0,0,1-27.023,238.03c-1.075,1.924-2.1,2.789-3.7,3.014a7.96,7.96,0,0,1-1.42.052q-19.053-.794-38.18-1.061L-95.542,226.31q19.119.277,38.178,1.061a7.815,7.815,0,0,0,1.422-.05c1.594-.225,2.621-1.09,3.7-3.014a247.76,247.76,0,0,0,26.841-73.314c.491-2.478.037-3.848-1.866-5.047-9-5.671-17.658-11.949-26.894-17.188-5.194-2.939-7.728-6.584-6.444-13.478a22.094,22.094,0,0,0-.122-6.759c-.393-3.038.719-5.077,3.041-7.187Q-42.423,87.462-27.477,73.2c1.228-1.177,2.4-3.846,2.121-5.306A182.419,182.419,0,0,0-51.892,1.618,4.616,4.616,0,0,0-53.484,0" transform="translate(-0.002)" fill="#394480"/>
                        </g>
                        <g id="g692" transform="translate(0 109.69)">
                          <g id="g690_Clipped" data-name="g690 Clipped">
                            <path id="path298-2" data-name="path298" d="M-53.483,0-28.26,13.724a4.6,4.6,0,0,1,1.592,1.618A182.459,182.459,0,0,1-.132,81.614c.278,1.461-.895,4.131-2.123,5.306q-14.936,14.273-30.212,28.136c-2.322,2.112-3.434,4.149-3.041,7.189a22.034,22.034,0,0,1,.12,6.759c-1.282,6.894,1.252,10.54,6.446,13.477,9.236,5.239,17.894,11.519,26.894,17.19,1.9,1.2,2.357,2.568,1.865,5.046A247.737,247.737,0,0,1-27.023,238.03c-1.075,1.924-2.1,2.789-3.7,3.014a7.96,7.96,0,0,1-1.42.052q-19.053-.794-38.18-1.061L-95.541,226.31q19.119.277,38.178,1.061a7.821,7.821,0,0,0,1.422-.05c1.594-.225,2.621-1.09,3.7-3.014a247.811,247.811,0,0,0,26.841-73.314c.491-2.478.037-3.848-1.866-5.047-9-5.671-17.658-11.949-26.894-17.188-5.194-2.939-7.728-6.584-6.444-13.478a22.094,22.094,0,0,0-.122-6.759c-.393-3.038.719-5.077,3.041-7.187Q-42.422,87.462-27.478,73.2c1.23-1.177,2.4-3.846,2.123-5.306A182.419,182.419,0,0,0-51.892,1.618,4.616,4.616,0,0,0-53.483,0" transform="translate(-0.417 0.304)" fill="none"/>
                            <g id="g690_Clipped-2" data-name="g690 Clipped" clip-path="url(#clip-path-17)">
                              <g id="g690" transform="translate(0.089)">
                                <g id="g628" transform="translate(-0.504 0.304)">
                                  <path id="path626" d="M-53.392,0l25.223,13.724a4.585,4.585,0,0,1,1.592,1.618A182.459,182.459,0,0,1-.041,81.614a4.947,4.947,0,0,1-.365,2.428L-25.63,70.316a4.94,4.94,0,0,0,.365-2.426A182.419,182.419,0,0,0-51.8,1.618,4.616,4.616,0,0,0-53.392,0" transform="translate(-0.093)" fill="#394480"/>
                                </g>
                                <g id="g632" transform="translate(-0.407 70.621)">
                                  <path id="path630" d="M-25.223,0,0,13.724a9.329,9.329,0,0,1-.546,1.208L-25.767,1.207A9.818,9.818,0,0,0-25.223,0" transform="translate(-0.598)" fill="#394480"/>
                                </g>
                                <g id="g636" transform="translate(-0.952 71.828)">
                                  <path id="path634" d="M-25.223,0,0,13.724a8.314,8.314,0,0,1-.522.852L-25.745.852A9.109,9.109,0,0,0-25.223,0" transform="translate(-0.598)" fill="#394480"/>
                                </g>
                                <g id="g640" transform="translate(-1.474 72.68)">
                                  <path id="path638" d="M-25.223,0,0,13.724a5.851,5.851,0,0,1-.428.546L-25.649.546c.144-.166.288-.351.426-.546" transform="translate(-0.598)" fill="#394480"/>
                                </g>
                                <g id="g644" transform="translate(-1.901 73.226)">
                                  <path id="path642" d="M-25.223,0,0,13.724A3.758,3.758,0,0,1-.262,14Q-15.2,28.272-30.474,42.134a14.559,14.559,0,0,0-1.143,1.147L-56.84,29.556A14.882,14.882,0,0,1-55.7,28.409Q-40.429,14.542-25.485.273C-25.4.19-25.31.1-25.223,0" transform="translate(-0.598)" fill="#394480"/>
                                </g>
                                <g id="g648" transform="translate(-33.519 102.783)">
                                  <path id="path646" d="M-25.223,0,0,13.724a10.1,10.1,0,0,0-.692.874L-25.915.874A9.568,9.568,0,0,1-25.223,0" transform="translate(-0.598)" fill="#394480"/>
                                </g>
                                <g id="g652" transform="translate(-34.211 103.657)">
                                  <path id="path650" d="M-25.223,0,0,13.724a7.9,7.9,0,0,0-.487.788L-25.71.788A7.381,7.381,0,0,1-25.223,0" transform="translate(-0.598)" fill="#394480"/>
                                </g>
                                <g id="g656" transform="translate(-34.698 104.444)">
                                  <path id="path654" d="M-25.223,0,0,13.724a6.843,6.843,0,0,0-.395.873L-25.616.873A6.479,6.479,0,0,1-25.223,0" transform="translate(-0.598)" fill="#394480"/>
                                </g>
                                <g id="g660" transform="translate(-0.05 105.316)">
                                  <path id="path658" d="M-60.407,0l25.223,13.724a7.252,7.252,0,0,0-.325,3.509,22.035,22.035,0,0,1,.12,6.759c-1.282,6.894,1.25,10.54,6.444,13.478,9.236,5.237,17.9,11.517,26.894,17.188,1.9,1.2,2.359,2.57,1.866,5.046a249.657,249.657,0,0,1-10.64,38.063L-36.047,84.043a249.657,249.657,0,0,0,10.64-38.063c.492-2.478.037-3.848-1.866-5.047-9-5.671-17.658-11.949-26.894-17.188-5.194-2.939-7.728-6.584-6.444-13.478a22.152,22.152,0,0,0-.12-6.759A7.222,7.222,0,0,1-60.407,0" transform="translate(-0.456)" fill="#394480"/>
                                </g>
                                <g id="g664" transform="translate(-10.731 189.359)">
                                  <path id="path662" d="M-25.223,0,0,13.724A247.945,247.945,0,0,1-14.389,45.667L-39.613,31.941A248.174,248.174,0,0,0-25.223,0" transform="translate(-0.598)" fill="#394480"/>
                                </g>
                                <g id="g668" transform="translate(-25.12 221.301)">
                                  <path id="path666" d="M-25.223,0,0,13.724q-.891,1.66-1.813,3.31c-.2.365-.4.688-.607.981L-27.643,4.287c.2-.29.4-.614.609-.978q.918-1.652,1.811-3.31" transform="translate(-0.598)" fill="#394480"/>
                                </g>
                                <g id="g672" transform="translate(-27.54 225.589)">
                                  <path id="path670" d="M-25.223,0,0,13.726a7.306,7.306,0,0,1-.481.616L-25.7.618A7.344,7.344,0,0,0-25.223,0" transform="translate(-0.598)" fill="#394480"/>
                                </g>
                                <g id="g676" transform="translate(-28.022 226.207)">
                                  <path id="path674" d="M-25.223,0,0,13.724a5.212,5.212,0,0,1-.411.419L-25.636.419A5.549,5.549,0,0,0-25.223,0" transform="translate(-0.598)" fill="#394480"/>
                                </g>
                                <g id="g680" transform="translate(-28.434 226.625)">
                                  <path id="path678" d="M-25.223,0,0,13.724a4.116,4.116,0,0,1-.421.334L-25.644.334A4.448,4.448,0,0,0-25.223,0" transform="translate(-0.598)" fill="#394480"/>
                                </g>
                                <g id="g684" transform="translate(-28.854 226.958)">
                                  <path id="path682" d="M-25.223,0,0,13.724a3.691,3.691,0,0,1-.54.312L-25.763.312A3.945,3.945,0,0,0-25.223,0" transform="translate(-0.598)" fill="#394480"/>
                                </g>
                                <g id="g688" transform="translate(-29.394 226.425)">
                                  <path id="path686" d="M-25.223.655,0,14.379a4.207,4.207,0,0,1-1.234.356,7.8,7.8,0,0,1-1.42.05q-19.053-.791-38.18-1.059L-66.057,0q19.119.277,38.18,1.061a7.791,7.791,0,0,0,1.42-.052A4.338,4.338,0,0,0-25.223.655" transform="translate(-0.598 0.19)" fill="#394480"/>
                                </g>
                              </g>
                            </g>
                          </g>
                        </g>
                      </g>
                    </g>
                  </g>
                </g>
              </g>
              <g id="g698" transform="translate(-543.482 1965.545)">
                <path id="path700" d="M-63.867,3.354A98.713,98.713,0,0,1-3.812,99.518c-.116,2.374,3.572,2.369,3.689,0A102.237,102.237,0,0,0-62.006.168c-2.156-.928-4.039,2.249-1.861,3.186" transform="translate(-0.684 0.336)" fill="#171338"/>
              </g>
              <g id="g702" transform="translate(-567.969 1970.573)">
                <path id="path704" d="M-28.732,2.672C-18.605,16.892-9.367,31.02-5.866,48.417c3.421,17,2.2,34.554.806,51.7-.194,2.367,3.5,2.354,3.689,0C.05,82.612,1.175,64.778-2.31,47.435-5.853,29.8-15.258,15.256-25.547.811c-1.367-1.919-4.567-.077-3.185,1.861" transform="translate(-0.777 0.018)" fill="#171338"/>
              </g>
              <g id="g706" transform="translate(-556.201 1989.998)">
                <path id="path708" d="M-21.608,2.726A115.958,115.958,0,0,1-4.15,75.14c-.207,2.365,3.482,2.352,3.689,0A119.311,119.311,0,0,0-18.423.865c-1.26-2.007-4.452-.157-3.185,1.861" transform="translate(-0.524 0.964)" fill="#171338"/>
              </g>
              <g id="g710" transform="translate(-405.782 1991.429)">
                <path id="path712" d="M-111.3,3.665l64.41,21.874c9.146,3.107,18.738,5.749,27.3,10.3A36.144,36.144,0,0,1-9.016,43.768C-2.833,50.915-.541,67.9-14.421,67.89a1.846,1.846,0,0,0,0,3.69C-4.8,71.59.992,63.471-.141,54.2-1.354,44.3-9.4,37.09-17.728,32.657c-12.53-6.667-26.99-10.272-40.365-14.812Q-84.206,8.973-110.319.107c-2.25-.764-3.218,2.8-.979,3.559" transform="translate(-0.206 0.024)" fill="#171338"/>
              </g>
              <g id="g714" transform="translate(-422.339 2026.924)">
                <path id="path716" d="M-31.522,3.615C-24.362,5.3-16.78,7.24-11.013,12.073c5.5,4.607,12.374,17.238,2.632,21.361-2.178.922-.3,4.1,1.863,3.186,8.425-3.566,7.626-14.3,3.536-20.948C-8.9,6.048-20.174,2.493-30.541.056c-2.309-.542-3.294,3.016-.981,3.559" transform="translate(-0.676 0.075)" fill="#171338"/>
              </g>
              <g id="g718" transform="translate(-579.569 1934.45)">
                <path id="path720" d="M-3.1.589c-7.337,8.152-16.935,14.037-26.011,20.077A197.86,197.86,0,0,1-56.947,36.484c-2.16.978-.288,4.158,1.861,3.186a209.521,209.521,0,0,0,30.5-17.609C-16.127,16.351-7.364,10.833-.492,3.2,1.09,1.436-1.51-1.18-3.1.589" transform="translate(-0.587 0.256)" fill="#171338"/>
              </g>
              <g id="g722" transform="translate(-594.651 1952.662)">
                <path id="path724" d="M-2.216.136C-9.343,2.94-16.735,5.418-23.7,8.6s-10.87,10.084-18.322,13.192c-2.16.9-1.212,4.472.979,3.557,6.077-2.533,10.127-5.911,14.769-10.425C-20.289,9.1-8.959,6.733-1.237,3.694.949,2.835,0-.735-2.216.136" transform="translate(-0.472 0.709)" fill="#171338"/>
              </g>
              <g id="g726" transform="translate(-561.779 1887.38)">
                <path id="path728" d="M-31.782,57.835C-19.9,51.375-7.654,37.125-2.61,24.544.138,17.694,3.146,1.9-7.433.033c-2.322-.411-3.32,3.145-.981,3.559,6.621,1.17,4.7,12.189,3.44,16.651-1.594,5.629-4.976,10.641-8.554,15.165-5.614,7.1-12.088,14.877-20.116,19.242-2.086,1.135-.225,4.322,1.863,3.186" transform="translate(-0.416 0.199)" fill="#171338"/>
              </g>
              <g id="g730" transform="translate(-574.135 1893.039)">
                <path id="path732" d="M-14.357,45.2A41.612,41.612,0,0,0-.263,18.941C.621,11.368-.351,2.009-9.053.051c-2.313-.518-3.3,3.037-.981,3.559C-.574,5.735-3.593,20.1-5.661,26.163a38.842,38.842,0,0,1-11.3,16.43c-1.776,1.583.841,4.184,2.608,2.609" transform="translate(-0.398 0.919)" fill="#171338"/>
              </g>
              <g id="g734" transform="translate(-520.826 1870.695)">
                <path id="path736" d="M-15.26,36.478S-4.821,12.689-.994,7.117s-3.462-12.752-20.977,0S-48.093,23.9-41.562,36.478s26.3,0,26.3,0" transform="translate(-0.339 0.419)" fill="#e57e80"/>
              </g>
              <g id="g738" transform="translate(-531.823 1887.337)">
                <path id="path740" d="M-1.1.071A152.635,152.635,0,0,0-26.336,13.1c-1,.638-.074,2.236.931,1.592A150.212,150.212,0,0,1-.613,1.849C.471,1.41,0-.374-1.1.071" transform="translate(-0.741 0.019)" fill="#e9595a"/>
              </g>
              <g id="g742" transform="translate(-534.12 1889.593)">
                <path id="path744" d="M-.615,5.748A102.614,102.614,0,0,0-20.407.018c-1.16-.212-1.66,1.564-.491,1.778A102.614,102.614,0,0,1-1.106,7.526C0,7.969.475,6.185-.615,5.748" transform="translate(-0.229 0.632)" fill="#e9595a"/>
              </g>
              <g id="g746" transform="translate(-425.137 921.723)">
                <path id="path748" d="M-6.645,200.723S0,98.739,0,76.839-9.788,1.759-18.655.195-24.137,6.932-29.27,9.663s.457-2.9-8.906,2.73-.463,4.667-13.117,5.632-4.882,1.251-12.449,5.632-8.742,5.086-5.965,12.24,4.847,42.939,15.384,64.464-.343,88.475-.343,88.475Z" transform="translate(-0.732 0.364)" fill="#e57e80"/>
              </g>
              <g id="g750" transform="translate(-419.503 1074.502)">
                <path id="path752" d="M-50.522,661.808s11-238.017,38.159-413.348c20.6-133,9.236-237.093,9.236-237.093S-68.309-8.279-81.942,4.085s-25.074,593.727-8,629.536,28.609,36.524,39.419,28.187" transform="translate(-0.119 0.488)" fill="#f69d79"/>
              </g>
              <g id="g754" transform="translate(-417.126 1071.598)">
                <path id="path756" d="M-5.611,13.989S5.992,75.354-4.172,82.58s-96.837-13.323-96.837-13.323L-84.427,6.708s-2.757-19.159,78.816,7.282" transform="translate(-0.011 0.769)" fill="#f9b17c"/>
              </g>
              <g id="g758" transform="translate(-432.856 1110.006)">
                <path id="path760" d="M-1.155,66.131A411.755,411.755,0,0,0-1.369,1.77C-1.561-.58-5.251-.6-5.057,1.77a411.755,411.755,0,0,1,.214,64.361c-.177,2.367,3.512,2.356,3.689,0" transform="translate(-0.69 0.283)" fill="#f69d79"/>
              </g>
              <g id="g762" transform="translate(-446.189 1095.071)">
                <path id="path764" d="M-3.939,72.438C1.632,64.785-.343,52.6-.328,43.754c.022-14-.373-28-1.088-41.977-.122-2.361-3.81-2.376-3.689,0,.59,11.551.972,23.108,1.064,34.674.076,9.582,2.818,26.02-3.084,34.124-1.4,1.922,1.8,3.765,3.185,1.863" transform="translate(-0.594 0.356)" fill="#f69d79"/>
              </g>
              <g id="g766" transform="translate(-457.206 1109.204)">
                <path id="path768" d="M-2.173,53.5Q-1.088,27.64,0,1.779C.1-.6-3.593-.59-3.691,1.779Q-4.778,27.641-5.861,53.5c-.1,2.374,3.589,2.371,3.689,0" transform="translate(-0.516 0)" fill="#f69d79"/>
              </g>
              <g id="g770" transform="translate(-479.296 1087.572)">
                <path id="path772" d="M-.622,71.61c-.267-22.666-2.923-46.84.6-69.294C.339-.006-3.215-1.006-3.582,1.335c-3.582,22.841-1,47.224-.729,70.275.028,2.372,3.716,2.378,3.689,0" transform="translate(-0.222 0.338)" fill="#f69d79"/>
              </g>
              <g id="g774" transform="translate(-494.933 1117.052)">
                <path id="path776" d="M-1.119,40.835,0,1.78C.069-.594-3.62-.592-3.69,1.78L-4.807,40.835c-.068,2.376,3.62,2.372,3.689,0" transform="translate(-0.726 0.596)" fill="#f69d79"/>
              </g>
              <g id="g778" transform="translate(-386.96 970.155)">
                <path id="path780" d="M-41.214,84.259s17.593-31.169,21.676-44.6S-7.221,11.052-1.588,7.586s-4.766-13-14.731-3.466S-26.155,32.3-32.457,32.288s-8.089-3.466-8.757-9.1-12.407,7.368-12.407,7.368Z" transform="translate(-0.206 0.604)" fill="#e57e80"/>
              </g>
            </g>
          </g>
        </g>
      </g>
    </g>
  </g>
</svg>
