<svg xmlns="http://www.w3.org/2000/svg" width="70.542" height="84.985" viewBox="0 0 70.542 84.985">
    <g id="undraw_certificate_re_yadi" transform="translate(0.003 0)">
        <path id="Path_2139" data-name="Path 2139" d="M306.432,397.952a3.451,3.451,0,0,0,5.226.831l10.639,6.1-.4-6.361L311.859,393.7a3.47,3.47,0,0,0-5.427,4.248Z" transform="translate(-305.93 -357.305)" fill="#ffb8b8"/>
        <path id="Path_2140" data-name="Path 2140" d="M540.563,623.44c-3.156,4.417-3.043,11.807-2.162,19.894h14.921l.649-1.514.865,1.514h14.056s-1.081-20.543-3.027-21.192S540.563,623.44,540.563,623.44Z" transform="translate(-509.261 -558.35)" fill="#2f2e41"/>
        <circle id="Ellipse_78" data-name="Ellipse 78" cx="7.569" cy="7.569" r="7.569" transform="translate(36.492 3.806)" fill="#ffb8b8"/>
        <path id="Path_2141" data-name="Path 2141" d="M526.655,275.368l1.48,2.837,10.237,4.563-2.691,26.041-1.133,2.7.612,2.342-1.475,1.728c1.481,1.34,1.669,2.743.863,4.193l-4.714,1.08s-26.212,2.331-24-1.73c2.414-4.437,3.028-17.541-2.3-24.543-4.524-5.945-1.051-13.659-1.051-13.659l10.73-3.207,3.947-2.343Z" transform="translate(-477.124 -254.461)" fill="#3f3d56"/>
        <path id="Path_2142" data-name="Path 2142" d="M605.549,106.152a.417.417,0,0,1,.4-.238c-3.465-.207-7.115.2-10.013,2.106a15.117,15.117,0,0,1-2.129,1.35.229.229,0,0,0-.047.39l.084.066a.23.23,0,0,1-.075.4h0a.23.23,0,0,0-.058.413l.643.416a.229.229,0,0,1,0,.386,1.147,1.147,0,0,1-.171.087.23.23,0,0,0-.073.386,2.286,2.286,0,0,1,.622.91,5.861,5.861,0,0,1,.289,1.761,2.175,2.175,0,0,1,2.047-1.418,9,9,0,0,1,2.615.451,14.464,14.464,0,0,0,5.741.221c-.648,1.3-.1,2.853.449,4.2l1.781-.764c2.447-1.381.742,4.461-.172,5.263,1.868.647,6.756-6.539,5.183-9.264-.818-1.418-.237-3.247-1.845-4.592-.788-.83-2.362-.461-3.165-1.151-.316-.271.166-1-.269-1.156A12.669,12.669,0,0,0,605.549,106.152Z" transform="translate(-558.129 -105.865)" fill="#2f2e41"/>
        <path id="Path_2143" data-name="Path 2143" d="M400.676,300.308c-1.389,6.166-4.951,20.562-8.565,23.572a2.108,2.108,0,0,1-.8.475c-12.7,3.095-16.773-4.8-16.773-4.8s3.4-1.659,3.49-4.9l6.865,2.13,5.984-13.467.881-.821,0,0Z" transform="translate(-366.075 -276.326)" fill="#3f3d56"/>
        <path id="Path_2144" data-name="Path 2144" d="M764.2,641a3.451,3.451,0,0,0-.362-5.28l3.561-11.736-6.11,1.813-2.445,10.867A3.47,3.47,0,0,0,764.2,641Z" transform="translate(-702.52 -560.078)" fill="#ffb8b8"/>
        <path id="Path_2145" data-name="Path 2145" d="M767.354,330.044l2.822.657s11.666,22.7,8.855,27.023-6.255,18.643-6.255,18.643-5.094-1.013-7.04-3.608l3.564-16.982L765.624,341.5Z" transform="translate(-708.929 -302.394)" fill="#3f3d56"/>
        <path id="Path_2146" data-name="Path 2146" d="M345.51,323.706l.1-36.556a2.794,2.794,0,0,1,2.8-2.783l27.608.077a2.794,2.794,0,0,1,2.783,2.8l-.1,36.556a2.794,2.794,0,0,1-2.8,2.783l-27.608-.077a2.794,2.794,0,0,1-2.783-2.8Z" transform="translate(-340.631 -262.351)" fill="#e6e6e6"/>
        <path id="Path_2147" data-name="Path 2147" d="M362.928,328.276l.065-23.5a2.617,2.617,0,0,1,2.621-2.606l23.727.066a2.617,2.617,0,0,1,2.607,2.621l-.09,32.53a2.617,2.617,0,0,1-2.621,2.606l-14.7-.041A11.655,11.655,0,0,1,362.928,328.276Z" transform="translate(-355.9 -277.956)" fill="#fff"/>
        <path id="Path_2148" data-name="Path 2148" d="M415.645,370.088h-18.5a1.11,1.11,0,0,1,0-2.22h18.5a1.11,1.11,0,0,1,0,2.22Z" transform="translate(-384.923 -335.553)" fill="#6c63ff"/>
        <path id="Path_2149" data-name="Path 2149" d="M401.214,328.588h-4.07a1.11,1.11,0,0,1,0-2.22h4.07a1.11,1.11,0,0,1,0,2.22Z" transform="translate(-384.923 -299.171)" fill="#6c63ff"/>
        <path id="Path_2150" data-name="Path 2150" d="M415.645,411.588h-18.5a1.11,1.11,0,0,1,0-2.22h18.5a1.11,1.11,0,0,1,0,2.22Z" transform="translate(-384.923 -371.934)" fill="#6c63ff"/>
        <path id="Path_2151" data-name="Path 2151" d="M415.645,453.088h-18.5a1.11,1.11,0,0,1,0-2.22h18.5a1.11,1.11,0,0,1,0,2.22Z" transform="translate(-384.923 -408.316)" fill="#6c63ff"/>
        <circle id="Ellipse_79" data-name="Ellipse 79" cx="4.417" cy="4.417" r="4.417" transform="translate(24.808 49.426)" fill="#6c63ff"/>
        <path id="Path_2152" data-name="Path 2152" d="M525.955,528.366a.492.492,0,0,1-.393-.2l-1.2-1.607a.491.491,0,0,1,.786-.59l.788,1.051,2.025-3.037a.491.491,0,0,1,.818.545l-2.41,3.615a.492.492,0,0,1-.4.219Z" transform="translate(-497.333 -472.224)" fill="#fff"/>
        <circle id="Ellipse_80" data-name="Ellipse 80" cx="2.097" cy="2.097" r="2.097" transform="translate(17.709 9.313)" fill="#f2f2f2"/>
        <circle id="Ellipse_81" data-name="Ellipse 81" cx="2.097" cy="2.097" r="2.097" transform="translate(10.062 69.625)" fill="#f2f2f2"/>
        <circle id="Ellipse_82" data-name="Ellipse 82" cx="2.097" cy="2.097" r="2.097" transform="translate(58.288 17.453)" fill="#f2f2f2"/>
    </g>
</svg>
