<svg xmlns="http://www.w3.org/2000/svg" xmlns:xlink="http://www.w3.org/1999/xlink" width="2883" height="2218.455" viewBox="0 0 2883 2218.455">
  <defs>
    <linearGradient id="linear-gradient" x1="0.5" y1="0.943" x2="0.5" y2="0.015" gradientUnits="objectBoundingBox">
      <stop offset="0" stop-color="#d8eaf9"/>
      <stop offset="1" stop-color="#e9f3fb" stop-opacity="0"/>
    </linearGradient>
  </defs>
  <g id="Support" transform="translate(0 -0.545)">
    <g id="Background" transform="translate(814)">
      <path id="Path" d="M18.339,413.177c34.312-58.193,96.365-94.5,163.894-97.6,152.4-6.932,490.586-36.12,658.859-159.621,221.384-162.54,280.152-216.537,579.1-72.24s330.342-56.369,435.65,142.655-32.852,472.477-455,344.233S825.4,526.279,474.978,541.056C179.13,553.278-70.908,564.771,18.339,413.177Z" transform="translate(0.824 1614.643)" fill="#e9f3fb"/>
      <path id="Path-2" data-name="Path" d="M1221,315.79c-1.825,2.919-3.468,6.02-5.475,9.121-14.053,22.8-32.487,48.525-53.658,76.983-2.19,3.1-4.563,6.02-6.935,9.121-5.84,7.662-11.681,15.506-17.886,23.533a140.638,140.638,0,0,0-23.179,46.883,82.706,82.706,0,0,0-2.19,9.121c-5.475,24.992-5.293,51.079-2.92,76.8a3.555,3.555,0,0,0,.182,1.459c.182,2.554.548,5.108.73,7.662,0,.547.182,1.095.182,1.459,3.1,26.451,7.848,52.356,10.4,75.888.365,3.1.547,6.02.912,9.121,2.373,29.37.365,54.545-14.6,71.693a56.47,56.47,0,0,1-10.4,9.121c-12.046,8.391-29.2,13.682-53.293,15.324-30.479,2.007-54.753,6.385-74.1,12.587-3.1.912-6.023,2.007-8.943,3.1-29.019,11.128-45.81,26.816-56.578,45.606-1.643,2.919-3.285,6.02-4.745,9.121-9.673,21.526-13.141,45.971-17.886,71.145-.547,3.1-1.1,6.02-1.825,9.121-5.475,26.269-13.323,52.72-32.487,76.618-2.19,2.554-4.38,5.108-6.753,7.662-.365.547-.913.912-1.278,1.459a83.692,83.692,0,0,1-7.118,6.75c-20.259,18.242-49.278,34.3-91.8,46.7-31.574,9.121-61.688,13.682-90.342,14.229h-9.125c-58.221-.73-109.506-18.242-151.848-48.89q-4.654-3.284-9.308-7.115c-4.38-3.466-8.578-7.115-12.776-10.763-3.285-2.919-6.388-6.02-9.491-9.121-3.65-3.648-7.3-7.479-10.768-11.31-3.285-3.648-6.57-7.479-9.673-11.31a312.627,312.627,0,0,1-35.042-54.91c-1.46-2.919-2.92-6.02-4.38-9.121-.73-1.824-1.643-3.466-2.373-5.29-3.1-6.932-6.023-14.229-8.578-21.526a366.827,366.827,0,0,1-12.776-43.052c-.73-3.1-1.46-6.02-2.008-9.121a442.062,442.062,0,0,1-8.943-77.895c0-3.1-.182-6.02-.182-9.121a511.151,511.151,0,0,1,4.38-69.868,39.486,39.486,0,0,1,.73-4.561c.182-1.459.365-2.919.548-4.561a7.755,7.755,0,0,1,.365-2.007c.73-4.378,1.46-8.939,2.19-13.317,4.38-24.627,4.928-45.059,2.373-62.389-.548-3.1-1.1-6.2-1.825-9.121C333.642,410.833,1.657,556.59.015,347.9-2.723,13.879,372.517-72.772,627.665,58.573,739.726,116.219,787,139.934,827.331,150.7c15.7,4.2,30.3,6.385,47.087,7.844,2.373.182,4.745.365,7.3.547l9.125.73c12.228.73,25.734,1.459,41.612,2.372,2.92.182,6.023.365,9.125.547,35.589,2.007,82.312,5.108,148.928,12.587,2.92.365,6.023.73,9.125,1.095,9.856,1.095,19.894,2.372,30.662,3.648,71.726,8.939,105.673,27,112.973,55.457a50.053,50.053,0,0,1,1.46,9.121C1246.19,264.347,1237.247,287.88,1221,315.79Z" transform="translate(252.396 92.29)" fill="#e9f3fb"/>
      <g id="Group" transform="translate(866.92 243.351)">
        <path id="Path-3" data-name="Path" d="M1.349,0c15.7,4.2,30.3,6.385,47.087,7.844H4.452C-.111,7.844-1.206,2.372,1.349,0Z" transform="translate(211.639 0.182)" fill="#fff"/>
        <path id="Path-4" data-name="Path" d="M408.274,0a50.047,50.047,0,0,1,1.46,9.121c-10.038,0-20.076,0-30.114.182h-8.943c-21.171,0-42.342.182-63.513.182q-59.954.274-119.726.365h-9.125c-50.373.182-100.928.365-151.3.365H4.38c-5.84,0-5.84-9.121,0-9.121,31.209,0,62.236-.182,93.445-.182h9.125c27.741,0,55.483-.182,83.407-.182,22.084,0,44.167-.182,66.251-.182h9.125Z" transform="translate(220.654 84.827)" fill="#fff"/>
        <path id="Path-5" data-name="Path" d="M391.665,0c-1.825,2.919-3.468,6.02-5.475,9.121H4.38C-1.46,9.121-1.46,0,4.38,0Z" transform="translate(214.814 164.729)" fill="#fff"/>
        <path id="Path-6" data-name="Path" d="M251.878.365c25.186,0,50.19-.182,75.376-.365-2.19,3.1-4.563,6.02-6.935,9.121H307.361c-18.981,0-37.779.182-56.76.182h-6.57c-24.821,0-49.643.182-74.646.182h-9.125c-23.179,0-46.357.182-69.719.182H81.414c-24.091,0-48.365.182-72.456.182H4.4A4.207,4.207,0,0,1,.015,5.473,4.2,4.2,0,0,1,4.4.73C30.129.73,55.863.547,81.6.547h9.125c33.217,0,66.251-.182,99.468-.365C207.711.182,225.049,0,242.57,0A39.805,39.805,0,0,0,251.878.365Z" transform="translate(220.091 250.833)" fill="#fff"/>
        <path id="Path-7" data-name="Path" d="M279.1,0a82.708,82.708,0,0,0-2.19,9.121H4.426A4.108,4.108,0,0,1,.411,6.567a5.108,5.108,0,0,1,0-4.013A4.149,4.149,0,0,1,4.426.182H279.1Z" transform="translate(220.426 330.734)" fill="#fff"/>
        <path id="Path-8" data-name="Path" d="M494.648,9.3c-19.346,0-38.875.182-58.221.182H427.3c-15.331,0-30.479,0-45.81.182H367.074c-30.479,0-61.141.182-91.62.182h-9.125c-15.331,0-30.662,0-45.992.182h-8.76C151.53,10.216,91.3,10.4,31.257,10.4H4.428c-5.293,0-5.84-7.3-1.643-8.756a5.331,5.331,0,0,1,1.643-.365L217.781.73c16.243,0,32.669,0,48.913-.182h9.125C326.374.365,376.93.365,427.485.182h9.125C455.774.182,474.937,0,494.1,0a3.555,3.555,0,0,0,.182,1.459A37.1,37.1,0,0,0,494.648,9.3Z" transform="translate(0.5 416.473)" fill="#fff"/>
        <path id="Path-9" data-name="Path" d="M0,0V4.743c0,5.838,9.125,5.838,9.125,0V.73Z" transform="translate(267.376 8.574)" fill="#fff"/>
        <path id="Path-10" data-name="Path" d="M9.308,74.064v4.378c0,5.838-9.125,5.838-9.125,0v-4.2C.548,49.437.548,24.627,0,0,2.92.182,6.023.365,9.125.547,9.673,24.81,9.673,49.437,9.308,74.064Z" transform="translate(318.114 11.858)" fill="#fff"/>
        <path id="Path-11" data-name="Path" d="M9.856,60.017v.547c-.548,5.108-8.4,5.108-9.125,0v-.547C.365,39.951.183,19.884,0,0,2.92.365,6.023.73,9.125,1.095,9.308,20.614,9.673,40.316,9.856,60.017Z" transform="translate(476.167 24.81)" fill="#fff"/>
        <path id="Path-12" data-name="Path" d="M0,4.378c.73,29.735.913,59.47.365,89.205-.183,5.838,8.943,5.838,9.125,0,.548-29.735.365-59.47-.365-89.205C8.946-1.459-.18-1.459,0,4.378Z" transform="translate(238.355 87.928)" fill="#fff"/>
        <path id="Path-13" data-name="Path" d="M0,4.515,1.1,88.247c0,5.838,9.125,5.838,9.125,0L9.125,4.515C9.125-1.5,0-1.5,0,4.515Z" transform="translate(398.783 87.974)" fill="#fff"/>
        <path id="Path-14" data-name="Path" d="M.24,4.378C-.125,29.188-.125,54,.6,78.625c.183,5.838,9.308,5.838,9.125,0C9,53.815,9,29.005,9.365,4.378,9.548-1.459.422-1.459.24,4.378Z" transform="translate(590.909 90.665)" fill="#fff"/>
        <path id="Path-15" data-name="Path" d="M0,4.378c.73,29.735.913,59.47.365,89.205-.183,5.838,8.943,5.838,9.125,0,.548-29.735.365-59.47-.365-89.205C8.946-1.459-.18-1.459,0,4.378Z" transform="translate(301.32 169.107)" fill="#fff"/>
        <path id="Path-16" data-name="Path" d="M0,4.378,1.1,88.111c0,5.838,9.125,5.838,9.125,0L9.128,4.378C8.946-1.459-.18-1.459,0,4.378Z" transform="translate(461.746 169.107)" fill="#fff"/>
        <path id="Path-17" data-name="Path" d="M0,4.447c.73,29.735.913,59.47.365,89.205-.183,5.838,8.943,5.838,9.125,0,.548-29.735.365-59.47-.365-89.205C8.946-1.391-.18-1.573,0,4.447Z" transform="translate(220.104 253.865)" fill="#fff"/>
        <path id="Path-18" data-name="Path" d="M0,4.378,1.1,88.111c0,5.838,9.125,5.838,9.125,0L9.128,4.378C8.946-1.459-.18-1.459,0,4.378Z" transform="translate(380.53 253.934)" fill="#fff"/>
        <path id="Path-19" data-name="Path" d="M0,4.378c.73,29.735.913,59.47.365,89.205-.183,5.838,8.943,5.838,9.125,0,.548-29.735.365-59.47-.365-89.205C8.946-1.459-.18-1.459,0,4.378Z" transform="translate(266.279 339.308)" fill="#fff"/>
        <path id="Path-20" data-name="Path" d="M0,4.515,1.1,88.247c0,5.838,9.125,5.838,9.125,0L9.128,4.515C8.946-1.5-.18-1.5,0,4.515Z" transform="translate(426.705 339.354)" fill="#fff"/>
      </g>
      <g id="Group-2" data-name="Group" transform="translate(582.205 659.277)">
        <path id="Path-21" data-name="Path" d="M739.346,9.121H1.825C1.278,6.02.73,2.919,0,0H738.433c.182,2.554.548,5.108.73,7.662C739.164,8.209,739.346,8.756,739.346,9.121Z" transform="translate(40.7 2.189)" fill="#fff"/>
        <path id="Path-22" data-name="Path" d="M762.525,8.574c-23.361,0-46.722.182-70.084.182h-9.125c-14.783,0-29.567,0-44.35.182q-145.643.274-291.468.73H338.92c-25.186,0-50.373.182-75.559.182-24.639,0-49.1.182-73.734.182h-8.943c-16.973,0-33.947.182-51.1.182h-9.125c-18.433,0-36.684,0-55.118.182H56.213c-16.426,0-32.669,0-49.1.182a39.489,39.489,0,0,1,.73-4.561C5.475,7.662,1.643,7.3.548,3.831L0,1.642H9.49c29.932,0,59.863-.182,89.795-.182h30.479c49.825-.182,99.65-.182,149.293-.365h9.125Q378.251.821,468.319.73h8.213C526.9.547,577.46.365,627.833.365h8.578C678.023.182,719.818.182,761.43,0,761.977,2.554,762.16,5.473,762.525,8.574Z" transform="translate(28.837 87.928)" fill="#fff"/>
        <path id="Path-23" data-name="Path" d="M744.821,0a56.473,56.473,0,0,1-10.4,9.121H.183C.183,6.02,0,3.1,0,0Z" transform="translate(31.757 168.195)" fill="#fff"/>
        <g id="Group-3" data-name="Group" transform="translate(2.856 253.569)">
          <path id="Path-24" data-name="Path" d="M9.673.73C11.5,6.385,2.555,8.756.913,3.1.548,2.007.365,1.095,0,0H9.49C9.49.365,9.673.547,9.673.73Z" transform="translate(0.064 1.459)" fill="#fff"/>
          <path id="Path-25" data-name="Path" d="M462.662.182C485.84.182,509.019,0,532.2,0c-1.643,2.919-3.285,6.02-4.745,9.121-11.681,0-23.361,0-35.042.182h-9.125q-90.068.274-180.137.365h-9.125c-14.236,0-28.654,0-42.89.182h-7.3c-32.852,0-65.7.182-98.555.182h-9.125c-14.783,0-29.567,0-44.35.182H82.677c-20.259,0-40.7,0-60.958.182H2.008C1.278,7.3.548,4.378,0,1.277H20.624c20.806,0,41.612,0,62.236-.182h9.125C141.81.912,191.452.912,241.278.73H250.4C310.266.547,370.312.365,430.175.365h8.943C446.783.182,454.814.182,462.662.182Z" transform="translate(38.209 0.182)" fill="#fff"/>
        </g>
        <path id="Path-26" data-name="Path" d="M494.783,0c-.548,3.1-1.1,6.02-1.825,9.121H2.373a3.666,3.666,0,0,1-.73-1.459A57.409,57.409,0,0,1,0,0Z" transform="translate(56.03 334.018)" fill="#fff"/>
        <g id="Group-4" data-name="Group" transform="translate(125.932 418.781)">
          <path id="Path-27" data-name="Path" d="M389.658,0c-2.19,2.554-4.38,5.108-6.753,7.662a3.666,3.666,0,0,1,.73,1.459h-8.76q-91.711.274-183.422.365H165.536c-19.346,0-38.875,0-58.221.182h-2.008c-24.639,0-49.46.182-74.281.182H9.49C6.205,6.932,3.1,3.831,0,.73H1.643C35.042.547,68.624.547,102.023.547h9.125C160.973.365,210.8.365,260.624.182h9.125C305.521.182,341.293,0,377.247,0Z" transform="translate(0.913 0.976)" fill="#fff"/>
          <path id="Path-28" data-name="Path" d="M170.1,9.121C113.338,9.3,56.76,9.486,0,9.486c1.643-3.1,3.65-6.02,5.658-9.121Q87.787.091,169.916,0C175.939,0,175.939,9.121,170.1,9.121Z" transform="translate(585.125 0.064)" fill="#fff"/>
        </g>
        <path id="Path-29" data-name="Path" d="M99.468,9.121H5.293A78.336,78.336,0,0,1,0,0H99.65C105.308,0,105.308,9.121,99.468,9.121Z" transform="translate(710.875 499.841)" fill="#fff"/>
        <path id="Path-30" data-name="Path" d="M81.034,8.209a4.484,4.484,0,0,1-2.738.912c-21.536,0-43.072.182-64.608.182C9.125,6.2,4.563,3.284,0,.182,26.1.182,52.2,0,78.3,0a3.894,3.894,0,0,1,2.19.547C83.224,2.007,83.407,6.2,81.034,8.209Z" transform="translate(802.859 584.668)" fill="#fff"/>
        <g id="Group-5" data-name="Group" transform="translate(25.551)">
          <path id="Path-31" data-name="Path" d="M7.3,1.853H0C2.008-.336,6.023-.884,7.3,1.853Z" transform="translate(0 0.336)" fill="#fff"/>
          <path id="Path-32" data-name="Path" d="M7.848,6.385C5.475,8.027,1.643,7.662.548,4.2L0,2.007H8.578A7.755,7.755,0,0,1,8.943,0c.183.547.365,1.277.548,1.824v.182A4.4,4.4,0,0,1,7.848,6.385Z" transform="translate(3.65 87.381)" fill="#fff"/>
        </g>
        <path id="Path-33" data-name="Path" d="M0,4.378c.73,29.735.913,59.47.365,89.205-.183,5.838,8.943,5.838,9.125,0,.548-29.735.365-59.47-.365-89.205C8.946-1.459-.18-1.459,0,4.378Z" transform="translate(149.108 4.561)" fill="#fff"/>
        <path id="Path-34" data-name="Path" d="M0,4.378,1.1,88.111c0,5.838,9.125,5.838,9.125,0L9.128,4.378C8.946-1.459-.18-1.459,0,4.378Z" transform="translate(307.161 4.561)" fill="#fff"/>
        <path id="Path-35" data-name="Path" d="M.24,4.378C-.125,29.188-.125,54,.6,78.625c.183,5.838,9.308,5.838,9.125,0C9,53.815,9,29.005,9.365,4.378,9.548-1.459.422-1.459.24,4.378Z" transform="translate(496.186 7.297)" fill="#fff"/>
        <path id="Path-36" data-name="Path" d="M.067,5.779a388.168,388.168,0,0,1,4.928,78.26c-.183,5.838,8.943,5.838,9.125,0A387.492,387.492,0,0,0,8.827,3.225C7.914-2.43-.846-.058.067,5.779Z" transform="translate(651.675 1.882)" fill="#fff"/>
        <path id="Path-37" data-name="Path" d="M.065,5.74A302.709,302.709,0,0,1,3.35,52.075c0,12.952-2.19,26.451,1.825,39.039C7,96.769,15.761,94.4,13.936,88.743c-4.38-13.682-1.278-29.37-1.46-43.6A319.942,319.942,0,0,0,8.826,3.368C8.1-2.469-.847-.1.065,5.74Z" transform="translate(84.984 90.397)" fill="#fff"/>
        <path id="Path-38" data-name="Path" d="M0,4.447c.73,29.735.913,59.47.365,89.205-.183,5.838,8.943,5.838,9.125,0,.548-29.735.365-59.47-.365-89.205C8.946-1.391-.18-1.573,0,4.447Z" transform="translate(209.701 94.609)" fill="#fff"/>
        <path id="Path-39" data-name="Path" d="M0,4.378,1.1,88.111c0,5.838,9.125,5.838,9.125,0L9.125,4.378C9.125-1.459,0-1.459,0,4.378Z" transform="translate(367.574 94.678)" fill="#fff"/>
        <path id="Path-40" data-name="Path" d="M.24,4.515C-.125,29.325-.125,54.134.6,78.761c.183,5.838,9.308,5.838,9.125,0C9,53.952,9,29.142,9.365,4.515,9.365-1.5.24-1.5.24,4.515Z" transform="translate(556.779 97.277)" fill="#fff"/>
        <path id="Path-41" data-name="Path" d="M.095,5.728a388.168,388.168,0,0,1,4.928,78.26c-.183,5.838,8.943,5.838,9.125,0A387.492,387.492,0,0,0,8.855,3.174C7.76-2.481-1,.073.095,5.728Z" transform="translate(712.24 91.869)" fill="#fff"/>
        <g id="Group-6" data-name="Group" transform="translate(0 166.006)">
          <path id="Path-42" data-name="Path" d="M5.475,1.391H0C1.825.114,4.2.114,5.475,1.391Z" transform="translate(0.73 0.798)" fill="#fff"/>
          <path id="Path-43" data-name="Path" d="M.913,3.1C.548,2.007.365,1.095,0,0H9.49c0,.182.183.547.183.73C11.5,6.2,2.555,8.574.913,3.1Z" transform="translate(2.92 89.205)" fill="#fff"/>
        </g>
        <path id="Path-44" data-name="Path" d="M0,4.378c.73,29.735.913,59.47.365,89.205-.183,5.838,8.943,5.838,9.125,0,.548-29.735.365-59.47-.365-89.205C9.125-1.459,0-1.459,0,4.378Z" transform="translate(123.194 171.478)" fill="#fff"/>
        <path id="Path-45" data-name="Path" d="M0,4.378,1.1,88.111c0,5.838,9.125,5.838,9.125,0L9.128,4.378C8.946-1.459-.18-1.459,0,4.378Z" transform="translate(281.244 171.478)" fill="#fff"/>
        <path id="Path-46" data-name="Path" d="M.24,4.515C-.125,29.325-.125,54.134.6,78.761c.183,5.838,9.308,5.838,9.125,0C9,53.952,9,29.142,9.365,4.515,9.548-1.5.422-1.5.24,4.515Z" transform="translate(470.27 174.078)" fill="#fff"/>
        <path id="Path-47" data-name="Path" d="M13.025,36.335c-3.1.912-6.023,2.007-8.943,3.1-.73-10.4-2.008-20.614-3.65-31.012A14.075,14.075,0,0,1,.067,5.687C-.846.032,7.914-2.522,8.827,3.316c.365,1.824.548,3.466.913,5.29C11.2,17.727,12.295,27.031,13.025,36.335Z" transform="translate(625.759 168.71)" fill="#fff"/>
        <path id="Path-48" data-name="Path" d="M13.506,92.672c-1.643,2.189-5.658,2.554-7.483,0a3.666,3.666,0,0,1-.73-1.459A57.409,57.409,0,0,1,3.65,83.55c-1.278-8.756-.365-17.878-.183-26.816V52.174A305.54,305.54,0,0,0,1.1,13.5C.73,10.946.548,8.392,0,5.838V4.379C.548-.364,8.03-2.006,8.76,3.284a7.9,7.9,0,0,0,.183.912c.365,3.1.913,6.02,1.278,9.121a302.085,302.085,0,0,1,2.19,31.559c.183,10.581-1.46,22.073-.548,33.019a46.226,46.226,0,0,0,.73,5.29,44.856,44.856,0,0,0,1.278,5.29C14.6,90.483,14.236,91.76,13.506,92.672Z" transform="translate(52.38 250.467)" fill="#fff"/>
        <path id="Path-49" data-name="Path" d="M0,4.378c.73,29.735.913,59.47.365,89.205-.183,5.838,8.943,5.838,9.125,0,.548-29.735.365-59.47-.365-89.205C8.946-1.459-.18-1.459,0,4.378Z" transform="translate(177.214 254.846)" fill="#fff"/>
        <path id="Path-50" data-name="Path" d="M0,4.378,1.1,88.111c0,5.838,9.125,5.838,9.125,0L9.125,4.378C9.125-1.459,0-1.459,0,4.378Z" transform="translate(335.087 254.846)" fill="#fff"/>
        <path id="Path-51" data-name="Path" d="M.24,4.378C-.125,29.188-.125,54,.6,78.625c.183,5.838,9.308,5.838,9.125,0C9,53.815,9,29.005,9.365,4.378c0-5.838-9.125-5.838-9.125,0Z" transform="translate(524.293 257.582)" fill="#fff"/>
        <path id="Path-52" data-name="Path" d="M2.985,70.448c.183-6.2.548-12.4.548-18.425A303.467,303.467,0,0,0,1.525,15.538C1.16,12.437.8,9.518.248,6.417a1.1,1.1,0,0,0-.183-.73C-.847.032,8.1-2.522,8.826,3.316A20.092,20.092,0,0,1,9.191,6.6c.365,3.1.913,6.02,1.1,9.121,1.1,9.851,1.825,19.519,2.008,29.37.183,11.858-2.008,24.81,0,36.85C9.373,78.11,6.088,74.279,2.985,70.448Z" transform="translate(103.235 327.601)" fill="#fff"/>
        <path id="Path-53" data-name="Path" d="M0,4.378c.73,29.735.913,59.47.365,89.205-.183,5.838,8.943,5.838,9.125,0,.548-29.735.365-59.47-.365-89.205C8.946-1.459-.18-1.459,0,4.378Z" transform="translate(228.134 331.646)" fill="#fff"/>
        <path id="Path-54" data-name="Path" d="M0,4.515,1.1,88.247c0,5.838,9.125,5.838,9.125,0L9.128,4.515C8.946-1.5-.18-1.5,0,4.515Z" transform="translate(386.187 331.692)" fill="#fff"/>
        <path id="Path-55" data-name="Path" d="M9.128,23.715c-.183,5.838-9.308,5.838-9.125,0,.183-5.29.365-10.581.365-15.688C3.288,5.29,6.208,2.554,9.311,0,9.493,7.844,9.493,15.871,9.128,23.715Z" transform="translate(735.693 389.292)" fill="#fff"/>
        <path id="Path-56" data-name="Path" d="M9.493,24.627Q4.839,21.344.185,17.513C.185,13.864,0,10.4,0,6.75V4.378c-.183-5.838,8.943-5.838,9.125,0V6.75C9.311,12.587,9.311,18.607,9.493,24.627Z" transform="translate(148.743 423.041)" fill="#fff"/>
        <path id="Path-57" data-name="Path" d="M10.038,73.334H.913C.548,50.9.365,28.458,0,6.2V4.378c0-5.838,9.125-5.838,9.125,0V6.2C9.308,28.458,9.673,50.9,10.038,73.334Z" transform="translate(309.171 423.223)" fill="#fff"/>
        <path id="Path-58" data-name="Path" d="M7.118,3.106A83.69,83.69,0,0,1,0,9.856V4.383A2.7,2.7,0,0,1,.183,3.106c1.1-3.648,6.023-4.013,8.03-1.459a3.666,3.666,0,0,1,.73,1.459Z" transform="translate(501.354 425.772)" fill="#fff"/>
        <path id="Path-59" data-name="Path" d="M12.66,30.315C8.827,26.3,5.359,22.288,2.074,18.457L.432,7.512C.249,6.964.249,6.235.067,5.687-.846.032,7.914-2.522,8.827,3.316c.183,1.459.548,2.736.73,4.2C10.835,14.991,11.93,22.653,12.66,30.315Z" transform="translate(721.941 501.633)" fill="#fff"/>
        <path id="Path-60" data-name="Path" d="M1.643.912h0Z" transform="translate(695.544 759.247)" fill="#fff"/>
      </g>
      <g id="Group-7" data-name="Group" transform="translate(1279.392 727.871)">
        <path id="Path-61" data-name="Path" d="M630.314,125.595a210.345,210.345,0,0,1-6.388,31.924c-.913,3.1-1.643,6.02-2.738,9.121-7.483,24.08-18.068,47.43-27.924,70.963-1.1,2.736-2.19,5.473-3.468,8.209-.182.365-.182.547-.365.912-10.221,25.174-19.346,50.9-27.011,76.8-.913,3.1-1.825,6.02-2.555,9.121-6.57,23.35-12.228,46.883-16.608,70.78-.547,3.1-1.1,6.02-1.643,9.121-4.563,25.539-7.848,51.079-9.856,76.983-.182,3.1-.547,6.02-.73,9.121-1.643,23.533-2.19,47.065-1.825,70.6,0,3.1.182,6.02.182,9.121.183,6.2.365,12.587.73,18.79v.547c.913,19.337,2.555,38.491,5.11,57.646.365,3.1.73,6.02,1.1,9.121,0,.547.182,1.095.182,1.642,2.008,14.959,4.563,30.1,7.483,44.876l4.928,24.08c.547,3.1,1.278,6.02,1.825,9.121,4.2,22.621,7.118,45.424,4.015,68.044a73.807,73.807,0,0,1-1.643,8.756,85.157,85.157,0,0,1-2.555,9.121c-8.76,27.181-28.471,51.443-56.03,56.734-18.251,3.648-37.049-1.277-55.118-6.2-43.985-12.04-90.707-26.451-129.217-49.984-4.745-2.919-9.49-5.838-13.871-9.121h-.183c-21.719-15.506-39.787-34.3-52.745-58.011a155.573,155.573,0,0,1-8.76-19.519c-1.1-2.919-2.19-6.02-3.285-9.121-7.3-22.438-11.316-46.336-16.243-69.868-.548-3.1-1.278-6.02-2.008-9.121-5.293-23.533-11.863-46.518-24.639-66.95-2.373-3.831-4.928-7.3-7.483-10.763-2.373-3.1-4.928-6.2-7.483-9.121-1.1-1.277-2.373-2.736-3.65-4.013-15.7-16.6-34.859-30.282-54.57-43.417-4.563-3.1-9.125-6.02-13.688-9.121-6.57-4.378-13.141-8.574-19.529-12.952-4.015-2.736-7.848-5.473-11.863-8.391-3.285-2.372-6.57-4.743-9.673-7.3a287.787,287.787,0,0,1-27.194-24.262c-3.833-4.013-7.3-8.027-10.586-11.858-2.92-3.648-5.658-7.3-8.03-10.945a78.336,78.336,0,0,1-5.293-9.121c-13.506-25.9-11.681-49.619.365-71.51,1.643-3.1,3.65-6.02,5.658-9.121A149.647,149.647,0,0,1,34.6,325.166c2.92-2.736,5.84-5.473,8.943-8.027,29.567-25.174,70.814-47.795,113.521-68.591a34.039,34.039,0,0,0,3.65-1.824c1.643-.73,3.285-1.642,4.928-2.372,4.745-2.189,9.49-4.561,14.236-6.75,22.631-10.581,45.08-20.8,66.068-30.465,3.1-1.459,6.023-2.919,9.125-4.2,25.916-12.222,48.73-24.08,65.521-35.39a152.286,152.286,0,0,0,12.228-9.121,10.431,10.431,0,0,0,1.46-1.277c25.734-22.621,46.357-50.167,68.624-76.253,2.555-3.1,5.293-6.2,7.848-9.121a353.413,353.413,0,0,1,30.662-31.194C481.2,5.742,541.8-15.054,586.512,13.222c20.624,13.135,33.764,34.661,39.97,58.376.73,2.919,1.46,6.02,2.008,9.121A132.643,132.643,0,0,1,630.314,125.595Z" transform="translate(4.089 3.56)" fill="#e9f3fb"/>
        <path id="Shape" d="M441.858,887.837c-41.978-11.492-90.16-25.9-130.129-50.349-4.563-2.737-8.943-5.656-13.141-8.574l-1.1-.729c-23.909-16.966-41.43-36.485-53.841-59.288a181.5,181.5,0,0,1-8.942-19.884q-1.643-4.378-3.285-9.3c-5.841-18.059-9.673-37.031-13.324-55.456-.913-4.926-2.008-9.851-2.92-14.776-.548-3.1-1.278-6.02-2.008-9.122-4.563-20.614-10.95-44.694-24.091-65.855a122.333,122.333,0,0,0-7.3-10.58c-2.372-3.1-4.745-6.02-7.3-8.939-1.1-1.277-2.373-2.554-3.65-3.831-14.783-15.506-32.3-28.458-54.023-42.87-3.468-2.372-6.935-4.56-10.4-6.932l-3.286-2.189c-5.475-3.467-12.41-8.21-19.528-12.953-4.38-2.919-8.213-5.655-11.863-8.391s-6.753-5.108-9.856-7.48A271.827,271.827,0,0,1,34.313,465.71c-4.015-4.2-7.483-8.21-10.768-12.223a110.226,110.226,0,0,1-8.213-11.31c-2.007-3.1-3.832-6.385-5.475-9.486-13.324-25.357-13.141-50.531.547-74.976a81.271,81.271,0,0,1,6.023-9.486A142.952,142.952,0,0,1,35.956,325.79c2.92-2.736,6.023-5.473,9.126-8.209,25.551-21.709,60.775-43.052,114.25-69.139.913-.365,1.825-.912,2.738-1.277l1.1-.547c1.643-.729,3.285-1.642,4.928-2.372,4.746-2.189,9.491-4.56,14.236-6.749,11.863-5.473,23.543-10.946,35.042-16.236,10.768-4.926,20.989-9.669,30.844-14.229,2.921-1.277,5.84-2.736,8.578-4.013l.365-.183c20.624-9.851,46.723-22.621,65.156-35.025,4.38-2.919,8.4-6.02,12.046-8.939.548-.364.913-.912,1.461-1.277,19.528-17.148,36.684-37.761,53.11-57.646,4.928-6.02,10.038-12.222,15.148-18.059,2.555-3.1,5.293-6.2,7.848-9.121a338.214,338.214,0,0,1,31.027-31.377c39.057-34.3,102.57-57.464,149.476-27.729,20.076,12.77,34.494,33.749,41.612,60.565a79.661,79.661,0,0,1,2.19,9.486,149.008,149.008,0,0,1,1.46,45.971,232.631,232.631,0,0,1-6.57,32.471l-2.738,9.3c-6.206,19.884-14.6,39.4-22.63,58.376-1.825,4.195-3.65,8.573-5.476,12.769l-2.738,6.567-.913,2.007c0,.182-.183.365-.183.547a789.47,789.47,0,0,0-26.829,76.435c-.912,3.1-1.824,6.02-2.555,9.121-6.57,23.168-12.046,46.883-16.608,70.415-.548,3.1-1.1,6.02-1.643,9.121-4.563,25.357-7.848,51.079-9.856,76.618-.183,3.1-.547,6.02-.73,9.121-1.643,23.35-2.191,47.065-1.825,70.415,0,3.1.183,6.02.183,9.121.183,6.02.365,12.222.73,18.607v.73c.913,18.972,2.555,38.309,4.927,57.281.365,3.1.73,6.02,1.1,9.121,0,.548.183,1.1.183,1.46,2.007,14.776,4.562,29.918,7.483,44.876.913,4.379,1.825,8.939,2.738,13.5.73,3.466,1.46,7.115,2.19,10.763.548,3.1,1.278,6.02,1.825,9.121,3.833,20.615,7.3,45.058,4.016,69.322A73.124,73.124,0,0,1,560.123,826c-.73,3.1-1.643,6.2-2.555,9.486-10.038,31.377-32.669,54-58.95,59.287-4.563.365-9.308.73-14.053.73C469.781,895.5,455.18,891.486,441.858,887.837Z" transform="translate(0.546 0.017)" fill="#fff"/>
      </g>
      <g id="Group-8" data-name="Group" transform="translate(1351.667 802.664)">
        <path id="Path-62" data-name="Path" d="M223.757,0c.73,2.919,1.46,6.02,2.008,9.121H0C2.555,6.02,5.293,2.919,7.848,0Z" transform="translate(334.903 0.363)" fill="#fff"/>
        <path id="Path-63" data-name="Path" d="M154.586.365C204.228.182,253.871.182,303.331,0c-.913,3.1-1.643,6.02-2.738,9.121-29.019,0-58.038.182-87.057.182h-8.578c-25.186,0-50.373.182-75.559.182-24.639,0-49.1.182-73.734.182H46.722c-15.513,0-31.209,0-46.722.182A152.288,152.288,0,0,0,12.228.73C56.578.547,100.928.547,145.1.365Z" transform="translate(252.227 86.285)" fill="#fff"/>
        <path id="Path-64" data-name="Path" d="M432.182,0c-1.1,2.736-2.19,5.473-3.468,8.209-.183.365-.183.547-.365.912H0c1.643-.73,3.285-1.642,4.928-2.372C9.673,4.561,14.418,2.189,19.163,0Z" transform="translate(92.896 166.186)" fill="#fff"/>
        <path id="Path-65" data-name="Path" d="M380.532.365C418.312.182,456.091.182,493.871,0c-.913,3.1-1.825,6.02-2.555,9.121-19.163,0-38.509.182-57.673.182h-9.125c-14.236,0-28.471,0-42.89.182h-7.3c-32.852,0-65.7.182-98.555.182h-9.125c-14.783,0-29.567,0-44.35.182h-9.125c-20.259,0-40.7.182-60.958.182h-9.125c-46.175.182-92.35.182-138.707.365-5.84,0-5.84-9.121,0-9.121,29.384,0,58.586-.182,87.97-.182h9.49c13.323,0,26.829,0,40.152-.182h8.943c20.806,0,41.43-.182,62.236-.182H222.3C272.122.547,321.947.547,371.589.365,374.327.547,377.43.365,380.532.365Z" transform="translate(0.546 252.108)" fill="#fff"/>
        <path id="Path-66" data-name="Path" d="M449.338,2.189c0,2.372,0,4.743.182,6.932H4.38C-1.46,9.121-1.46,0,4.38,0H449.886A2.522,2.522,0,0,0,449.338,2.189Z" transform="translate(26.462 332.009)" fill="#fff"/>
        <path id="Path-67" data-name="Path" d="M327.092.365C372.537.182,417.8.182,463.244,0c-.183,3.1-.548,6.02-.73,9.121-18.251,0-36.684,0-54.935.182H381.663c-19.346,0-38.875.182-58.221.182h-2.008c-24.639,0-49.46.182-74.1.182H238.21c-38.875.182-77.749.182-116.806.365h-9.125c-32.852.182-65.7.182-98.555.182H4.415c-4.928,0-5.658-6.2-2.555-8.391a5.277,5.277,0,0,1,2.555-.73c35.954,0,72.091-.182,108.046-.182h7.483c26.464,0,53.11-.182,79.574-.182h18.251c33.4-.182,66.981-.182,100.38-.182C320.887.547,323.99.365,327.092.365Z" transform="translate(0.328 418.113)" fill="#fff"/>
        <path id="Path-68" data-name="Path" d="M355.529,0c0,3.1.183,6.02.183,9.121H7.483C5.11,6.02,2.555,2.919,0,0Z" transform="translate(105.489 498.015)" fill="#fff"/>
        <path id="Path-69" data-name="Path" d="M327.057,6.2a4.48,4.48,0,0,1-.913,2.736h-7.3c-24.821,0-49.46.182-74.281.182h-9.125c-23.179,0-46.357.182-69.536.182h-9.125c-24.091,0-48.365.182-72.639.182H75.011c-24.274,0-48.73.182-73,.182C1.46,6.567.73,3.648,0,.547H72.821c27.924,0,56.03-.182,83.954-.182H165.9C216.456.182,267.194.182,317.749,0h9.125C326.875,1.824,326.875,4.013,327.057,6.2Z" transform="translate(144.911 584.301)" fill="#fff"/>
        <path id="Path-70" data-name="Path" d="M317.567,0c.548,3.1,1.278,6.02,1.825,9.121H3.285C2.19,6.2,1.1,3.1,0,0Z" transform="translate(163.162 663.838)" fill="#fff"/>
        <path id="Path-71" data-name="Path" d="M208.791.182c16.061,0,32.122,0,48.183-.182a85.151,85.151,0,0,1-2.555,9.121c-15.148,0-30.3,0-45.445.182h-9.125c-15.331,0-30.479,0-45.81.182-35.407.182-70.814.182-106.221.182H13.871C9.125,6.75,4.38,3.831,0,.547c12.958,0,25.916,0,38.692-.182h9.125C98.373.182,148.928.182,199.483,0,202.586.182,205.688.182,208.791.182Z" transform="translate(227.953 749.76)" fill="#fff"/>
        <path id="Path-72" data-name="Path" d="M0,4.378,1.1,88.111c0,5.838,9.125,5.838,9.125,0L9.125,4.378C9.125-1.459,0-1.459,0,4.378Z" transform="translate(396.592 2.735)" fill="#fff"/>
        <path id="Path-73" data-name="Path" d="M2.276,48.16c-.365-1.459-.73-2.736-1.1-4.2a77.69,77.69,0,0,1-1.1-9.121C-.279,26.269.634,17.7.634,9.121V4.2C3.736,2.736,6.657,1.277,9.759,0V2.007C9.942,12.587,8.3,23.9,9.212,34.661a50.049,50.049,0,0,0,1.46,9.121c.183.547.365,1.277.548,1.824C12.862,51.261,4.1,53.633,2.276,48.16Z" transform="translate(177.494 131.526)" fill="#fff"/>
        <path id="Path-74" data-name="Path" d="M0,4.515C.733,34.25.915,63.985.368,93.72c-.183,5.838,8.943,5.838,9.125,0,.548-29.735.365-59.47-.365-89.205C8.946-1.5-.18-1.5,0,4.515Z" transform="translate(299.311 92.715)" fill="#fff"/>
        <path id="Path-75" data-name="Path" d="M0,4.447,1.1,88.179c0,5.838,9.125,5.838,9.125,0L9.125,4.447c0-5.838-9.125-6.02-9.125,0Z" transform="translate(457.185 92.783)" fill="#fff"/>
        <path id="Path-76" data-name="Path" d="M4.563,83.55c-.365-1.095-.548-2.007-.913-3.1-2.738-11.675-.913-23.9-.913-35.937A298.983,298.983,0,0,0,.183,4.2C.183,3.648,0,3.1,0,2.372H4.015C5.658,1.642,7.3.73,8.943,0c.183.73.183,1.642.365,2.372,1.46,11.675,2.373,23.168,2.738,35.025.183,14.047-2.738,29.37,1.278,42.87,0,.182.183.547.183.73C14.966,86.651,6.205,89.023,4.563,83.55Z" transform="translate(88.881 172.936)" fill="#fff"/>
        <path id="Path-77" data-name="Path" d="M0,4.515C.733,34.25.915,63.985.368,93.72c-.183,5.838,8.943,5.838,9.125,0,.548-29.735.365-59.47-.365-89.205C8.946-1.5-.18-1.5,0,4.515Z" transform="translate(212.802 169.515)" fill="#fff"/>
        <path id="Path-78" data-name="Path" d="M0,4.447,1.1,88.179c0,5.838,9.125,5.838,9.125,0L9.128,4.447C8.946-1.391-.18-1.573,0,4.447Z" transform="translate(370.855 169.584)" fill="#fff"/>
        <path id="Path-79" data-name="Path" d="M.065,5.687A302.709,302.709,0,0,1,3.35,52.023c0,12.952-2.19,26.451,1.825,39.039C7,96.717,15.761,94.345,13.936,88.69c-4.38-13.682-1.278-29.37-1.46-43.6A319.942,319.942,0,0,0,8.826,3.316C8.1-2.522-.847.032.065,5.687Z" transform="translate(142.108 248.792)" fill="#fff"/>
        <path id="Path-80" data-name="Path" d="M0,4.378c.73,29.735.913,59.47.365,89.205-.183,5.838,8.943,5.838,9.125,0,.548-29.735.365-59.47-.365-89.205C8.946-1.459-.18-1.459,0,4.378Z" transform="translate(266.825 253.02)" fill="#fff"/>
        <path id="Path-81" data-name="Path" d="M0,4.378,1.1,88.111c0,5.838,9.125,5.838,9.125,0L9.125,4.378C9.125-1.459,0-1.459,0,4.378Z" transform="translate(424.698 253.02)" fill="#fff"/>
        <path id="Path-82" data-name="Path" d="M.043,5.687A302.709,302.709,0,0,1,3.328,52.023c0,12.952-2.19,26.451,1.825,39.039,1.825,5.655,10.586,3.284,8.76-2.372-4.38-13.682-1.278-29.37-1.46-43.6A319.942,319.942,0,0,0,8.8,3.316C8.074-2.522-.687.032.043,5.687Z" transform="translate(193.05 325.592)" fill="#fff"/>
        <path id="Path-83" data-name="Path" d="M0,4.378c.73,29.735.913,59.47.365,89.205-.183,5.838,8.943,5.838,9.125,0,.548-29.735.365-59.47-.365-89.205C8.946-1.459-.18-1.459,0,4.378Z" transform="translate(317.745 329.82)" fill="#fff"/>
        <path id="Path-84" data-name="Path" d="M.065,5.687A302.877,302.877,0,0,1,3.533,52.023c0,12.952-2.19,26.451,1.825,39.039,1.825,5.655,10.586,3.1,8.76-2.372-4.38-13.682-1.278-29.37-1.46-43.6A319.942,319.942,0,0,0,9.008,3.316C8.1-2.522-.847.032.065,5.687Z" transform="translate(111.629 416.987)" fill="#fff"/>
        <path id="Path-85" data-name="Path" d="M0,4.378c.73,29.735.913,59.47.365,89.205-.183,5.838,8.943,5.838,9.125,0,.548-29.735.365-59.47-.365-89.205C9.125-1.459,0-1.459,0,4.378Z" transform="translate(238.173 421.215)" fill="#fff"/>
        <path id="Path-86" data-name="Path" d="M0,4.378,1.1,88.111c0,5.838,9.125,5.838,9.125,0L9.125,4.378C9.125-1.459,0-1.459,0,4.378Z" transform="translate(398.599 421.215)" fill="#fff"/>
        <path id="Path-87" data-name="Path" d="M.067,5.74A302.877,302.877,0,0,1,3.534,52.075c0,12.952-2.19,26.451,1.825,39.039,1.825,5.655,10.586,3.1,8.76-2.372-4.38-13.682-1.278-29.37-1.46-43.6A319.942,319.942,0,0,0,9.009,3.368C7.914-2.469-.846-.1.067,5.74Z" transform="translate(174.594 498.113)" fill="#fff"/>
        <path id="Path-88" data-name="Path" d="M0,4.447c.73,29.735.913,59.47.365,89.205-.183,5.838,8.943,5.838,9.125,0,.548-29.735.365-59.47-.365-89.205C8.946-1.391-.18-1.573,0,4.447Z" transform="translate(301.137 502.324)" fill="#fff"/>
        <path id="Path-89" data-name="Path" d="M10.038,64.031a4.48,4.48,0,0,1-.913,2.736,4.327,4.327,0,0,1-2.738,1.642A4.462,4.462,0,0,1,.913,64.031c0-2.189,0-4.2-.183-6.385C.548,38.491.183,19.154,0,0,.913,19.337,2.555,38.491,5.11,57.646h4.928A37.279,37.279,0,0,0,10.038,64.031Z" transform="translate(461.93 526.473)" fill="#fff"/>
        <path id="Path-90" data-name="Path" d="M0,4.378c.73,29.735.913,59.47.365,89.205-.183,5.838,8.943,5.838,9.125,0,.548-29.735.365-59.47-.365-89.205C8.946-1.459-.18-1.459,0,4.378Z" transform="translate(219.92 587.038)" fill="#fff"/>
        <path id="Path-91" data-name="Path" d="M0,4.378,1.1,88.111c0,5.838,9.125,5.838,9.125,0L9.125,4.378C9.125-1.459,0-1.459,0,4.378Z" transform="translate(380.348 587.038)" fill="#fff"/>
        <path id="Path-92" data-name="Path" d="M0,4.378c.73,29.735.913,59.47.365,89.205-.183,5.838,8.943,5.838,9.125,0,.548-29.735.365-59.47-.365-89.205C8.946-1.459-.18-1.459,0,4.378Z" transform="translate(266.095 672.594)" fill="#fff"/>
        <path id="Path-93" data-name="Path" d="M0,4.378,1.1,88.111c0,5.838,9.125,5.838,9.125,0L9.125,4.378C9.125-1.459,0-1.459,0,4.378Z" transform="translate(426.523 672.594)" fill="#fff"/>
      </g>
      <g id="Group-9" data-name="Group" transform="translate(153.308)">
        <path id="Shape-2" data-name="Shape" d="M0,0H937.186V636.659H382.722L0,662.927Z" transform="translate(0.183 33.929)" fill="#fff"/>
        <g id="Group-10" data-name="Group" transform="translate(9.125 41.957)" opacity="0.31">
          <path id="Path-94" data-name="Path" d="M377.977,627.72H928.243V0H0V653.442Z" transform="translate(0.913 0.181)" fill="#fff"/>
        </g>
        <rect id="Rectangle" width="9.125" height="669.495" transform="translate(335.27 0.545)" fill="#fff"/>
        <g id="Group-11" data-name="Group" transform="translate(346.039 160.533)" opacity="0.44">
          <path id="Path-95" data-name="Path" d="M0,318.877,588.046,0l4.928,92.854L0,422.311Z" transform="translate(0.546 0.181)" fill="#fff"/>
        </g>
        <g id="Group-12" data-name="Group" transform="translate(344.214 299.109)" opacity="0.44">
          <path id="Path-96" data-name="Path" d="M0,319.059,588.046,0l.547,30.465L0,359.01Z" transform="translate(0.181 0.064)" fill="#fff"/>
        </g>
      </g>
      <rect id="Rectangle-2" data-name="Rectangle" width="397.871" height="13.317" transform="translate(1211.498 808.682)" fill="#b4b4da"/>
      <path id="Path-97" data-name="Path" d="M505,0H107.133L0,28.458H397.871Z" transform="translate(1211.498 780.224)" fill="#f4f4f9"/>
      <rect id="Rectangle-3" data-name="Rectangle" width="397.871" height="13.317" transform="translate(1211.498 658.913)" fill="#b4b4da"/>
      <path id="Path-98" data-name="Path" d="M505,0H107.133L0,28.641H397.871Z" transform="translate(1211.498 630.272)" fill="#f4f4f9"/>
      <rect id="Rectangle-4" data-name="Rectangle" width="113.703" height="14.776" transform="translate(1354.586 782.961)" fill="#c7dbee"/>
      <path id="Path-99" data-name="Path" d="M0,22.985l47.087-8.209V0L0,8.209Z" transform="translate(1468.471 774.752)" fill="#9493c7"/>
      <path id="Path-100" data-name="Path" d="M160.973,0H47.27L0,8.209H113.886Z" transform="translate(1354.586 774.752)" fill="#e9f3fb"/>
      <rect id="Rectangle-5" data-name="Rectangle" width="101.84" height="28.823" transform="translate(1366.631 751.766)" fill="#b4b4da"/>
      <path id="Path-101" data-name="Path" d="M0,37.032l47.087-8.209V0L0,8.209Z" transform="translate(1468.471 743.557)" fill="#9493c7"/>
      <path id="Path-102" data-name="Path" d="M148.928,0H47.087L0,8.209H101.84Z" transform="translate(1366.631 743.557)" fill="#e9f3fb"/>
      <rect id="Rectangle-6" data-name="Rectangle" width="75.559" height="18.607" transform="translate(1350.205 730.788)" fill="#c7dbee"/>
      <path id="Path-103" data-name="Path" d="M0,26.816l47.087-8.209V0L0,8.209Z" transform="translate(1425.764 722.578)" fill="#9493c7"/>
      <path id="Path-104" data-name="Path" d="M122.646,0H47.087L0,8.209H75.559Z" transform="translate(1350.205 722.578)" fill="#e9f3fb"/>
      <path id="Path-105" data-name="Path" d="M24.821,107.812,0,97.232V0L24.821,10.4Z" transform="translate(1438.905 549.276)" fill="#9493c7"/>
      <path id="Path-106" data-name="Path" d="M0,114.38,62.053,97.232V0L0,16.965Z" transform="translate(1463.726 542.709)" fill="#c7dbee"/>
      <path id="Path-107" data-name="Path" d="M0,16.965,62.053,0,86.875,10.4,24.821,27.364Z" transform="translate(1438.905 532.311)" fill="#e9f3fb"/>
      <path id="Path-108" data-name="Path" d="M27.559,99.6l-9.49-2.189L0,0,10.4,5.473Z" transform="translate(1472.304 560.221)" fill="#9493c7"/>
      <path id="Path-109" data-name="Path" d="M17.156,111.1,80.122,97.232,62.053,0,0,16.965Z" transform="translate(1482.707 548.729)" fill="#b4b4da"/>
      <path id="Path-110" data-name="Path" d="M0,16.965,62.053,0l10.4,5.473L10.4,22.438Z" transform="translate(1472.304 543.256)" fill="#e9f3fb"/>
      <path id="Path-111" data-name="Path" d="M27.559,77.165l-9.49-2.189L0,0,10.4,5.473Z" transform="translate(1508.624 579.923)" fill="#9493c7"/>
      <path id="Path-112" data-name="Path" d="M17.156,88.658,80.122,74.794,62.053,0,0,16.965Z" transform="translate(1519.027 568.43)" fill="#b4b4da"/>
      <path id="Path-113" data-name="Path" d="M0,16.965,62.053,0l10.4,5.473L10.4,22.438Z" transform="translate(1508.624 562.958)" fill="#e9f3fb"/>
    </g>
    <g id="Secondary_Object" data-name="Secondary Object" transform="translate(969 983)">
      <g id="Table" transform="translate(0 2)">
        <rect id="Rectangle-7" data-name="Rectangle" width="279.273" height="39.409" transform="translate(257.005 459.038)" fill="#5f64ac"/>
        <rect id="Rectangle-8" data-name="Rectangle" width="279.273" height="39.409" transform="translate(916.856 459.038)" fill="#5f64ac"/>
        <path id="Path-114" data-name="Path" d="M1440.722,0H249.338L0,83.014H1351.1Z" transform="translate(0.73 389.343)" fill="#9493c7"/>
        <path id="Path-115" data-name="Path" d="M1170.575,394.087H121.2C54.394,394.087,0,339.717,0,272.942V15.508H5.476V272.942A115.733,115.733,0,0,0,121.2,388.613H1170.575A115.733,115.733,0,0,0,1286.3,272.942V0h5.476V272.942C1291.776,339.717,1237.382,394.087,1170.575,394.087Z" transform="translate(48.188 456.849)" fill="#9493c7"/>
        <path id="Path-116" data-name="Path" d="M1032.034,344.279H121.2C54.394,344.279,0,289.909,0,223.133V13.319H5.476V223.133A115.733,115.733,0,0,0,121.2,338.805h910.833a115.733,115.733,0,0,0,115.725-115.672V0h5.476V223.133A121.224,121.224,0,0,1,1032.034,344.279Z" transform="translate(223.236 401.75)" fill="#9493c7"/>
        <path id="Path-117" data-name="Path" d="M1.46,19.157s-3.286,9.3,0,11.312c3.286,2.189,243.862,10.582,243.862,10.582l63.7-35.03V0Z" transform="translate(999.178 415.798)" fill="#b4b4da"/>
        <path id="Path-118" data-name="Path" d="M0,34.61,102.948,1.222s52.2-6.933,93.091,12.224l-71.917,34.3S29.388,33.7,0,34.61Z" transform="translate(1000.638 400.345)" fill="#f4f4f9"/>
        <path id="Path-119" data-name="Path" d="M71.735,8.628s51.839-20.8,111.527,2.189L117.185,46.942S69.545,25.048,0,42.928" transform="translate(1125.125 405.163)" fill="#fff"/>
        <g id="Group-13" data-name="Group" transform="translate(647.987)">
          <path id="Path-120" data-name="Path" d="M6.024,60.085h.365A6.624,6.624,0,0,1,4.2,54.977V6.993A6.858,6.858,0,0,1,9.492.242L7.849.06A6.927,6.927,0,0,0,0,6.81V53.152A7.09,7.09,0,0,0,6.024,60.085Z" transform="translate(209.729 296.6)" fill="#9493c7"/>
          <path id="Shape-3" data-name="Shape" d="M0,161.466V0H83.965V175.15Z" transform="translate(181.802 238.824)" fill="#b4b4da"/>
          <path id="Path-121" data-name="Path" d="M30.665,0,0,12.406,157.342,26.272l20.626-12.406Z" transform="translate(125.582 395.729)" fill="#b4b4da"/>
          <path id="Path-122" data-name="Path" d="M292.963,22.988l-8.579,4.2L278,30.1l-5.841,2.919-6.389,3.1-7.3,3.467L0,14.961l11.682-3.467,9.492-2.737,7.484-2.372,9.309-2.737L50.561,0Z" transform="translate(0.913 424.008)" fill="#f4f4f9"/>
          <path id="Path-123" data-name="Path" d="M399.014,43.08V283a20.139,20.139,0,0,1-22.269,20.069l-333.85-35.03L27.562,266.4l-9.492-.912A20.18,20.18,0,0,1,0,245.414V9.145A9.061,9.061,0,0,1,9.674.022L380.031,22.828A20.208,20.208,0,0,1,399.014,43.08Z" transform="translate(34.498 0.16)" fill="#f4f4f9"/>
          <path id="Path-124" data-name="Path" d="M375.468,22.841,5.111.035A9.579,9.579,0,0,0,0,1.13L351.556,22.841a20.3,20.3,0,0,1,18.983,20.069V282.829a20.2,20.2,0,0,1-12.412,18.61l14.055,1.46a20.139,20.139,0,0,0,22.269-20.069V42.911A20.181,20.181,0,0,0,375.468,22.841Z" transform="translate(39.244 0.33)" fill="#b4b4da"/>
          <path id="Path-125" data-name="Path" d="M255.727,23.536l-6.389,2.919L0,2.737,9.309,0Z" transform="translate(29.57 427.657)" fill="#fff"/>
          <path id="Path-126" data-name="Path" d="M260.29,24.266l-6.389,3.1Q126.859,15.052,0,2.737L9.309,0Q134.708,12.042,260.29,24.266Z" transform="translate(12.777 432.766)" fill="#fff"/>
          <path id="Path-127" data-name="Path" d="M168.294,8.632Q84.238,65.556,0,122.48V111.533Q81.865,56.251,163.731.787C168.659-2.5,173.223,5.348,168.294,8.632Z" transform="translate(34.498 51.94)" fill="#fff"/>
          <path id="Path-128" data-name="Path" d="M163.731,8.62Q81.318,60.891,0,115.169V104.222Q78.854,51.678,158.985.775C164.1-2.509,168.659,5.518,163.731,8.62Z" transform="translate(34.498 114.35)" fill="#fff"/>
          <path id="Path-129" data-name="Path" d="M159.715,8.632Q89.349,57.62,15.333,100.769L0,99.126Q79.675,53.15,155.152.787C159.9-2.5,164.461,5.348,159.715,8.632Z" transform="translate(62.061 167.247)" fill="#fff"/>
        </g>
        <ellipse id="Oval" cx="8.579" cy="8.575" rx="8.579" ry="8.575" transform="translate(1044.811 476.736)" fill="#9493c7"/>
        <ellipse id="Oval-2" data-name="Oval" cx="9.127" cy="9.122" rx="9.127" ry="9.122" transform="translate(385.689 475.458)" fill="#9493c7"/>
      </g>
      <g id="Lamp" transform="translate(1214)">
        <path id="Path-130" data-name="Path" d="M0,0S33.874,83.745,113.46,84.84,204.883,23.9,204.883,23.9Z" transform="translate(20.212 221.561)" fill="#f8b07b"/>
        <path id="Path-131" data-name="Path" d="M327.084,902.953l-5.1-1.825c.546-1.277,48.625-136.474,74.3-299.768,23.675-150.34,32.6-355.963-59.37-481.672C281.554,43.788,222.548,5.474,161.9,5.474h-.911C69.569,6.021,4.917,95.057,4.371,95.97L0,92.868C.728,91.956,66.837.547,161.174,0h.911c62.466,0,122.93,39.227,179.386,116.587,41.159,56.378,65.927,132.825,73.758,227.152,6.192,75.353,1.639,162.382-13.477,258.717C375.892,766.115,327.63,901.676,327.084,902.953Z" transform="translate(140.228 0.065)" fill="#b4b4da"/>
        <path id="Path-132" data-name="Path" d="M0,114.1c70.3,97.977,244.038,60.939,244.038,60.939a183.632,183.632,0,0,0-.546-22.989c-2.55-38.315-15.844-114.215-79.039-144.684C95.43-26.023,31.324,62.831,8.742,99.322,3.1,108.262,0,114.1,0,114.1Z" transform="translate(0.544 93.229)" fill="#b4b4da"/>
        <ellipse id="Oval-3" data-name="Oval" cx="146.241" cy="14.049" rx="146.241" ry="14.049" transform="translate(316.154 895.538)" fill="#b4b4da"/>
        <path id="Path-133" data-name="Path" d="M0,14.779c70.3,97.977,244.038,60.939,244.038,60.939a183.632,183.632,0,0,0-.546-22.989S87.235,81.738,8.56,0C3.1,8.94,0,14.779,0,14.779Z" transform="translate(0.544 192.551)" fill="#9493c7"/>
      </g>
    </g>
    <g id="Characters" transform="translate(0 190)">
      <g id="Man" transform="translate(1140 479)">
        <g id="Group-14" data-name="Group" transform="translate(62.864 1295.838)">
          <path id="Path-134" data-name="Path" d="M0,2.014Q118.01-1,236.019.554" transform="translate(17.706 19.147)" fill="#c7dbee"/>
          <path id="Path-135" data-name="Path" d="M17.66,38.5q118.01-3.01,236.019-1.459c23.547.365,23.547-36.119,0-36.484Q135.67-1.088,17.66,2.014c-23.547.547-23.547,37.031,0,36.484Z" transform="translate(0.046 0.905)" fill="#c7dbee"/>
        </g>
        <g id="Group-15" data-name="Group" transform="translate(343.97 1268.475)">
          <path id="Path-136" data-name="Path" d="M0,4.56C54.4,3.1,108.609,1.459,163,0" transform="translate(18.254 18.789)" fill="#c7dbee"/>
          <path id="Path-137" data-name="Path" d="M17.592,41.055c54.4-1.459,108.609-3.1,163-4.56,23.365-.73,23.547-37.213,0-36.484-54.4,1.459-108.609,3.1-163,4.56-23.365.73-23.547,37.213,0,36.484Z" transform="translate(0.662 0.536)" fill="#c7dbee"/>
        </g>
        <path id="Path-138" data-name="Path" d="M0,29,21.722,66.218l13.69-8.938L7.484,0Z" transform="translate(420.635 1046.838)" fill="#d37477"/>
        <path id="Path-139" data-name="Path" d="M49.832,0s32.126,166.182,50.745,201.024,115.18,184.424,121.752,189.9-67.9,27-84.332,21.16S30.849,258.668,24.825,235.683,0,13.681,0,13.681Z" transform="translate(247.955 672.882)" fill="#4a52a3"/>
        <path id="Path-140" data-name="Path" d="M28.055,60.465S8.888,38.757,9.984,30.913c1.1-8.026,4.2-7.844-1.643-11.492s-11.865.365-5.841-3.648C8.523,11.942,24.4-4.841,27.872,1.361c3.468,6.02-3.1,14.776,4.746,11.675S53.427,50.614,53.427,50.614Z" transform="translate(425.619 1083.237)" fill="#f8b07b"/>
        <path id="Path-141" data-name="Path" d="M137.186,0s23.73,31.011,39.245,37.943S132.622,93.4,127.876,98.688s-10.587-1.824-10.587-1.824-39.428,52.9-56.221,64.211S4.482,200.842,4.482,200.842s-16.976-22.255,15.151-54.908,56.769-37.578,67.721-54c11.135-16.418,2.556-56.914-2.738-62.569C79.5,23.9,137.186,0,137.186,0Z" transform="translate(342.774 1100.468)" fill="#171338"/>
        <path id="Path-142" data-name="Path" d="M44.276,3.87S2.11-3.609,1.562,2.228s5.294.547,1.643,8.938-4.563,15.688-.73,16.418S23.832,48.562,34.6,34.7C45.006,20.652,44.276,3.87,44.276,3.87Z" transform="translate(185.609 1228.669)" fill="#f8b07b"/>
        <path id="Path-143" data-name="Path" d="M234.012,15.855S230.178,54.71,236.75,70.4s-69.911,10.763-77.03,11.492-6.389-8.574-6.389-8.574S88.348,85.174,68.451,82.073C48.372,78.972,0,72.587,0,72.587s2.921-27.91,48.555-29.916c45.634-2.189,67.173,11.127,86.34,6.567S175.6,9.288,175.6,1.627,234.012,15.855,234.012,15.855Z" transform="translate(0.436 1248.424)" fill="#171338"/>
        <path id="Path-144" data-name="Path" d="M25.007,61.287S11.135,26.81,8.4,10.392,0,.724,0,5.65,2.556,31.006,6.024,36.3C9.492,41.221,25.007,61.287,25.007,61.287Z" transform="translate(65.967 228.153)" fill="#d37477"/>
        <path id="Path-145" data-name="Path" d="M45.653,79.192S-1.076,48,.019,35.411,18.09-2.531,23.931.2s38.88,45.422,40.341,64.758S45.653,79.192,45.653,79.192Z" transform="translate(30.901 238.523)" fill="#d37477"/>
        <path id="Path-146" data-name="Path" d="M48.8,92.167s-23-48.705-29.023-62.022C13.018,15.369.971-5.062.058,1.141c-1.1,6.2,13.508,51.259,22.087,59.833S48.8,92.167,48.8,92.167Z" transform="translate(27.576 187.788)" fill="#d37477"/>
        <path id="Path-147" data-name="Path" d="M181.3,170.119s-41.253,51.077-51.11,54.725c-5.476,2.007-42.166-12.587-73.2-67.13C38.553,125.427,7.7,104.631,2.41,98.429c-14.055-16.235,37.6-54.908,45.634-49.435,3.833,2.554,13.508,27.363,32.674,43.963,22.452,19.7,31.761,45.057,35.047,45.057,6.206,0,34.134-103.248,43.991-126.6s29.571-3.648,29.571-3.648Z" transform="translate(54.43 234.427)" fill="#2c2a5c"/>
        <path id="Path-148" data-name="Path" d="M157.53,0s-45.269,11.675-46.912,23.532S111.9,67.677,111.9,67.677,95.468,286.213,63.706,375.6-10.951,526.092,2.557,530.47s98.57,25.721,98.57,25.721l60.237-274.538,4.563-184.059Z" transform="translate(101.378 204.251)" fill="#17132c"/>
        <path id="Path-149" data-name="Path" d="M54.031,0S-3.65,423.026.183,601.431c0,0,31.031,11.675,62.975,6.02C95.284,601.8,136.538,102.7,136.538,102.7Z" transform="translate(176.401 627.277)" fill="#5f64ac"/>
        <path id="Path-150" data-name="Path" d="M2.19,7.9S10.222,43.653,0,57.334c0,0,18.254,12.952,26.833,3.466,8.579-9.3,7.3-51.807,12.96-58.738S2.19,7.9,2.19,7.9Z" transform="translate(247.225 146.917)" fill="#d37477"/>
        <path id="Path-151" data-name="Path" d="M74.718,67.859,52.266,257.026,13.2,357.721S-8.884,231.305,4.076,99.235a348.011,348.011,0,0,1,8.4-49.982C17.949,24.626,16.306,0,16.306,0c1.278.365,3.1.73,5.476,1.277.548.182,1.1.182,1.825.365,1.825.547,4.016,1.095,6.206,1.642l1.825.547c2.556.73,5.111,1.277,7.849,2.007.548.182,1.1.365,1.825.547,4.2,1.095,8.579,2.189,12.6,3.284l1.825.547c1.825.547,3.651.912,5.111,1.459.548.182,1.1.365,1.825.547,4.746,1.277,7.849,2.189,7.849,2.189A161.027,161.027,0,0,0,61.575,33.2c-3.1,8.391,4.563,35.754,4.563,35.754Z" transform="translate(225.808 173.423)" fill="#f38a75"/>
        <path id="Path-152" data-name="Path" d="M108.974,25.174c5.841,2.007,13.143-12.952-2.738-4.2s-43.626,9.3-41.983,25.538S31.031,511.316,0,624.78c0,0,172.5-13.5,185.457-49.982s-19.9-107.626-26.285-182.053C152.6,318.319,125.585,58.738,126.68,37.578c.548-12.4,20.627-18.971-8.214-32.47L107.331,0a16.777,16.777,0,0,0-.913,8.209C106.784,12.952,105.871,24.079,108.974,25.174Z" transform="translate(177.314 206.075)" fill="#171338"/>
        <path id="Path-153" data-name="Path" d="M40.114,0S-8.258,58.191,1.234,80.811c11.317,26.815,39.61,23.532,59.872,13.681,20.262-10.033,35.412-50.53,34.864-64.211C95.24,16.6,40.114,0,40.114,0Z" transform="translate(219.888 58.5)" fill="#d37477"/>
        <path id="Path-154" data-name="Path" d="M31.755,0S2.914,16.235.359,17.877,9.486,33.93,16.6,33.018,31.755,0,31.755,0Z" transform="translate(212.002 80.207)" fill="#e85a5b"/>
        <path id="Path-155" data-name="Path" d="M16.83,10.252A26.227,26.227,0,0,1,.949,4.78,2.826,2.826,0,0,1,.584.949,2.831,2.831,0,0,1,4.418.584a19.554,19.554,0,0,0,23.365.73,3.077,3.077,0,0,1,3.833.73,3.072,3.072,0,0,1-.73,3.831A24.728,24.728,0,0,1,16.83,10.252Z" transform="translate(229.117 131.247)" fill="#171338"/>
        <path id="Path-156" data-name="Path" d="M21.57,1.053S41.1-5.879,36.355,15.829C31.792,37.536,7.88,42.279,1.126,37.172-5.81,32.246,21.57,1.053,21.57,1.053Z" transform="translate(284.615 110.165)" fill="#e85a5b"/>
        <path id="Path-157" data-name="Path" d="M58.868,52.614s-29.206,20.8-46.182-1.459S-4.107-1.746,12.5.078s22.452,4.2,21.539,13.5-8.762,14.593-8.032,8.938c.73-5.837,15.333-19.154,30.666-8.756,15.516,10.4,49.467,45.787,45.269,64.576-4.2,18.971-32.674,36.848-49.1,48.523-13.325,9.486,18.984-38.49,11.865-49.435s-36.69-20.8-36.69-20.8Z" transform="translate(249.69 7.892)" fill="#171338"/>
        <ellipse id="Oval-4" data-name="Oval" cx="3.65" cy="10.217" rx="3.65" ry="10.217" transform="matrix(0.853, 0.522, -0.522, 0.853, 262.364, 80.025)" fill="#171338"/>
        <path id="Path-158" data-name="Path" d="M24.358,0S47.175,34.112,46.81,43.963.081,67.494.081,51.442C-.1,30.1.081,2.919.081,2.919Z" transform="translate(321.436 614.143)" fill="#d37477"/>
        <path id="Path-159" data-name="Path" d="M7.119,0s13.325,28.092,15.7,36.484,2.008,12.769-2.008,12.769S0,5.108,0,5.108Z" transform="translate(360.215 652.633)" fill="#d37477"/>
        <path id="Path-160" data-name="Path" d="M10.039,0S39.61,54,35.777,56,25.738,64.029,23.73,56C21.539,47.976,0,4.2,0,4.2Z" transform="translate(348.533 652.633)" fill="#d37477"/>
        <path id="Path-161" data-name="Path" d="M7.119,1.642S38.7,62.387,36.69,65.67c-2.008,3.1-9.857,3.648-9.857,3.648L0,9.121,7.119,0Z" transform="translate(341.414 650.992)" fill="#d37477"/>
        <path id="Path-162" data-name="Path" d="M9.674,0S29.206,51.624,26.1,52.536c-2.921.912-9.674.73-11.682,0S0,0,0,0Z" transform="translate(336.668 663.943)" fill="#d37477"/>
        <path id="Path-163" data-name="Path" d="M7.549,0S-2.126,62.2.43,63.116s12.412-2.736,12.778-9.486,0-51.259,0-51.259Z" transform="translate(319.445 627.277)" fill="#d37477"/>
        <path id="Path-164" data-name="Path" d="M41.321,0S2.076,16.418.068,38.125C-1.21,50.894,15.949,158.156,17.044,252.831c.548,62.387,13.69,113.646,18.619,115.288,11.682,3.648,73.2-14.411,73.2-25.356,0-4.56-31.031-60.745-32.857-130.064C73.082,104.16,41.321,0,41.321,0Z" transform="translate(263.586 265.543)" fill="#2c2a5c"/>
        <path id="Path-165" data-name="Path" d="M6.037,13.134c0,4.013-.365,8.209-.548,12.222A183.617,183.617,0,0,1,1.838,49.8c-.183,1.095-2.008.73-1.825-.547A199.984,199.984,0,0,0,3.846,21.708c.365-4.013.365-8.209.365-12.222C4.211,6.2,3.846,3.1,4.394,0c.548.182,1.1.182,1.825.365C5.489,4.56,6.219,8.938,6.037,13.134Z" transform="translate(243.014 174.517)" fill="#f9b17c"/>
        <path id="Path-166" data-name="Path" d="M.183,0c0,15.505,0,31.011-.183,46.334a.918.918,0,0,0,1.825,0c0-15.323,0-30.646.183-45.969Z" transform="translate(255.257 176.524)" fill="#f9b17c"/>
        <path id="Path-167" data-name="Path" d="M4.543,44.145c.183,1.095-1.643,1.642-1.825.547A256.635,256.635,0,0,1,.162,13.5C.162,9.121-.2,4.378.162,0c.548.182,1.1.365,1.825.547C.892,11.127,4,40.862,4.543,44.145Z" transform="translate(264.769 179.078)" fill="#f9b17c"/>
        <path id="Path-168" data-name="Path" d="M8.324,0c-1.1,5.655-1.1,11.127-1.46,17.147A70.7,70.7,0,0,1,.11,43.051c-.548,1.095,1.1,2.007,1.643.912a70.29,70.29,0,0,0,6.389-21.89c.913-7.3.548-14.593,2.008-21.525Z" transform="translate(271.027 182.908)" fill="#f9b17c"/>
        <path id="Path-169" data-name="Path" d="M6.984.547C5.524,7.114,3.881,13.5,1.873,19.884c-.365,1.095-2.19.547-1.825-.547A177.33,177.33,0,0,0,5.159,0C5.889.182,6.437.365,6.984.547Z" transform="translate(280.947 184.733)" fill="#f9b17c"/>
        <path id="Path-170" data-name="Path" d="M.821,7.954a57.662,57.662,0,0,0,28.111-6.2c1.1-.547.183-2.189-.913-1.642A56.336,56.336,0,0,1,.821,5.948c-1.1.182-1.1,2.007,0,2.007Z" transform="translate(194.929 810.314)" fill="#2c2a5c"/>
        <path id="Path-171" data-name="Path" d="M.958,8.449A83.863,83.863,0,0,0,26.7,1.7c1.1-.547.183-2.007-.913-1.642A84.736,84.736,0,0,1,.958,6.625c-1.278.182-1.278,2.007,0,1.824Z" transform="translate(241.886 802.34)" fill="#2c2a5c"/>
        <path id="Path-172" data-name="Path" d="M1.017,8.8c5.659-2.371,11.5-4.56,17.158-6.932,1.1-.365.548-2.189-.548-1.824C11.969,2.419,6.128,4.608.469,6.98-.444,7.345.1,9.169,1.017,8.8Z" transform="translate(290.017 790.493)" fill="#2c2a5c"/>
        <path id="Path-173" data-name="Path" d="M1.1,10.883A63.44,63.44,0,0,0,21,1.762c.913-.73,0-2.189-.913-1.642A64.337,64.337,0,0,1,.739,9.059.93.93,0,0,0,1.1,10.883Z" transform="translate(324.429 779.294)" fill="#2c2a5c"/>
        <path id="Path-174" data-name="Path" d="M.648,1.837c8.4,1.277,16.793,2.371,25.19,3.648,1.1.182,1.643-1.642.548-1.824C17.989,2.384,9.593,1.29,1.2.013-.082-.17-.447,1.655.648,1.837Z" transform="translate(106.572 720.845)" fill="#2c2a5c"/>
        <path id="Path-175" data-name="Path" d="M.958,1.915A28.541,28.541,0,0,1,14.466,4.1c1.1.365,1.643-1.277.548-1.824A30.81,30.81,0,0,0,.958.091a.913.913,0,1,0,0,1.824Z" transform="translate(152.443 728.793)" fill="#2c2a5c"/>
        <path id="Path-176" data-name="Path" d="M1.2,3.479c3.286-.547,6.389-1.095,9.674-1.642,1.1-.182.73-2.007-.548-1.824C7.037.56,3.934,1.107.648,1.655A.953.953,0,0,0,1.2,3.479Z" transform="translate(301.155 627.812)" fill="#2c2a5c"/>
        <path id="Path-177" data-name="Path" d="M1.145,7.858c7.849-2.007,15.7-4.013,23.73-6.02A.953.953,0,0,0,24.327.014C16.478,2.021,8.629,4.027.6,6.034-.5,6.4.049,8.04,1.145,7.858Z" transform="translate(302.85 621.973)" fill="#2c2a5c"/>
        <path id="Path-178" data-name="Path" d="M1.145,5.85C8.081,4.756,15.017,3.479,21.771,1.837c1.1-.182.73-2.007-.548-1.824C14.47,1.655,7.533,2.931.6,4.026c-1.1.365-.548,2.007.548,1.824Z" transform="translate(302.302 623.799)" fill="#2c2a5c"/>
        <path id="Path-179" data-name="Path" d="M.661,2.967A29.952,29.952,0,0,0,13.986,1.872.953.953,0,0,0,13.439.048,28.577,28.577,0,0,1,1.026,1.142C-.069.96-.434,2.784.661,2.967Z" transform="translate(292.928 628.324)" fill="#171338"/>
        <path id="Path-180" data-name="Path" d="M.821,4.027a63.856,63.856,0,0,0,11.5-2.189A.953.953,0,0,0,11.774.014Q6.3,1.382.821,2.2a.917.917,0,0,0,0,1.824Z" transform="translate(314.125 624.527)" fill="#171338"/>
        <path id="Path-181" data-name="Path" d="M1.2,6.26A62.68,62.68,0,0,0,13.974,1.7c1.1-.547.183-2.007-.913-1.642A50.272,50.272,0,0,1,.648,4.436.953.953,0,0,0,1.2,6.26Z" transform="translate(333.099 617.551)" fill="#171338"/>
        <path id="Path-182" data-name="Path" d="M1.291,6.14,7.862,1.762c.913-.73,0-2.189-.913-1.642L.378,4.5c-.913.73,0,2.371.913,1.642Z" transform="translate(353.814 610.74)" fill="#171338"/>
        <path id="Path-183" data-name="Path" d="M2.045,11.14C1.68,7.31,3.871,4.209,5.879,1.29,6.609.378,4.966-.534,4.236.378,2.045,3.661-.328,7.127.037,11.14c.183,1.277,2.008,1.277,2.008,0Z" transform="translate(57.168 316.79)" fill="#171338"/>
        <path id="Path-184" data-name="Path" d="M1.763,11.893a64.265,64.265,0,0,1,9.492-10.4C12.168.765,10.89-.512,9.977.218A69.038,69.038,0,0,0,.12,10.981c-.548.912.913,1.824,1.643.912Z" transform="translate(67.124 300.35)" fill="#171338"/>
        <path id="Path-185" data-name="Path" d="M1.291,8.631A98.227,98.227,0,0,1,13.338,1.7c1.1-.547.183-2.007-.913-1.642A79.213,79.213,0,0,0,.378,6.99c-.913.73,0,2.189.913,1.642Z" transform="translate(84.207 288.288)" fill="#171338"/>
        <path id="Path-186" data-name="Path" d="M23.727,16.285a43.658,43.658,0,0,1-11.682-4.743C10.037,10.265.91,4.61,2.006,1.144,2.371.049.545-.5.18.6-1.1,4.61,4.744,8.623,7.482,10.63a42.993,42.993,0,0,0,15.7,7.479c1.278.182,1.825-1.642.548-1.824Z" transform="translate(245.402 44.951)" fill="#171338"/>
        <path id="Path-187" data-name="Path" d="M4.616,22.3c-.73-2.189-1.46-4.56-2.19-6.749-1.278-4.013.183-7.114,3.286-9.486C7.719,4.426,10.275,2.6,12.83,2.055c1.278-.182,3.833-.365,4.928.73,3.1,3.1-.548,2.554-1.825,2.736a.917.917,0,0,0,0,1.824,12.433,12.433,0,0,0,5.111-.73.728.728,0,0,0,.365-.73c.183-2.371-1.825-4.378-3.833-5.29C14.108-.864,10.64.6,7.719,2.42c-2.738,1.824-6.206,4.013-7.3,7.3-1.46,4.2,1.278,9.121,2.556,12.952.365,1.277,2.008.912,1.643-.365Z" transform="translate(251.189 0.625)" fill="#171338"/>
        <path id="Path-188" data-name="Path" d="M9.939,30.372A22.918,22.918,0,0,0,7.019,16.143c-1.643-2.554-5.294-6.02-4.928-9.3A5.817,5.817,0,0,1,7.2,1.732a7.462,7.462,0,0,1,4.016.547c.73,4.013-.365,5.473-3.1,4.2C7.019,6.11,6.471,7.934,7.566,8.3c3.1.912,7.667.365,6.936-4.013C13.772.09,8.3-.639,4.828.455.63,1.732-.831,5.745.447,9.759c.913,2.919,3.1,5.108,4.563,7.479A20.15,20.15,0,0,1,7.749,30.554c.183.912,2.008.912,2.19-.182Z" transform="translate(342.245 53.666)" fill="#171338"/>
        <path id="Path-189" data-name="Path" d="M.048,1.707c1.1,2.736-.73,6.2,1.278,8.756,1.643,2.189,4.746,1.642,6.936.365C13.008,8.091,11.73-.847,5.524.065c-1.1.182-.73,2.007.548,1.824,2.556-.365,3.651,2.554,3.286,4.743A4.5,4.5,0,0,1,4.976,10.1c-2.556,0-2.738-2.371-2.556-4.378a9.534,9.534,0,0,0-.365-4.56C1.508.247-.317.612.048,1.707Z" transform="translate(350.493 80.872)" fill="#171338"/>
        <path id="Path-190" data-name="Path" d="M2.092,3.094C.449,8.02-1.376,15.316,1.544,20.242a6.186,6.186,0,0,0,7.3,2.919c2.921-.73,4.563-3.466,5.659-6.2,2.008-4.56,4.563-12.587-.913-15.688A6.95,6.95,0,0,0,5.925,2,8.654,8.654,0,0,0,3.369,5.1C2.822,6.2,2.822,7.837,2.092,8.749c-3.833,4.378,2.556,10.945,6.389,6.385a9.306,9.306,0,0,0,2.19-3.648,5.8,5.8,0,0,0,.548-1.642c.183-1.642,1.1.73-1.278-.182-.73-.365-1.278-.73-2.008-1.095-.548-.547-.183-.547-.365.547-.183.73-.365,1.642-.548,2.371l-.548,1.642a4.572,4.572,0,0,1-.73,1.277c-.548.73-.183.73.73,0,.73.182,1.46.365,2.373.547.913.547.183.547.365.182.183-.547,0-2.554.183-3.284a23.649,23.649,0,0,1,1.46-6.2C12.679-.007,3.917-2.378,2.092,3.094Z" transform="translate(231.443 484.634)" fill="#f38a75"/>
        <path id="Path-191" data-name="Path" d="M7.217.2C1.193,2.028.281,7.5.281,12.973c0,4.743-1.825,12.769,3.833,14.776,5.476,2.007,9.857-4.56,12.047-8.574C18.9,14.25,19.63,8.6,16.892,3.487,15.431.751,11.781.751,9.773,2.575a41.083,41.083,0,0,0-7.484,8.391c-3.286,4.925,4.563,9.486,7.849,4.56a25.084,25.084,0,0,1,6.024-6.385c-2.373-.365-4.746-.547-7.119-.912,1.1,2.007.548,4.013-.365,5.837-.548,1.277-2.373,4.925-3.833,5.29,1.1.182,2.373.365,3.468.547.913,2.371,1.278,2.736,1.1,1.277V15.345c0-.73-.365-6.02.365-6.2C15.249,7.318,12.876-1.438,7.217.2Z" transform="translate(226.683 553.924)" fill="#f38a75"/>
        <path id="Path-192" data-name="Path" d="M3.052,3.882C.679,8.807-2.059,17.928,2.321,22.489a5.786,5.786,0,0,0,8.214.182c2.19-2.189,3.651-5.655,5.111-8.391C18.2,9.719,19.845,1.146,12.361.051,5.607-.861,2.869,10.632,2.139,15.374c-.365,2.371.548,4.925,3.1,5.655,2.19.547,5.294-.73,5.659-3.1a17.273,17.273,0,0,1,1.278-5.29c.365-.912,1.1-3.648,2.008-4.013H9.623A1.1,1.1,0,0,0,9.075,7.53c0,.365-.183.547-.183.912A15.087,15.087,0,0,0,7.25,11.361c-.548,1.095-1.1,2.007-1.643,2.919-.365.547-.548.912-.913,1.459-.913,1.277-.73,1.277.183.182.73-.182,1.46-.365,2.373-.547H6.52c1.1.365,2.19.912,3.286,1.277.548.365,0-.547.183-.912A13.8,13.8,0,0,1,10.17,13a13.351,13.351,0,0,1,1.46-4.56c1.825-5.29-6.024-9.851-8.579-4.56Z" transform="translate(219.166 632.334)" fill="#f38a75"/>
        <path id="Path-193" data-name="Path" d="M1.825,349.33,0,349.147C.365,346.228,40.158,58.556,45.817,0l1.825.182C41.8,58.738,2.19,346.411,1.825,349.33Z" transform="translate(208.71 879.378)" fill="#2c2a5c"/>
        <ellipse id="Oval-5" data-name="Oval" cx="12.595" cy="6.932" rx="12.595" ry="6.932" transform="translate(251.971 104.651)" fill="#e85a5b"/>
        <path id="Path-194" data-name="Path" d="M.6,1.824c3.468.73,5.841,3.284,7.667,6.2A13.136,13.136,0,0,1,10.089,12.4c.183,1.459-.913,2.371-.913,3.831a1.212,1.212,0,0,0,.73.912h.183A1.369,1.369,0,0,0,11,16.965l.183-.182A.95.95,0,0,0,11,15.323h-.183c-.913-.73-1.825.912-.913,1.642h.183c0-.547-.183-.912-.183-1.459h.548a3.2,3.2,0,0,0,.73.912c0-.547.913-1.459.913-2.007a8.785,8.785,0,0,0,0-2.189A16.109,16.109,0,0,0,9.724,6.749C7.716,3.466,5.16.73,1.145,0,.049,0-.5,1.642.6,1.824Z" transform="translate(266.89 70.722)" fill="#171338"/>
      </g>
      <g id="Message" transform="translate(775.117 468.26)">
        <path id="Path-195" data-name="Path" d="M432.246,134.989,358.866,189.9,44.539,205.22,0,0,344.081,41.226V147.576Z" transform="translate(0.064 0.103)" fill="#b4b4da"/>
        <path id="Path-196" data-name="Path" d="M4.381,9.132c53.3,2.189,106.784,3.831,160.084,4.378,5.841,0,5.841-9.121,0-9.121Q84.24,3.294,4.381.011c-5.841-.365-5.841,8.756,0,9.121Z" transform="translate(53 55)" fill="#fff"/>
        <path id="Path-197" data-name="Path" d="M4.518,9.121H173.546c5.841,0,5.841-9.121,0-9.121H4.518c-6.024,0-6.024,9.121,0,9.121Z" transform="translate(58.887 104.993)" fill="#fff"/>
        <path id="Path-198" data-name="Path" d="M4.381,9.124c48.372.73,96.927,1.277,145.3,2.007,5.841,0,5.841-9.121,0-9.121C101.308,1.28,52.753.732,4.381,0c-5.841-.182-5.841,8.938,0,9.121Z" transform="translate(64.865 147.858)" fill="#fff"/>
        <path id="Path-199" data-name="Path" d="M9.071,20.223c2.921-10.4,15.7-16.053,24.095-7.3,4.563,4.743,6.206,13.681,2.373,18.971-2.921,4.2-7.119,4.378-11.682,6.02C12.9,41.748,3.778,52.511,8.341,64.551c2.19,5.473,10.952,3.1,8.762-2.371C11.079,46.856,33.714,47.221,41.015,40.472c7.484-6.932,6.936-20.978,2.008-29.187C32.071-7.139,5.6-1.667.127,18.034c-1.278,5.473,7.484,7.844,8.944,2.189Z" transform="translate(270.456 71.636)" fill="#fff"/>
        <path id="Path-200" data-name="Path" d="M4.518,9.121c5.841,0,5.841-9.121,0-9.121-6.024,0-6.024,9.121,0,9.121Z" transform="translate(283.224 165.373)" fill="#fff"/>
      </g>
      <g id="Hologram">
        <ellipse id="Oval-6" data-name="Oval" cx="195.5" cy="38.5" rx="195.5" ry="38.5" transform="translate(298 1789)" fill="#9493c7"/>
        <ellipse id="Oval-7" data-name="Oval" cx="195.5" cy="38.5" rx="195.5" ry="38.5" transform="translate(298 1952)" fill="#e9f3fb"/>
        <rect id="Rectangle-9" data-name="Rectangle" width="391" height="25" transform="translate(298 1799)" fill="#9493c7"/>
        <path id="Path-201" data-name="Path" d="M688.12,1798,1066,0,0,2.417,299.715,1798Z" fill="url(#linear-gradient)"/>
        <path id="Path-202" data-name="Path" d="M18.175,0s27.868,12.1,40.5,20.042C71.142,27.987,107.491,48.39,108.184,52c.865,3.611-.865,6.139-5.885,5.778S56.948,30.154,56.948,30.154,104.2,59.044,108.184,64.46c4.154,5.236-6.751,10.111-51.236-24.376,0,0,43.1,25.459,41.369,30.876-1.558,5.056-23.022,0-41.716-23.654,0,0,16.963,18.417,22.848,22.029s-2.25,6.5-8.482,3.25S0,14.987,0,14.987Z" transform="translate(579 931)" fill="#9493c7"/>
        <path id="Path-203" data-name="Path" d="M37.39,41.783S24.816,66.562,31.93,83.567,0,72.23,0,72.23L6.287,0,45,10.365Z" transform="translate(432 512)" fill="#9493c7"/>
        <path id="Path-204" data-name="Path" d="M18.516,45S-1.805,28.314.13,12.144,22,.618,22,.618L20.452,39.151Z" transform="translate(451 524)" fill="#5f64ac"/>
        <path id="Path-205" data-name="Path" d="M40.53,30.168s-8.8,76.3,11.383,113.833c18.109,33.852,60.019,51.391,87.613,50.865s42.6,20.872,4.829,22.1S53.292,185.745,5.519,185.745c0,0,6.9-94.539,1.552-136.283S0,0,0,0Z" transform="translate(390 1450)" fill="#9493c7"/>
        <path id="Path-206" data-name="Path" d="M0,10.952s3.775,110.7,1.888,129.238,44.275-4.212,133.169,9.6c0,0,32.949,2.19,31.919-7.751-1.2-9.941-24.369-12.974-38.612-13.48s-81,4.549-90.61-29.993S36.038,0,36.038,0Z" transform="translate(499 1453)" fill="#9493c7"/>
        <path id="Path-207" data-name="Path" d="M12.39,0s8.045,24.175,19.442,42.484C43.061,60.615,65.52,53.5,97.7,66.126c32.18,12.8,32.85-20.087,48.437-14.221S175.8,67.548,174.964,75.014s-30.336,8.355-73.745.356C57.81,67.192,16.915,54.216,4.177,53.5-8.728,52.794,12.39,0,12.39,0Z" transform="translate(391 1586)" fill="#5f64ac"/>
        <path id="Path-208" data-name="Path" d="M6.894,0S-4.885,51.189,2.35,55.381s73.363,2.8,92.377,2.1c18.846-.7,78.243,8.386,80.093-.175S163.883,32.67,151.264,30.4c-12.452-2.446-32.811,19.392-40.383,18.868-7.572-.7-70.334,2.1-83.29-11.356S6.894,0,6.894,0Z" transform="translate(493 1552)" fill="#5f64ac"/>
        <path id="Path-209" data-name="Path" d="M4.433,21.8c9.373-3.459,21.053-5.643,28.984-13.106,3.749-3.459.144-11.286-3.6-7.827-7.5,6.735-18.6,8.92-27.253,12.2C-1.911,14.7-.037,23.435,4.433,21.8Z" transform="translate(400 1581)" fill="#5f64ac"/>
        <path id="Path-210" data-name="Path" d="M5.155,21.757C14.88,18.37,26.618,15.875,33.828,7.675c3.689-4.278-2.18-10.517-5.869-6.239C21.923,8.388,11.024,10.349,2.975,13.2c-5.2,1.783-3.018,10.339,2.18,8.556Z" transform="translate(496 1539)" fill="#5f64ac"/>
        <path id="Path-211" data-name="Path" d="M58.039,640s57.87-.173,52.625-21.783C98.65,568.774,99.5,156.8,87.82,81.772S83.421,3.8,83.421,3.8L17.6,0,0,430.643S46.195,633.085,58.039,640Z" transform="translate(433 889)" fill="#5560a6"/>
        <path id="Path-212" data-name="Path" d="M25.192,225.759s107.965,11.792,112.375,0-26.286-179.1-26.286-179.1L2.081,0S-10.267,106.3,25.192,225.759Z" transform="translate(374 655)" fill="#b4b4da"/>
        <path id="Path-213" data-name="Path" d="M75.886,9.176s14.067,7.582,13.062,37.065S58.637,134.524,34.69,118.182c-23.78-16.342-7.536-36.055-20.6-37.065S-6.507,43.04,7.56,38.66,17.273,14.736,30.336,9.176,57.465-8.346,75.886,9.176Z" transform="translate(445 451)" fill="#9493c7"/>
        <path id="Path-214" data-name="Path" d="M10.918,0S12.5,24.571,20.6,30.39C28.515,36.209.36,36.856.008,30.39S10.918,0,10.918,0Z" transform="translate(512 512)" fill="#5f64ac"/>
        <path id="Path-215" data-name="Path" d="M22,8.931S7.857,14.555,0,0" transform="translate(487 541)" fill="none" stroke="#5f64ac" stroke-miterlimit="10" stroke-width="1"/>
        <path id="Path-216" data-name="Path" d="M12.113,660.728S-4.7,352.273,1.291,199.943C6.119,75.734,36.253,0,36.253,0l83.408,15.181s5.827,112.306-6.826,260.5S73.878,639.853,69.882,653.137C65.887,666.593,12.113,660.728,12.113,660.728Z" transform="translate(369 884)" fill="#5f64ac"/>
        <path id="Path-217" data-name="Path" d="M68.036,42.679s26.518,47.428,78.693,113.792c10.676,13.551,10.848,43.953,24.968,57.157,7.232,6.775,22.385,15.983,38.227,24.669C233.86,251.5,259,263.314,259,263.314L213.368,313s-38.227-21.89-78.521-33.877c-57.513-17.2-40.638-43.779-64.229-59.415C47.2,203.9,56.5,162.552,43.584,135.8,17.583,81.768-.67,34.688.019,12.277c.861-27.623,49.592,0,49.592,0Z" transform="translate(362 657)" fill="#f4f4f9"/>
        <path id="Path-218" data-name="Path" d="M244.867,337.614a10.583,10.583,0,0,0-6.7,16.449l.172.173c16.491,23.375-19.412,39.3-58.578,30.128C156.742,379,122.9,357.18,101.6,327.052c-5.841-8.311-18.9-3.809-18.381,6.406v.519c2.4,42.421-37.792,22.856-67.683,11.082S-2.158,255.2,61.23,210.523c36.762-25.972,49.646-67.182,53.94-97.136a184.5,184.5,0,0,0,1.718-37.746h0a174,174,0,0,1-.515-20.951c1.718-32.206,41.915-63.026,83.143-52.637A41.325,41.325,0,0,1,211.2,6.727a55.794,55.794,0,0,1,16.835,14.718c14.773,19.566,16.663,45.884,16.663,45.884-49.817,1.039-88.125,33.071-87.782,61.814.515,49.521,32.982,61.295,56.345,68.394,45.179,13.506,70.6,29.608,70.6,56.966,0,5.887-.859,10.562-2.577,14.2-2.061,4.329-.859,9.177,2.233,12.813.172.173.344.346.344.519C289.187,289.652,298.291,327.918,244.867,337.614Z" transform="translate(295 409)" fill="#5f64ac"/>
        <path id="Path-219" data-name="Path" d="M3.352,424.821A2592.623,2592.623,0,0,0,31.714,1.687a1.752,1.752,0,0,0-3.5,0A2560.609,2560.609,0,0,1,.026,423.783c-.35,2.249,2.976,3.114,3.326,1.038Z" transform="translate(381 1081)" fill="#b4b4da"/>
        <ellipse id="Oval-8" data-name="Oval" cx="3.974" cy="14.684" rx="3.974" ry="14.684" transform="translate(505.787 499.71) rotate(14.353)" fill="#5f64ac"/>
        <path id="Path-220" data-name="Path" d="M0,48.834,24.241,61,67,12.166,42.759,0Z" transform="translate(554 909)" fill="none" stroke="#b4b4da" stroke-miterlimit="10" stroke-width="1"/>
        <path id="Path-221" data-name="Path" d="M25,13,0,0" transform="translate(557 947)" fill="none" stroke="#b4b4da" stroke-miterlimit="10" stroke-width="1"/>
        <path id="Path-222" data-name="Path" d="M25,13,0,0" transform="translate(563 947)" fill="none" stroke="#b4b4da" stroke-miterlimit="10" stroke-width="1"/>
        <path id="Path-223" data-name="Path" d="M25,13,0,0" transform="translate(570 938)" fill="none" stroke="#b4b4da" stroke-miterlimit="10" stroke-width="1"/>
        <path id="Path-224" data-name="Path" d="M25,13,0,0" transform="translate(573 928)" fill="none" stroke="#b4b4da" stroke-miterlimit="10" stroke-width="1"/>
        <path id="Path-225" data-name="Path" d="M25,13,0,0" transform="translate(583 925)" fill="none" stroke="#b4b4da" stroke-miterlimit="10" stroke-width="1"/>
        <path id="Path-226" data-name="Path" d="M0,0,25,13" transform="translate(589 918)" fill="none" stroke="#b4b4da" stroke-miterlimit="10" stroke-width="1"/>
        <path id="Path-227" data-name="Path" d="M25,13,0,0" transform="translate(595 908)" fill="none" stroke="#b4b4da" stroke-miterlimit="10" stroke-width="1"/>
        <path id="Path-228" data-name="Path" d="M105.491,85.336c-28.316,60.633-4.606,127.831-4.606,127.831-5.8-8.292-18.763-3.8-18.252,6.392v.518c2.388,42.322-37.527,22.8-67.207,11.056S-2.143,141.477,60.8,96.909C97.3,71,110.1,29.885,114.361,0,119.308,20.038,121.525,50.787,105.491,85.336Z" transform="translate(298 525)" fill="#5560a6"/>
        <path id="Path-229" data-name="Path" d="M114.693.728C91.209,32.717,99.037,75.6,81.467,110.227A112.69,112.69,0,0,1,1.272,169.635c-2.261.352-1.218,3.691.87,3.339,32.53-5.8,61.407-26.013,78.629-54.486,21.4-35.68,12-82.256,36.879-116,1.392-1.758-1.74-3.515-2.957-1.758Z" transform="translate(310 435)" fill="#5f64ac"/>
        <path id="Path-230" data-name="Path" d="M139.563,1.616c-1.372,18.065-17.155,35.964-29.507,48.726C96.675,64.1,77.8,71.556,60.82,80.174,46.238,87.632,29.6,94.427,18.79,107.023,8.84,118.624,4.208,133.54.09,147.959c-.686,1.989,2.745,2.983,3.26.829,5.318-17.9,11.151-35.964,26.934-47.731,15.44-11.6,34.654-19.225,51.98-28.175,16.126-8.287,28.306-16.9,39.457-30.992,9.607-12.1,20.072-24.694,21.273-40.273.172-2.155-3.26-2.155-3.431,0Z" transform="translate(263 557)" fill="#5560a6"/>
        <path id="Path-231" data-name="Path" d="M64.278.508A151.9,151.9,0,0,1,42.216,21.45c-7.408,5.455-15.3,10.031-22.063,16.718C8.719,49.431,1.955,64.742.023,81.284c-.322,2.288,2.9,2.288,3.221,0,2.416-19.886,12.4-36.6,27.538-47.515C43.665,24.442,55.743,15.643,66.533,3.148c1.449-1.76-.805-4.224-2.255-2.64Z" transform="translate(282 631)" fill="#5560a6"/>
        <path id="Path-232" data-name="Path" d="M1.174,3.635a108.1,108.1,0,0,0,29.407,7.808c11.492,1.3,23.154-.744,34.646.558,21.464,2.231,40.054,17.29,49.687,38.112,1.014,2.045,3.887.186,2.873-1.859-8.619-18.591-24-32.721-42.42-37.926C64.55,7.167,53.565,8.282,42.58,8.282A99.433,99.433,0,0,1,1.85.1c-1.859-.744-2.7,2.789-.676,3.532Z" transform="translate(480 601)" fill="#5f64ac"/>
        <path id="Path-233" data-name="Path" d="M.006,1.694A82.6,82.6,0,0,0,30.876,59.218C52.5,76.6,77.616,77.987,104.3,76.6c2.267-.174,2.267-3.65,0-3.476-25.637,1.217-50.228.174-70.982-16.336A80.154,80.154,0,0,1,3.494,1.694C3.32-.565-.168-.565.006,1.694Z" transform="translate(403 729)" fill="#5f64ac"/>
        <path id="Path-234" data-name="Path" d="M0,0S43.984,16.3,50.818,16.5s1.752,6.211-6.659,5.434-34.346-9.7-34.346-9.7Z" transform="translate(618 938)" fill="#9493c7"/>
        <path id="Path-235" data-name="Path" d="M5,10c6.667,0,6.667-10,0-10S-1.667,10,5,10Z" transform="translate(2873 371)" fill="#b4b4da"/>
        <circle id="Oval-9" data-name="Oval" cx="9.5" cy="9.5" r="9.5" transform="translate(1347 1367)" fill="#9493c7"/>
        <ellipse id="Oval-10" data-name="Oval" cx="195.5" cy="38.5" rx="195.5" ry="38.5" transform="translate(298 1757)" fill="#c7dbee"/>
        <ellipse id="Oval-11" data-name="Oval" cx="135.5" cy="27" rx="135.5" ry="27" transform="translate(362 1770)" fill="#fff"/>
        <ellipse id="Oval-12" data-name="Oval" cx="14.86" cy="24.185" rx="14.86" ry="24.185" transform="translate(453.428 483.446) rotate(17.002)" fill="#2c2a5c"/>
        <path id="Path-236" data-name="Path" d="M64,14.809c-.5-.344-9.426-4.994-9.426-4.994-7.111-6.027-13.726,7.232-16.868,12.226-3.307,5.51-7.276,10.676-11.08,15.842C17.53,50.11,8.269,62.68,8.269,78.867c0,5.51-8.269,5.51-8.269,0,0-22.9,15.545-38.573,27.287-56.137C32.083,15.67,39.194,2.755,47.793,0A49.135,49.135,0,0,1,64,14.809Z" transform="translate(461 419)" fill="#2c2a5c"/>
        <path id="Path-237" data-name="Path" d="M.758,6.024C8.437,16.882,14.866,30.7,29.51,34.816c5.536,1.481,7.858-6.417,2.322-7.9C20.4,23.793,14.509,10.63,8.437,1.91,5.4-2.532-2.456,1.581.758,6.024Z" transform="translate(451 522)" fill="#2c2a5c"/>
        <ellipse id="Oval-13" data-name="Oval" cx="14.86" cy="24.185" rx="14.86" ry="24.185" transform="translate(447.216 481.527) rotate(17.002)" fill="#4a52a3"/>
        <path id="Path-238" data-name="Path" d="M61.673,5.571a.166.166,0,0,0-.165-.171h0c-.165-.171-.331-.513-.5-.684-14.55-14.529-26.785,8.2-33.73,18.46C15.378,40.611-.164,55.994,0,78.9c0,5.47,8.267,5.47,8.267,0,0-16.067,9.259-28.544,18.353-40.68,3.8-5.128,7.771-10.255,11.078-15.725,2.976-4.957,9.755-18.118,16.865-12.136l8.6,7.692C65.476,12.579,62.335,6.768,61.673,5.571Z" transform="translate(461 419)" fill="#4a52a3"/>
      </g>
    </g>
  </g>
</svg>
