<svg viewBox="10248.0 2442.0 20.0 24.0" ><path transform="translate(10240.0, 2438.0)" d="M 16.5625 22.74999809265137 L 23.71875 15.8799991607666 L 22.5 14.70999717712402 L 16.5625 20.40999603271484 L 13.34375 17.31999778747559 L 12.125 18.48999786376953 L 16.5625 22.74999809265137 Z M 9.874999046325684 28 C 9.374999046325684 28 8.937499046325684 27.81999969482422 8.562499046325684 27.46000099182129 C 8.1875 27.10000038146973 8 26.67999839782715 8 26.19999694824219 L 8 5.800000190734863 C 8 5.319999694824219 8.1875 4.899999618530273 8.562499046325684 4.539999961853027 C 8.937499046325684 4.179999828338623 9.374999046325684 3.999999523162842 9.874999046325684 3.999999523162842 L 21.15625 3.999999523162842 L 28 10.5699987411499 L 28 26.19999694824219 C 28 26.67999839782715 27.8125 27.10000038146973 27.4375 27.46000099182129 C 27.06249809265137 27.81999969482422 26.625 28 26.125 28 L 9.874999046325684 28 Z M 20.21875 11.37999820709229 L 20.21875 5.800000190734863 L 9.874999046325684 5.800000190734863 L 9.874999046325684 26.19999694824219 L 26.125 26.19999694824219 L 26.125 19.34822845458984 L 26.125 11.37999820709229 L 20.21875 11.37999820709229 Z M 9.874999046325684 5.800000190734863 L 9.874999046325684 11.37999820709229 L 9.874999046325684 5.800000190734863 L 9.874999046325684 26.19999694824219 L 9.874999046325684 5.800000190734863 Z" fill="#000000" stroke="none" stroke-width="1" stroke-miterlimit="4" stroke-linecap="butt" /></svg>