<svg xmlns="http://www.w3.org/2000/svg" xmlns:xlink="http://www.w3.org/1999/xlink" width="37" height="37" viewBox="0 0 37 37">
  <defs>
    <clipPath id="clip-path">
      <circle id="Ellipse_60" data-name="Ellipse 60" cx="18.5" cy="18.5" r="18.5" transform="translate(0.455 -0.445)" fill="#c2c2c2"/>
    </clipPath>
  </defs>
  <g id="Mask_Group_8" data-name="Mask Group 8" transform="translate(-0.455 0.445)" clip-path="url(#clip-path)">
    <g id="tiktok-icon-black-1-logo-svgrepo-com">
      <path id="Path_2103" data-name="Path 2103" d="M0,0H36.959V36.959H0Z"/>
      <path id="Path_2104" data-name="Path 2104" d="M7.35,15.164,7.4,15.3C7.39,15.282,7.373,15.236,7.35,15.164Zm1.873-3.027a2.014,2.014,0,0,1,2.609-1.775V8.488a3.938,3.938,0,0,1,.69.043v2.41a2.014,2.014,0,0,0-2.609,1.775,2.21,2.21,0,0,0,.39,1.339c-.081-.043-.162-.092-.245-.147A2.053,2.053,0,0,1,9.223,12.136ZM16.45,5.025A3.318,3.318,0,0,1,15.656,3.4h.658a3.08,3.08,0,0,0,.825,2.208l.014.014A3.662,3.662,0,0,1,16.45,5.025Zm3.172,1.7V9.083a8.254,8.254,0,0,1-1.463-.2A5.545,5.545,0,0,1,16.732,8.3s-.387-.254-.416-.271V12.9a4.935,4.935,0,0,1-.289,1.515,4.43,4.43,0,0,1-2.274,2.424,4.342,4.342,0,0,1-1.812.4,4.491,4.491,0,0,1-2.442-.73,4.847,4.847,0,0,1-.7-.586l.006.006a4.462,4.462,0,0,0,2.442.73,4.342,4.342,0,0,0,1.812-.4,4.43,4.43,0,0,0,2.274-2.424,4.935,4.935,0,0,0,.289-1.515V7.449c.032.017.416.271.416.271a5.545,5.545,0,0,0,1.426.586,8.254,8.254,0,0,0,1.463.2V6.656A2.24,2.24,0,0,0,19.621,6.722Z" transform="translate(5.242 5.923)" fill="#ee1d52"/>
      <path id="Path_2105" data-name="Path 2105" d="M18.987,6.653V8.5a8.254,8.254,0,0,1-1.463-.2A5.545,5.545,0,0,1,16.1,7.718s-.387-.254-.416-.271v4.877a4.935,4.935,0,0,1-.289,1.515,4.43,4.43,0,0,1-2.274,2.424,4.342,4.342,0,0,1-1.812.4,4.491,4.491,0,0,1-2.442-.73l-.006-.006a4.874,4.874,0,0,1-.343-.39,4.718,4.718,0,0,1-.652-1.183v0a4.758,4.758,0,0,1-.257-1.576,4.333,4.333,0,0,1,.528-2A4.712,4.712,0,0,1,9.161,9.524,4.3,4.3,0,0,1,10.379,8.8a4.066,4.066,0,0,1,1.512-.317v1.873a2.008,2.008,0,0,0-1.772,3.55c.084.055.165.1.245.147a2.033,2.033,0,0,0,2.468.629,1.9,1.9,0,0,0,1.042-1.146,2.764,2.764,0,0,0,.107-.947V3.4h1.732a3.292,3.292,0,0,0,.794,1.628,3.845,3.845,0,0,0,.7.595,3.645,3.645,0,0,0,.967.739,3.685,3.685,0,0,0,.811.294Z" transform="translate(5.183 5.923)" fill="#fff"/>
      <g id="Group_116" data-name="Group 116" transform="translate(12.099 8.741)">
        <path id="Path_2106" data-name="Path 2106" d="M7.046,16.89l.043.124C7.084,17,7.066,16.956,7.046,16.89Z" transform="translate(-6.786 -5.926)" fill="#69c9d0"/>
        <path id="Path_2107" data-name="Path 2107" d="M10.172,10.156a4.26,4.26,0,0,0-1.218.721A4.67,4.67,0,0,0,7.93,12.133a4.319,4.319,0,0,0-.528,2,4.82,4.82,0,0,0,.257,1.576v0a4.769,4.769,0,0,0,.652,1.183,4.875,4.875,0,0,0,.343.39,4.861,4.861,0,0,1-1.036-.97,4.624,4.624,0,0,1-.649-1.177v-.006a4.689,4.689,0,0,1-.257-1.579,4.333,4.333,0,0,1,.528-2A4.67,4.67,0,0,1,8.264,10.3a4.333,4.333,0,0,1,3.423-1v.537a4.069,4.069,0,0,0-1.515.317Z" transform="translate(-6.709 -4.168)" fill="#69c9d0"/>
        <path id="Path_2108" data-name="Path 2108" d="M16.541,3.224H14.81v9.195a2.837,2.837,0,0,1-.107.947,1.92,1.92,0,0,1-1.042,1.146,1.948,1.948,0,0,1-2.02-.193,1.875,1.875,0,0,1-.447-.433,1.924,1.924,0,0,0,1.775.046,1.9,1.9,0,0,0,1.042-1.146,2.764,2.764,0,0,0,.107-.947V2.644H16.51A2.025,2.025,0,0,0,16.541,3.224Zm3.273,2.745v.511A3.685,3.685,0,0,1,19,6.185a3.688,3.688,0,0,1-.967-.739c.089.058.179.11.274.159A3.119,3.119,0,0,0,19.814,5.968Z" transform="translate(-7.742 -2.644)" fill="#69c9d0"/>
      </g>
      <path id="Path_2109" data-name="Path 2109" d="M18.267,26.366a1,1,0,0,1-.046-.31v-.009A1.044,1.044,0,0,0,18.267,26.366Zm2.287-.319v.009a1.006,1.006,0,0,1-.046.31A1.044,1.044,0,0,0,20.554,26.048Z" transform="translate(4.227 6.042)" fill="none"/>
      <path id="Path_2110" data-name="Path 2110" d="M17.925,25.613a.628.628,0,0,0,.029.193c0,.006,0,.009,0,.014a.731.731,0,0,0,.7.514v.739a1.663,1.663,0,0,1-1.01-.219,1.471,1.471,0,0,1,.063-2.537,1.787,1.787,0,0,1,.949-.182v.739a.729.729,0,0,0-.73.73Z" transform="translate(3.03 1.145)" fill="#69c9d0"/>
      <path id="Path_2111" data-name="Path 2111" d="M19.9,25.613a.628.628,0,0,1-.029.193c0,.006,0,.009,0,.014a.731.731,0,0,1-.7.514v.739a1.654,1.654,0,0,0,1.007-.219,1.445,1.445,0,0,0,.7-1.25,1.462,1.462,0,0,0-.759-1.287,1.787,1.787,0,0,0-.949-.182v.739a.729.729,0,0,1,.73.73v.009Z" transform="translate(2.519 1.145)" fill="#ee1d52"/>
      <path id="Path_2112" data-name="Path 2112" d="M4.481,23.265h2.7l-.251.745H6.227v2.848H5.359V24.01H4.481Zm7.169,0v.745h.877v2.848H13.4V24.01h.707l.251-.745Zm-3.876.846a.421.421,0,1,0-.421-.421A.42.42,0,0,0,7.774,24.111Zm-.421,2.745h.854V24.408H7.353Zm3.925-2.765h-1l-.86.86V23.265H8.571l0,3.587h.857v-.935l.266-.242.831,1.177h.915l-1.2-1.72Zm8.19,1.045,1.045-1.045h-1l-.86.86V23.265h-.848l-.006,3.59h.857V25.92l.268-.242.831,1.177h.915Zm-2.2.266a1.489,1.489,0,1,1-1.489-1.469A1.479,1.479,0,0,1,17.272,25.4Zm-.759,0a.73.73,0,1,0-.73.73A.729.729,0,0,0,16.513,25.4Z" transform="translate(5.903 1.346)" fill="#fff"/>
    </g>
  </g>
</svg>
