<svg viewBox="10505.0 2444.0 20.0 21.0" ><path transform="translate(10497.0, 2435.05)" d="M 18 19.09492874145508 C 16.625 19.09492874145508 15.5 18.62149810791016 14.625 17.67463874816895 C 13.75 16.72777938842773 13.3125 15.5103874206543 13.3125 14.02246475219727 C 13.3125 12.53454208374023 13.75 11.31715106964111 14.625 10.37029075622559 C 15.5 9.423430442810059 16.625 8.950000762939453 18 8.950000762939453 C 19.375 8.950000762939453 20.5 9.423430442810059 21.375 10.37029075622559 C 22.25 11.31715202331543 22.6875 12.53454208374023 22.6875 14.02246475219727 C 22.6875 15.5103874206543 22.25 16.72777938842773 21.375 17.67463874816895 C 20.5 18.62149810791016 19.375 19.09492874145508 18 19.09492874145508 Z M 8 29.95000267028809 L 8 26.7712574005127 C 8 25.91457366943359 8.197916030883789 25.18188285827637 8.59375 24.57318878173828 C 8.989583015441895 23.9644947052002 9.5 23.5023365020752 10.125 23.18671607971191 C 11.52083301544189 22.5103874206543 12.859375 22.00314140319824 14.140625 21.66497802734375 C 15.421875 21.32681274414062 16.70833206176758 21.15773010253906 18 21.15773010253906 C 19.29166793823242 21.15773010253906 20.57291603088379 21.33244895935059 21.84375 21.681884765625 C 23.11458396911621 22.03132057189941 24.44791603088379 22.53293228149414 25.84375 23.18671607971191 C 26.48958206176758 23.5023365020752 27.01041412353516 23.9644947052002 27.40625 24.57318878173828 C 27.80208396911621 25.18188285827637 28 25.91457366943359 28 26.7712574005127 L 28 29.95000267028809 L 8 29.95000267028809 Z M 9.875 27.92101669311523 L 26.125 27.92101669311523 L 26.125 26.7712574005127 C 26.125 26.41054916381836 26.02604293823242 26.06674766540527 25.828125 25.73985481262207 C 25.63021087646484 25.41296195983887 25.38541793823242 25.17061233520508 25.09375190734863 25.01280212402344 C 23.76041793823242 24.31392860412598 22.54166793823242 23.83486175537109 21.43750190734863 23.57560348510742 C 20.33333396911621 23.31634521484375 19.1875 23.18671607971191 18 23.18671607971191 C 16.8125 23.18671607971191 15.65625 23.31634712219238 14.53125 23.57560539245605 C 13.40625095367432 23.83486557006836 12.1875 24.31393051147461 10.875 25.01280403137207 C 10.58333396911621 25.17061424255371 10.34375 25.41296577453613 10.15625 25.7398567199707 C 9.96875 26.06674957275391 9.875 26.41054916381836 9.875 26.7712574005127 L 9.875 27.92101669311523 Z M 18 17.06594276428223 C 18.8125 17.06594276428223 19.484375 16.77850341796875 20.015625 16.2036247253418 C 20.546875 15.62874507904053 20.8125 14.90169143676758 20.8125 14.02246475219727 C 20.8125 13.14323806762695 20.546875 12.416184425354 20.015625 11.84130573272705 C 19.484375 11.26642608642578 18.8125 10.97898578643799 18 10.97898578643799 C 17.1875 10.97898578643799 16.515625 11.26642608642578 15.984375 11.84130477905273 C 15.453125 12.416184425354 15.1875 13.14323806762695 15.1875 14.02246475219727 C 15.1875 14.90169334411621 15.453125 15.62874507904053 15.984375 16.2036247253418 C 16.515625 16.77850341796875 17.1875 17.06594276428223 18 17.06594276428223 Z M 18 14.02246475219727 Z M 18 27.92101669311523 Z" fill="#000000" stroke="none" stroke-width="1" stroke-miterlimit="4" stroke-linecap="butt" /></svg>
