<svg viewBox="10332.0 2444.0 24.0 20.0" ><path transform="translate(10328.0, 2436.0)" d="M 5.800000190734863 28 C 5.320000648498535 28 4.899999618530273 27.8125 4.539999961853027 27.4375 C 4.179999828338623 27.0625 4 26.625 4 26.125 L 4 9.875 C 4 9.375 4.179999828338623 8.9375 4.539999961853027 8.5625 C 4.899999618530273 8.1875 5.320000648498535 8 5.800000190734863 8 L 21.39999961853027 8 C 21.8799991607666 8 22.30000114440918 8.1875 22.65999794006348 8.5625 C 23.02000045776367 8.9375 23.19999885559082 9.375 23.19999885559082 9.875 L 23.19999885559082 16.59375 L 28 11.59375 L 28 24.40625 L 23.19999885559082 19.40625 L 23.19999885559082 26.125 C 23.19999885559082 26.625 23.02000045776367 27.0625 22.65999794006348 27.4375 C 22.29999732971191 27.8125 21.8799991607666 28 21.39999961853027 28 L 5.800000190734863 28 Z M 5.800000190734863 26.125 L 21.39999961853027 26.125 L 21.39999961853027 9.875 L 5.800000190734863 9.875 L 5.800000190734863 26.125 Z M 5.800000190734863 26.125 L 5.800000190734863 9.875 L 5.800000190734863 26.125 Z" fill="#000000" stroke="none" stroke-width="1" stroke-miterlimit="4" stroke-linecap="butt" /></svg>
