<svg xmlns="http://www.w3.org/2000/svg" xmlns:xlink="http://www.w3.org/1999/xlink" width="38" height="37" viewBox="0 0 38 37">
  <defs>
    <clipPath id="clip-path">
      <ellipse id="Ellipse_38" data-name="Ellipse 38" cx="19" cy="18.5" rx="19" ry="18.5" transform="translate(0.357 -0.445)" fill="#c2c2c2"/>
    </clipPath>
  </defs>
  <g id="Mask_Group_2" data-name="Mask Group 2" transform="translate(-0.357 0.445)" clip-path="url(#clip-path)">
    <g id="youtube-svgrepo-com" transform="translate(0 0)">
      <ellipse id="Ellipse_57" data-name="Ellipse 57" cx="19" cy="18.5" rx="19" ry="18.5" transform="translate(0.357 -0.445)" fill="#d22215"/>
      <path id="Path_2032" data-name="Path 2032" d="M34.625,20.627c-.571.174-1.166.324-1.762.473-4.229.9-9.868-1.538-12.3,2.435-2.031,3.159-2.672,7.112-4.982,9.937L27.918,45.811A19.044,19.044,0,0,0,43.862,29.864Z" transform="translate(-5.579 -8.515)" fill="#a81411"/>
      <path id="Path_2033" data-name="Path 2033" d="M30.518,18.447H17.783A4.524,4.524,0,0,0,13.26,22.97v6.366a4.524,4.524,0,0,0,4.524,4.524H30.518a4.524,4.524,0,0,0,4.524-4.524V22.97a4.524,4.524,0,0,0-4.524-4.524Zm-3.059,8.016L21.5,29.3a.239.239,0,0,1-.342-.216V23.229a.239.239,0,0,1,.347-.213l5.956,3.018a.239.239,0,0,1,0,.429Z" transform="translate(-4.684 -7.674)" fill="#fff"/>
      <path id="Path_2034" data-name="Path 2034" d="M37.287,18.447h-6.5V24.29l3.441,1.744a.239.239,0,0,1-.005.429L30.791,28.1V33.86h6.5a4.524,4.524,0,0,0,4.524-4.524V22.97A4.524,4.524,0,0,0,37.287,18.447Z" transform="translate(-11.453 -7.674)" fill="#d1d1d1"/>
    </g>
  </g>
</svg>
